SplineFontDB: 3.0
FontName: LoversQuarrel-Regular
FullName: Lovers Quarrel
FamilyName: Lovers Quarrel
Weight: Book
Copyright: Copyright (c) 2012 TypeSETit, LLC (typesetit@att.net),\nwith Reserved Font Name "Lovers Quarrel"
Version: 1.001
ItalicAngle: 0
UnderlinePosition: -36
UnderlineWidth: 6
Ascent: 800
Descent: 200
sfntRevision: 0x00010042
LayerCount: 2
Layer: 0 1 "Back"  1
Layer: 1 1 "Fore"  0
XUID: [1021 420 554458069 3502886]
FSType: 0
OS2Version: 2
OS2_WeightWidthSlopeOnly: 0
OS2_UseTypoMetrics: 1
CreationTime: 1332840237
ModificationTime: 1332866514
PfmFamily: 17
TTFWeight: 400
TTFWidth: 5
LineGap: 0
VLineGap: 0
Panose: 2 0 6 4 6 0 0 2 0 2
OS2TypoAscent: -74
OS2TypoAOffset: 1
OS2TypoDescent: -200
OS2TypoDOffset: 1
OS2TypoLinegap: 0
OS2WinAscent: 0
OS2WinAOffset: 1
OS2WinDescent: 1
OS2WinDOffset: 1
HheadAscent: 0
HheadAOffset: 1
HheadDescent: -1
HheadDOffset: 1
OS2SubXSize: 700
OS2SubYSize: 650
OS2SubXOff: 0
OS2SubYOff: 140
OS2SupXSize: 700
OS2SupYSize: 650
OS2SupXOff: 0
OS2SupYOff: 477
OS2StrikeYSize: 50
OS2StrikeYPos: 250
OS2Vendor: 'pyrs'
OS2CodePages: 20000001.00000000
OS2UnicodeRanges: 80000023.5000204a.00000000.00000000
DEI: 91125
TtTable: prep
PUSHW_1
 511
SCANCTRL
PUSHB_1
 4
SCANTYPE
EndTTInstrs
ShortTable: maxp 16
  1
  0
  264
  280
  9
  0
  0
  2
  0
  1
  1
  0
  64
  0
  0
  0
EndShort
LangName: 1033 "" "" "" "RobertE.Leuschke: Lovers Quarrel: 2012" "" "Version 1.001" "" "Lovers Quarrel is a trademark of Robert E. Leuschke." "Robert E. Leuschke" "Robert E. Leuschke" "" "" "www.typesetit.com" "This Font Software is licensed under the SIL Open Font License, Version 1.1. This license is available with a FAQ at: http://scripts.sil.org/OFL." "http://scripts.sil.org/OFL" 
GaspTable: 1 65535 15 1
Encoding: UnicodeBmp
UnicodeInterp: none
NameList: Adobe Glyph List
DisplaySize: -24
AntiAlias: 1
FitToEm: 1
BeginChars: 65539 264

StartChar: .notdef
Encoding: 65536 -1 0
Width: 323
Flags: W
LayerCount: 2
Fore
SplineSet
240 276 m 0,0,1
 225 276 225 276 198 288 c 0,2,3
 166 302 166 302 149.5 302 c 128,-1,4
 133 302 133 302 121 280 c 0,5,6
 120 278 120 278 112.5 278 c 128,-1,7
 105 278 105 278 105 281 c 1,8,9
 133 331 133 331 166 331 c 0,10,11
 179 331 179 331 208 320 c 0,12,13
 241 307 241 307 253 307 c 0,14,15
 276 307 276 307 288 331 c 0,16,17
 288 333 288 333 290 333 c 0,18,19
 302 333 302 333 302 330 c 0,20,21
 302 276 302 276 240 276 c 0,0,1
EndSplineSet
EndChar

StartChar: exclam
Encoding: 33 33 6
Width: 277
GlyphClass: 2
Flags: W
LayerCount: 2
Fore
SplineSet
160 121 m 0,0,1
 154 103 154 103 140.5 103 c 128,-1,2
 127 103 127 103 127 116 c 0,3,4
 127 134 127 134 213 303 c 128,-1,5
 299 472 299 472 343 544 c 1,6,7
 343 546 343 546 351.5 546 c 128,-1,8
 360 546 360 546 370 537 c 0,9,10
 390 521 390 521 390 517.5 c 128,-1,11
 390 514 390 514 389 513 c 0,12,13
 192 207 192 207 160 121 c 0,0,1
116 31 m 128,-1,15
 125 22 125 22 125 9.5 c 128,-1,16
 125 -3 125 -3 116 -11.5 c 128,-1,17
 107 -20 107 -20 93.5 -20 c 128,-1,18
 80 -20 80 -20 71 -11 c 1,19,20
 61 -4 61 -4 61 9 c 128,-1,21
 61 22 61 22 70.5 31 c 128,-1,22
 80 40 80 40 93.5 40 c 128,-1,14
 107 40 107 40 116 31 c 128,-1,15
EndSplineSet
EndChar

StartChar: quotedbl
Encoding: 34 34 7
Width: 212
GlyphClass: 2
Flags: W
LayerCount: 2
Fore
SplineSet
182 467 m 0,0,1
 201 467 201 467 201 446 c 128,-1,2
 201 425 201 425 139 277 c 1,3,-1
 129 277 l 1,4,-1
 148 436 l 2,5,6
 149 448 149 448 159 458 c 1,7,8
 170 467 170 467 182 467 c 0,0,1
79 467 m 0,9,10
 97 467 97 467 97 444.5 c 128,-1,11
 97 422 97 422 36 277 c 1,12,-1
 27 277 l 1,13,-1
 45 435 l 2,14,15
 47 449 47 449 57.5 458 c 128,-1,16
 68 467 68 467 79 467 c 0,9,10
EndSplineSet
EndChar

StartChar: numbersign
Encoding: 35 35 8
Width: 497
GlyphClass: 2
Flags: W
LayerCount: 2
Fore
SplineSet
479 310 m 1,0,-1
 461 278 l 1,1,-1
 361 278 l 1,2,-1
 306 184 l 1,3,-1
 413 184 l 1,4,-1
 394 153 l 1,5,-1
 287 153 l 1,6,-1
 194 0 l 1,7,-1
 159 0 l 1,8,-1
 250 153 l 1,9,-1
 158 153 l 1,10,-1
 65 0 l 1,11,-1
 30 0 l 1,12,-1
 122 153 l 1,13,-1
 17 153 l 1,14,-1
 37 184 l 1,15,-1
 141 184 l 1,16,-1
 197 278 l 1,17,-1
 83 278 l 1,18,-1
 103 310 l 1,19,-1
 216 310 l 1,20,-1
 308 464 l 1,21,-1
 345 464 l 1,22,-1
 251 310 l 1,23,-1
 345 310 l 1,24,-1
 437 464 l 1,25,-1
 473 464 l 1,26,-1
 381 310 l 1,27,-1
 479 310 l 1,0,-1
325 278 m 1,28,-1
 233 278 l 1,29,-1
 176 184 l 1,30,-1
 269 184 l 1,31,-1
 325 278 l 1,28,-1
EndSplineSet
EndChar

StartChar: dollar
Encoding: 36 36 9
Width: 299
GlyphClass: 2
Flags: W
LayerCount: 2
Fore
SplineSet
317 325 m 0,0,1
 317 307 317 307 306.5 294 c 128,-1,2
 296 281 296 281 281 281 c 128,-1,3
 266 281 266 281 259 290 c 1,4,5
 250 299 250 299 251 311 c 0,6,7
 252 339 252 339 281 339 c 0,8,9
 298 339 298 339 301 328 c 1,10,11
 296 361 296 361 259 368 c 1,12,-1
 181 227 l 1,13,14
 226 167 226 167 226 128 c 0,15,16
 226 68 226 68 172 33.5 c 128,-1,17
 118 -1 118 -1 55 -1 c 1,18,-1
 37 -37 l 1,19,-1
 14 -41 l 1,20,-1
 37 0 l 1,21,22
 -26 12 -26 12 -45 35 c 1,23,24
 -44 40 -44 40 -33 51 c 1,25,-1
 -27 51 l 1,26,27
 1 23 1 23 45 14 c 1,28,-1
 145 195 l 1,29,30
 105 245 105 245 105 280 c 0,31,32
 105 330 105 330 151 356.5 c 128,-1,33
 197 383 197 383 249 383 c 1,34,-1
 268 418 l 1,35,-1
 289 422 l 1,36,-1
 267 381 l 1,37,38
 317 373 317 373 317 325 c 0,0,1
184 116 m 0,39,40
 184 145 184 145 157 181 c 1,41,-1
 63 12 l 1,42,43
 108 12 108 12 146 41.5 c 128,-1,44
 184 71 184 71 184 116 c 0,39,40
233 371 m 2,45,46
 203 371 203 371 175 351 c 1,47,48
 147 329 147 329 147 297 c 0,49,50
 147 281 147 281 155 269 c 1,51,52
 163 253 163 253 171 241 c 1,53,-1
 243 371 l 1,54,-1
 233 371 l 2,45,46
EndSplineSet
EndChar

StartChar: percent
Encoding: 37 37 10
Width: 414
GlyphClass: 2
Flags: W
LayerCount: 2
Fore
SplineSet
178 488 m 0,0,1
 231 488 231 488 231 439 c 0,2,3
 231 407 231 407 207 358.5 c 128,-1,4
 183 310 183 310 159 288 c 1,5,6
 166 272 166 272 186 272 c 0,7,8
 218 272 218 272 275 317 c 0,9,10
 295 333 295 333 343 387 c 1,11,12
 393 441 393 441 396 443 c 0,13,14
 400 445 400 445 406.5 445 c 128,-1,15
 413 445 413 445 413 441 c 1,16,-1
 3 -56 l 1,17,-1
 -21 -56 l 1,18,-1
 -22 -53 l 1,19,20
 80 54 80 54 291 315 c 1,21,22
 229 260 229 260 185 260 c 0,23,24
 161 260 161 260 146 277 c 1,25,26
 117 254 117 254 88 254 c 1,27,28
 41 256 41 256 41 313 c 0,29,30
 41 342 41 342 58.5 382.5 c 128,-1,31
 76 423 76 423 111.5 455.5 c 128,-1,32
 147 488 147 488 178 488 c 0,0,1
325 214 m 0,33,34
 376 214 376 214 376 161.5 c 128,-1,35
 376 109 376 109 328.5 45 c 128,-1,36
 281 -19 281 -19 236 -19 c 0,37,38
 186 -19 186 -19 186 39 c 0,39,40
 186 68 186 68 203 108.5 c 128,-1,41
 220 149 220 149 256 181.5 c 128,-1,42
 292 214 292 214 325 214 c 0,33,34
189 466 m 0,43,44
 168 466 168 466 143.5 441 c 128,-1,45
 119 416 119 416 99 373 c 128,-1,46
 79 330 79 330 79 299.5 c 128,-1,47
 79 269 79 269 101 269 c 0,48,49
 119 269 119 269 139 286 c 1,50,51
 129 302 129 302 129 319 c 0,52,53
 129 347 129 347 150 347 c 128,-1,54
 171 347 171 347 171 327 c 0,55,56
 171 323 171 323 170 320 c 1,57,58
 182 336 182 336 197.5 373 c 128,-1,59
 213 410 213 410 213 438 c 128,-1,60
 213 466 213 466 189 466 c 0,43,44
315 47 m 0,61,62
 330 65 330 65 344 102.5 c 128,-1,63
 358 140 358 140 358 166.5 c 128,-1,64
 358 193 358 193 333 193 c 0,65,66
 314 193 314 193 288 167 c 1,67,68
 263 140 263 140 243 97 c 128,-1,69
 223 54 223 54 223 24.5 c 128,-1,70
 223 -5 223 -5 247 -5 c 0,71,72
 273 -5 273 -5 315 47 c 0,61,62
EndSplineSet
EndChar

StartChar: ampersand
Encoding: 38 38 11
Width: 476
GlyphClass: 2
Flags: W
LayerCount: 2
Fore
SplineSet
70 -158 m 0,0,1
 82 -209 82 -209 136 -209 c 0,2,3
 161 -209 161 -209 183.5 -190.5 c 128,-1,4
 206 -172 206 -172 222 -134 c 0,5,6
 247 -72 247 -72 262 -6 c 1,7,8
 224 -12 224 -12 222 -12 c 1,9,10
 191 -143 191 -143 155 -183 c 0,11,12
 150 -188 150 -188 148 -182 c 1,13,-1
 149 -178 l 1,14,15
 182 -142 182 -142 211 -12 c 1,16,17
 200 -13 200 -13 185 -13 c 128,-1,18
 170 -13 170 -13 148 -11.5 c 128,-1,19
 126 -10 126 -10 102 -3.5 c 128,-1,20
 78 3 78 3 51 14.5 c 128,-1,21
 24 26 24 26 6 48 c 1,22,23
 -18 74 -18 74 -18 103.5 c 128,-1,24
 -18 133 -18 133 0 168 c 128,-1,25
 18 203 18 203 42 228 c 1,26,27
 79 269 79 269 134 305 c 1,28,29
 107 323 107 323 87 351 c 0,30,31
 47 408 47 408 47 455 c 0,32,33
 47 480 47 480 59 503 c 0,34,35
 84 551 84 551 137.5 551 c 128,-1,36
 191 551 191 551 222 498 c 1,37,38
 249 454 249 454 256 371 c 1,39,-1
 312 402 l 1,40,41
 326 482 326 482 346 506 c 128,-1,42
 366 530 366 530 382 530 c 0,43,44
 409 530 409 530 409 494 c 0,45,46
 409 464 409 464 381 441 c 0,47,48
 356 420 356 420 330 404 c 1,49,50
 322 369 322 369 318 304 c 1,51,52
 358 319 358 319 387 347 c 128,-1,53
 416 375 416 375 426 408 c 0,54,55
 427 412 427 412 431 411 c 128,-1,56
 435 410 435 410 434 406 c 0,57,58
 424 372 424 372 392 342.5 c 128,-1,59
 360 313 360 313 317 296 c 1,60,61
 317 291 317 291 316.5 281 c 128,-1,62
 316 271 316 271 316 266 c 1,63,64
 368 299 368 299 420 299 c 0,65,66
 512 299 512 299 512 227 c 0,67,68
 512 182 512 182 471 125 c 1,69,70
 410 36 410 36 299 6 c 1,71,72
 287 -79 287 -79 255 -147 c 0,73,74
 219 -223 219 -223 151 -223 c 0,75,76
 118 -223 118 -223 92.5 -204.5 c 128,-1,77
 67 -186 67 -186 64 -158 c 1,78,79
 62 -154 62 -154 66 -154 c 1,80,81
 70 -156 70 -156 70 -158 c 0,0,1
193.5 95 m 128,-1,83
 189 95 189 95 187 98 c 0,84,85
 180 110 180 110 180 123.5 c 128,-1,86
 180 137 180 137 185 152 c 0,87,88
 199 188 199 188 241 224 c 1,89,90
 242 242 242 242 242 279 c 1,91,92
 235 279 235 279 229 279 c 0,93,94
 187 279 187 279 152 295 c 1,95,96
 134 281 134 281 103 249.5 c 128,-1,97
 72 218 72 218 51 180 c 128,-1,98
 30 142 30 142 30 113 c 0,99,100
 30 60 30 60 78 35 c 0,101,102
 139 2 139 2 214 2 c 1,103,104
 231 78 231 78 240 207 c 1,105,106
 190 171 190 171 188 125 c 0,107,108
 188 111 188 111 193 103 c 128,-1,82
 198 95 198 95 193.5 95 c 128,-1,83
486 206 m 0,109,110
 486 270 486 270 396 270 c 0,111,112
 353 270 353 270 314 249 c 1,113,114
 312 223 312 223 310 176 c 0,115,116
 307 73 307 73 299 19 c 1,117,118
 399 45 399 45 450 118 c 0,119,120
 486 169 486 169 486 206 c 0,109,110
131 543 m 0,121,122
 95 543 95 543 74 509 c 0,123,124
 59 485 59 485 59 454 c 0,125,126
 59 411 59 411 98 357 c 0,127,128
 120 328 120 328 146 313 c 1,129,130
 155 318 155 318 239 363 c 1,131,132
 235 421 235 421 217 469 c 0,133,134
 188 543 188 543 131 543 c 0,121,122
263 8 m 1,135,136
 273 60 273 60 292 240 c 1,137,138
 267 228 267 228 253 217 c 1,139,140
 252 200 252 200 248 167 c 0,141,142
 237 57 237 57 225 3 c 1,143,144
 237 4 237 4 263 8 c 1,135,136
257 363 m 1,145,146
 258 332 258 332 258 315.5 c 128,-1,147
 258 299 258 299 258 290 c 1,148,149
 271 291 271 291 297 297 c 1,150,151
 305 361 305 361 310 391 c 1,152,-1
 257 363 l 1,145,146
233 289 m 0,153,154
 238 289 238 289 242 289 c 1,155,156
 242 312 242 312 240 354 c 1,157,158
 209 339 209 339 163 304 c 1,159,160
 197 289 197 289 233 289 c 0,153,154
333 415 m 1,161,162
 349 425 349 425 372 452 c 128,-1,163
 395 479 395 479 395 492.5 c 128,-1,164
 395 506 395 506 387 507 c 0,165,166
 380 507 380 507 366 493 c 1,167,168
 348 473 348 473 333 415 c 1,161,162
294 260 m 1,169,-1
 296 289 l 1,170,171
 278 283 278 283 258 280 c 1,172,-1
 255 234 l 1,173,174
 276 250 276 250 294 260 c 1,169,-1
EndSplineSet
EndChar

StartChar: quotesingle
Encoding: 39 39 12
Width: 145
GlyphClass: 2
Flags: W
LayerCount: 2
Fore
SplineSet
184 346 m 0,0,1
 184 328 184 328 156 289 c 128,-1,2
 128 250 128 250 96 232 c 0,3,4
 80 223 80 223 75.5 223 c 128,-1,5
 71 223 71 223 71 227.5 c 128,-1,6
 71 232 71 232 91 255 c 128,-1,7
 111 278 111 278 133 317 c 1,8,9
 117 319 117 319 117 344 c 0,10,11
 117 356 117 356 127.5 366.5 c 128,-1,12
 138 377 138 377 147 377 c 128,-1,13
 156 377 156 377 157 377 c 0,14,15
 184 377 184 377 184 346 c 0,0,1
EndSplineSet
EndChar

StartChar: parenleft
Encoding: 40 40 13
Width: 353
GlyphClass: 2
Flags: W
LayerCount: 2
Fore
SplineSet
407 565 m 1,0,1
 283 515 283 515 181 378 c 128,-1,2
 79 241 79 241 79 100 c 128,-1,3
 79 -41 79 -41 99 -67 c 0,4,5
 103 -72 103 -72 103 -79 c 0,6,7
 103 -89 103 -89 94 -89 c 128,-1,8
 85 -89 85 -89 73 -77 c 128,-1,9
 61 -65 61 -65 50.5 -4.5 c 128,-1,10
 40 56 40 56 40 95 c 0,11,12
 40 259 40 259 132 384 c 0,13,14
 199 476 199 476 335 560 c 0,15,16
 376 585 376 585 391.5 585 c 128,-1,17
 407 585 407 585 407 565 c 1,0,1
EndSplineSet
EndChar

StartChar: parenright
Encoding: 41 41 14
Width: 411
GlyphClass: 2
Flags: W
LayerCount: 2
Fore
SplineSet
373 397 m 0,0,1
 373 230 373 230 281 107 c 1,2,3
 214 14 214 14 79 -69 c 0,4,5
 39 -94 39 -94 23 -94 c 128,-1,6
 7 -94 7 -94 7 -75 c 1,7,8
 130 -23 130 -23 231.5 113.5 c 128,-1,9
 333 250 333 250 333 391.5 c 128,-1,10
 333 533 333 533 313 557 c 1,11,12
 308 565 308 565 308 571 c 0,13,14
 308 581 308 581 319 581 c 0,15,16
 327 581 327 581 339 568 c 128,-1,17
 351 555 351 555 362 496 c 128,-1,18
 373 437 373 437 373 397 c 0,0,1
EndSplineSet
EndChar

StartChar: asterisk
Encoding: 42 42 15
Width: 287
GlyphClass: 2
Flags: W
LayerCount: 2
Fore
SplineSet
161 235 m 1,0,-1
 197 161 l 1,1,2
 197 155 197 155 192 147 c 1,3,4
 186 141 186 141 181 141 c 0,5,6
 173 141 173 141 157 178 c 2,7,-1
 137 223 l 1,8,-1
 65 144 l 1,9,10
 60 141 60 141 56 141 c 0,11,12
 39 141 39 141 39 154 c 0,13,14
 39 159 39 159 45 165 c 2,15,-1
 112 233 l 1,16,-1
 24 229 l 2,17,18
 18 229 18 229 14.5 234.5 c 128,-1,19
 11 240 11 240 11 247 c 0,20,21
 11 259 11 259 25 259 c 2,22,-1
 121 259 l 1,23,24
 81 349 81 349 81 353 c 128,-1,25
 81 357 81 357 90 357 c 128,-1,26
 99 357 99 357 110 337 c 128,-1,27
 121 317 121 317 145 267 c 1,28,-1
 223 345 l 2,29,30
 227 349 227 349 232 349 c 128,-1,31
 237 349 237 349 237 340 c 128,-1,32
 237 331 237 331 227 321 c 2,33,-1
 171 259 l 1,34,-1
 261 259 l 2,35,36
 271 259 271 259 271 253 c 0,37,38
 271 239 271 239 249 238 c 2,39,-1
 161 235 l 1,0,-1
EndSplineSet
EndChar

StartChar: plus
Encoding: 43 43 16
Width: 305
GlyphClass: 2
Flags: W
LayerCount: 2
Fore
SplineSet
307 159 m 2,0,1
 319 159 319 159 319 149 c 0,2,3
 319 141 319 141 309 141 c 128,-1,4
 299 141 299 141 288 140 c 0,5,6
 237 138 237 138 217 137 c 1,7,8
 212 114 212 114 201 45 c 0,9,10
 201 41 201 41 193 38 c 1,11,12
 186 34 186 34 179 34 c 0,13,14
 167 34 167 34 169 45 c 0,15,16
 170 50 170 50 178 80.5 c 128,-1,17
 186 111 186 111 192 135 c 1,18,19
 156 134 156 134 98 129 c 0,20,21
 91 129 91 129 91 145 c 128,-1,22
 91 161 91 161 106 161 c 2,23,-1
 145 161 l 1,24,25
 193 159 193 159 199 159 c 1,26,27
 203 178 203 178 222 256 c 0,28,29
 225 270 225 270 236 270 c 0,30,31
 244 270 244 270 240 255.5 c 128,-1,32
 236 241 236 241 221 159 c 1,33,-1
 307 159 l 2,0,1
EndSplineSet
EndChar

StartChar: comma
Encoding: 44 44 17
Width: 155
GlyphClass: 2
Flags: W
LayerCount: 2
Fore
SplineSet
128 21 m 0,0,1
 128 2 128 2 99.5 -36.5 c 128,-1,2
 71 -75 71 -75 40 -93 c 0,3,4
 24 -103 24 -103 19.5 -103 c 128,-1,5
 15 -103 15 -103 15 -101 c 0,6,7
 15 -95 15 -95 28 -80 c 1,8,9
 47 -61 47 -61 79 -9 c 1,10,11
 61 -6 61 -6 61 19 c 0,12,13
 61 31 61 31 72 41.5 c 128,-1,14
 83 52 83 52 103 52 c 0,15,16
 128 52 128 52 128 21 c 0,0,1
EndSplineSet
EndChar

StartChar: hyphen
Encoding: 45 45 18
Width: 253
GlyphClass: 2
Flags: W
LayerCount: 2
Fore
SplineSet
40 112 m 0,0,1
 21 112 21 112 21 120 c 0,2,3
 21 125 21 125 34 135 c 1,4,5
 49 144 49 144 63.5 149 c 128,-1,6
 78 154 78 154 109.5 154 c 128,-1,7
 141 154 141 154 192 148 c 128,-1,8
 243 142 243 142 243 134 c 128,-1,9
 243 126 243 126 202 125 c 128,-1,10
 161 124 161 124 123.5 118.5 c 128,-1,11
 86 113 86 113 65 112.5 c 128,-1,12
 44 112 44 112 40 112 c 0,0,1
EndSplineSet
EndChar

StartChar: period
Encoding: 46 46 19
Width: 160
GlyphClass: 2
Flags: W
LayerCount: 2
Fore
SplineSet
116 31 m 128,-1,1
 125 22 125 22 125 9.5 c 128,-1,2
 125 -3 125 -3 116 -11.5 c 128,-1,3
 107 -20 107 -20 93.5 -20 c 128,-1,4
 80 -20 80 -20 71 -11 c 1,5,6
 61 -4 61 -4 61 9 c 128,-1,7
 61 22 61 22 70.5 31 c 128,-1,8
 80 40 80 40 93.5 40 c 128,-1,0
 107 40 107 40 116 31 c 128,-1,1
EndSplineSet
EndChar

StartChar: slash
Encoding: 47 47 20
Width: 365
GlyphClass: 2
Flags: W
LayerCount: 2
Fore
SplineSet
563 517 m 1,0,1
 573 510 573 510 573 504 c 128,-1,2
 573 498 573 498 568.5 498 c 128,-1,3
 564 498 564 498 556 502.5 c 128,-1,4
 548 507 548 507 539 507 c 0,5,6
 496 507 496 507 397 397 c 0,7,8
 338 332 338 332 217.5 177.5 c 128,-1,9
 97 23 97 23 29 -22 c 0,10,11
 22 -27 22 -27 17.5 -27 c 128,-1,12
 13 -27 13 -27 13 -22.5 c 128,-1,13
 13 -18 13 -18 19 -13 c 0,14,15
 115 75 115 75 189 185 c 0,16,17
 204 206 204 206 231 246 c 2,18,-1
 270 305 l 1,19,20
 331 394 331 394 393 454 c 1,21,22
 471 527 471 527 525 527 c 0,23,24
 543 527 543 527 563 517 c 1,0,1
EndSplineSet
EndChar

StartChar: zero
Encoding: 48 48 21
Width: 547
GlyphClass: 2
Flags: W
LayerCount: 2
Fore
SplineSet
48 10 m 128,-1,1
 3 49 3 49 3 112 c 0,2,3
 3 135 3 135 9 159 c 0,4,5
 32 245 32 245 99 300 c 1,6,7
 146 340 146 340 230.5 374 c 128,-1,8
 315 408 315 408 379 408 c 0,9,10
 394 408 394 408 402.5 407.5 c 128,-1,11
 411 407 411 407 411 400.5 c 128,-1,12
 411 394 411 394 399 392 c 0,13,14
 328 386 328 386 260 361 c 0,15,16
 126 312 126 312 66 197 c 0,17,18
 37 143 37 143 37 95 c 128,-1,19
 37 47 37 47 67 19 c 128,-1,20
 97 -9 97 -9 160.5 -9 c 128,-1,21
 224 -9 224 -9 293 24 c 128,-1,22
 362 57 362 57 423 112 c 0,23,24
 463 149 463 149 488 193 c 128,-1,25
 513 237 513 237 513 276 c 0,26,27
 513 348 513 348 422 348 c 0,28,29
 301 348 301 348 200 260 c 0,30,31
 198 257 198 257 194 257 c 0,32,33
 182 257 182 257 185 268 c 0,34,35
 190 287 190 287 247 317 c 1,36,37
 329 363 329 363 404 365 c 0,38,39
 411 365 411 365 417 365 c 0,40,41
 479 365 479 365 513 338.5 c 128,-1,42
 547 312 547 312 547 269 c 128,-1,43
 547 226 547 226 523.5 181.5 c 128,-1,44
 500 137 500 137 460 100 c 0,45,46
 398 43 398 43 317 7 c 128,-1,47
 236 -29 236 -29 164.5 -29 c 128,-1,0
 93 -29 93 -29 48 10 c 128,-1,1
EndSplineSet
EndChar

StartChar: one
Encoding: 49 49 22
Width: 244
GlyphClass: 2
Flags: W
LayerCount: 2
Fore
SplineSet
47 -7 m 128,-1,1
 36 -7 36 -7 36 3 c 0,2,3
 36 5 36 5 38 11 c 0,4,5
 100 139 100 139 124.5 192 c 128,-1,6
 149 245 149 245 179 324 c 1,7,-1
 153 305 l 2,8,9
 132 290 132 290 121 280.5 c 128,-1,10
 110 271 110 271 106.5 271 c 128,-1,11
 103 271 103 271 103 276.5 c 128,-1,12
 103 282 103 282 114 291.5 c 128,-1,13
 125 301 125 301 165.5 341.5 c 128,-1,14
 206 382 206 382 237 412 c 1,15,16
 240 413 240 413 247.5 413 c 128,-1,17
 255 413 255 413 263 406 c 128,-1,18
 271 399 271 399 271 391 c 2,19,-1
 271 388 l 1,20,21
 235 341 235 341 170 225 c 1,22,23
 97 90 97 90 61 0 c 0,24,0
 58 -7 58 -7 47 -7 c 128,-1,1
EndSplineSet
EndChar

StartChar: two
Encoding: 50 50 23
Width: 377
GlyphClass: 2
Flags: W
LayerCount: 2
Fore
SplineSet
285 -33 m 0,0,1
 284 -34 284 -34 279.5 -33 c 128,-1,2
 275 -32 275 -32 275 -28 c 128,-1,3
 275 -24 275 -24 282 -20 c 0,4,5
 301 -10 301 -10 301 -1 c 0,6,7
 301 13 301 13 264.5 25 c 128,-1,8
 228 37 228 37 185 36.5 c 128,-1,9
 142 36 142 36 28 -5 c 0,10,11
 14 -11 14 -11 2.5 -11 c 128,-1,12
 -9 -11 -9 -11 -9 1 c 128,-1,13
 -9 13 -9 13 8 29 c 1,14,15
 26 44 26 44 45 44 c 1,16,17
 110 66 110 66 207 130.5 c 128,-1,18
 304 195 304 195 351 254 c 128,-1,19
 398 313 398 313 398 350 c 0,20,21
 398 390 398 390 348.5 390 c 128,-1,22
 299 390 299 390 234.5 346.5 c 128,-1,23
 170 303 170 303 155 253 c 0,24,25
 152 244 152 244 146 244 c 0,26,27
 143 244 143 244 143 249 c 0,28,29
 154 317 154 317 212 362 c 128,-1,30
 270 407 270 407 343 407 c 0,31,32
 379 407 379 407 400 386 c 1,33,34
 420 364 420 364 420 331 c 0,35,36
 420 282 420 282 384 242.5 c 128,-1,37
 348 203 348 203 297 171 c 0,38,39
 282 161 282 161 254 144 c 0,40,41
 151 83 151 83 123 55 c 1,42,43
 309 55 309 55 309 2 c 0,44,45
 309 -25 309 -25 285 -33 c 0,0,1
EndSplineSet
EndChar

StartChar: three
Encoding: 51 51 24
Width: 377
GlyphClass: 2
Flags: W
LayerCount: 2
Fore
SplineSet
72 292 m 0,0,1
 75 354 75 354 142 383.5 c 128,-1,2
 209 413 209 413 258.5 413 c 128,-1,3
 308 413 308 413 346 402 c 0,4,5
 421 381 421 381 436 333 c 0,6,7
 439 323 439 323 439 314 c 0,8,9
 439 280 439 280 408 251.5 c 128,-1,10
 377 223 377 223 343 207.5 c 128,-1,11
 309 192 309 192 283.5 186 c 128,-1,12
 258 180 258 180 214 172 c 1,13,14
 284 169 284 169 315.5 145 c 128,-1,15
 347 121 347 121 347 87 c 128,-1,16
 347 53 347 53 312 24 c 1,17,18
 252 -28 252 -28 128 -38 c 0,19,20
 118 -39 118 -39 94 -39 c 128,-1,21
 70 -39 70 -39 40 -27 c 0,22,23
 -1 -10 -1 -10 -1 23 c 0,24,25
 -1 40 -1 40 12.5 56 c 128,-1,26
 26 72 26 72 53 76 c 1,27,28
 64 76 64 76 64 71.5 c 128,-1,29
 64 67 64 67 52 67 c 1,30,31
 40 69 40 69 29 55.5 c 128,-1,32
 18 42 18 42 18 33.5 c 128,-1,33
 18 25 18 25 19 21 c 0,34,35
 31 -18 31 -18 118 -18 c 0,36,37
 199 -18 199 -18 260 22 c 1,38,39
 302 48 302 48 302 85 c 0,40,41
 302 133 302 133 221 153 c 0,42,43
 182 163 182 163 162 163 c 128,-1,44
 142 163 142 163 130.5 163 c 128,-1,45
 119 163 119 163 119 172 c 0,46,47
 119 184 119 184 142 183 c 0,48,49
 151 183 151 183 181 183 c 128,-1,50
 211 183 211 183 274 198.5 c 128,-1,51
 337 214 337 214 373 248 c 1,52,53
 406 282 406 282 406 309 c 0,54,55
 406 347 406 347 365.5 369.5 c 128,-1,56
 325 392 325 392 268.5 392 c 128,-1,57
 212 392 212 392 150.5 363.5 c 128,-1,58
 89 335 89 335 87 291 c 0,59,60
 87 282 87 282 82.5 278 c 128,-1,61
 78 274 78 274 74.5 278.5 c 128,-1,62
 71 283 71 283 72 292 c 0,0,1
EndSplineSet
EndChar

StartChar: four
Encoding: 52 52 25
Width: 368
GlyphClass: 2
Flags: W
LayerCount: 2
Fore
SplineSet
297 181 m 1,0,1
 321 175 321 175 321 165.5 c 128,-1,2
 321 156 321 156 312 156 c 1,3,-1
 312 158 l 1,4,5
 311 156 311 156 309 156 c 2,6,-1
 287 160 l 2,7,8
 263 164 263 164 258 164 c 128,-1,9
 253 164 253 164 249 163 c 1,10,-1
 237 163 l 1,11,12
 224 137 224 137 177 41 c 1,13,-1
 152 -12 l 2,14,15
 152 -13 152 -13 139 -35 c 1,16,17
 127 -35 127 -35 127 -19 c 128,-1,18
 127 -3 127 -3 166 79.5 c 128,-1,19
 205 162 205 162 205 164 c 1,20,21
 204 165 204 165 196 165 c 0,22,23
 105 165 105 165 24 139 c 1,24,25
 9 139 9 139 9 153 c 0,26,27
 9 161 9 161 35 179 c 1,28,-1
 68 200 l 2,29,30
 85 212 85 212 116 233 c 0,31,32
 181 278 181 278 218 305 c 0,33,34
 300 366 300 366 351 429 c 1,35,36
 371 429 371 429 371 391 c 2,37,-1
 371 376 l 1,38,39
 358 365 358 365 307 282 c 1,40,41
 253 198 253 198 253 189 c 1,42,43
 270 183 270 183 297 181 c 1,0,1
159 195 m 1,44,-1
 194 194 l 1,45,-1
 211 193 l 2,46,47
 216 193 216 193 217 192 c 1,48,49
 231 192 231 192 307 352 c 1,50,51
 249 304 249 304 185 257 c 128,-1,52
 121 210 121 210 103 195 c 1,53,-1
 159 195 l 1,44,-1
EndSplineSet
EndChar

StartChar: five
Encoding: 53 53 26
Width: 367
GlyphClass: 2
Flags: W
LayerCount: 2
Fore
SplineSet
401 361 m 1,0,1
 253 355 253 355 204 335 c 1,2,-1
 199 335 l 1,3,-1
 193 333 l 1,4,5
 187 333 187 333 187 331 c 1,6,7
 169 310 169 310 141 259 c 1,8,9
 192 275 192 275 223 275 c 0,10,11
 324 275 324 275 324 191 c 0,12,13
 324 120 324 120 256 46.5 c 128,-1,14
 188 -27 188 -27 107 -27 c 0,15,16
 66 -27 66 -27 33.5 -1 c 128,-1,17
 1 25 1 25 1 69 c 0,18,19
 1 73 1 73 11 101 c 1,20,21
 22 125 22 125 27 125 c 0,22,23
 36 125 36 125 36 115 c 0,24,25
 36 114 36 114 30.5 99 c 128,-1,26
 25 84 25 84 25 75 c 0,27,28
 25 -3 25 -3 102 -3 c 0,29,30
 142 -3 142 -3 181.5 20 c 128,-1,31
 221 43 221 43 252.5 93 c 128,-1,32
 284 143 284 143 284 181.5 c 128,-1,33
 284 220 284 220 268 234.5 c 128,-1,34
 252 249 252 249 210 249 c 128,-1,35
 168 249 168 249 100 181 c 1,36,37
 95 178 95 178 89 178 c 0,38,39
 71 178 71 178 71 193 c 0,40,41
 71 195 71 195 73 201 c 1,42,43
 76 204 76 204 77 208 c 1,44,-1
 109 253 l 1,45,46
 138 297 138 297 147 324 c 1,47,-1
 137 329 l 2,48,49
 132 332 132 332 132 341 c 1,50,-1
 152 357 l 2,51,52
 167 369 167 369 172 369 c 2,53,-1
 187 369 l 1,54,55
 196 368 196 368 210 368 c 128,-1,56
 224 368 224 368 274.5 374.5 c 128,-1,57
 325 381 325 381 351.5 381 c 128,-1,58
 378 381 378 381 401 376 c 1,59,-1
 401 361 l 1,0,1
EndSplineSet
EndChar

StartChar: six
Encoding: 54 54 27
Width: 328
GlyphClass: 2
Flags: W
LayerCount: 2
Fore
SplineSet
123 188 m 1,0,1
 119 190 119 190 119 196 c 0,2,3
 119 211 119 211 155.5 231.5 c 128,-1,4
 192 252 192 252 209 252 c 0,5,6
 251 252 251 252 277 223 c 128,-1,7
 303 194 303 194 303 153 c 0,8,9
 303 90 303 90 237 28 c 1,10,11
 171 -32 171 -32 107 -32 c 0,12,13
 63 -32 63 -32 40.5 5 c 128,-1,14
 18 42 18 42 18 89 c 0,15,16
 18 177 18 177 112 289.5 c 128,-1,17
 206 402 206 402 291 435 c 0,18,19
 295 437 295 437 300.5 437 c 128,-1,20
 306 437 306 437 306 434.5 c 128,-1,21
 306 432 306 432 305 427.5 c 128,-1,22
 304 423 304 423 291 413 c 1,23,24
 206 356 206 356 137 272.5 c 128,-1,25
 68 189 68 189 53 101 c 0,26,27
 51 85 51 85 51 62.5 c 128,-1,28
 51 40 51 40 66.5 14.5 c 128,-1,29
 82 -11 82 -11 113 -11 c 0,30,31
 159 -11 159 -11 199.5 29 c 128,-1,32
 240 69 240 69 259 123 c 0,33,34
 266 143 266 143 266 167 c 0,35,36
 266 228 266 228 215 228 c 0,37,38
 185 228 185 228 140 195 c 1,39,40
 127 188 127 188 123 188 c 1,0,1
EndSplineSet
EndChar

StartChar: seven
Encoding: 55 55 28
Width: 331
GlyphClass: 2
Flags: W
LayerCount: 2
Fore
SplineSet
272 408 m 0,0,1
 289 408 289 408 310.5 395 c 128,-1,2
 332 382 332 382 332 364 c 128,-1,3
 332 346 332 346 273 284 c 0,4,5
 258 268 258 268 214 224 c 0,6,7
 121 129 121 129 95 91 c 0,8,9
 53 27 53 27 53 -17 c 0,10,11
 53 -20 53 -20 53 -23 c 1,12,13
 51 -27 51 -27 48.5 -27 c 128,-1,14
 46 -27 46 -27 40 -21.5 c 128,-1,15
 34 -16 34 -16 30 -6 c 0,16,17
 23 9 23 9 23 24 c 128,-1,18
 23 39 23 39 29.5 49.5 c 128,-1,19
 36 60 36 60 37.5 63 c 128,-1,20
 39 66 39 66 50 80 c 128,-1,21
 61 94 61 94 67.5 102.5 c 128,-1,22
 74 111 74 111 133 178 c 0,23,24
 289 357 289 357 289 377 c 0,25,26
 289 386 289 386 271 385 c 0,27,28
 200 380 200 380 140 356 c 128,-1,29
 80 332 80 332 60 311 c 0,30,31
 54 304 54 304 49 317 c 0,32,33
 47 322 47 322 47 331.5 c 128,-1,34
 47 341 47 341 52.5 349 c 128,-1,35
 58 357 58 357 62.5 359.5 c 128,-1,36
 67 362 67 362 74.5 364 c 128,-1,37
 82 366 82 366 84 367 c 0,38,39
 196 408 196 408 272 408 c 0,0,1
EndSplineSet
EndChar

StartChar: eight
Encoding: 56 56 29
Width: 344
GlyphClass: 2
Flags: W
LayerCount: 2
Fore
SplineSet
345 367 m 1,0,1
 431 413 431 413 438.5 413 c 128,-1,2
 446 413 446 413 446 407.5 c 128,-1,3
 446 402 446 402 439 397 c 0,4,5
 412 379 412 379 386.5 367 c 128,-1,6
 361 355 361 355 354 351 c 1,7,8
 364 330 364 330 368 310 c 1,9,10
 369 291 369 291 360 291 c 0,11,12
 354 291 354 291 348 296 c 128,-1,13
 342 301 342 301 325 334 c 1,14,15
 312 330 312 330 244.5 278.5 c 128,-1,16
 177 227 177 227 172 219 c 1,17,18
 200 164 200 164 200 133 c 0,19,20
 200 68 200 68 151 19.5 c 128,-1,21
 102 -29 102 -29 43 -29 c 0,22,23
 9 -29 9 -29 -6.5 -10 c 128,-1,24
 -22 9 -22 9 -22 35 c 0,25,26
 -22 82 -22 82 53 152 c 1,27,28
 85 180 85 180 130 216 c 1,29,30
 114 251 114 251 114 284 c 0,31,32
 114 345 114 345 159 375 c 1,33,34
 198 404 198 404 259 404 c 128,-1,35
 320 404 320 404 345 367 c 1,0,1
316 349 m 1,36,37
 299 385 299 385 248 385 c 0,38,39
 213 385 213 385 179.5 362 c 128,-1,40
 146 339 146 339 146 298 c 0,41,42
 146 274 146 274 164 238 c 1,43,44
 305 342 305 342 316 349 c 1,36,37
9 23 m 0,45,46
 9 -11 9 -11 46.5 -11 c 128,-1,47
 84 -11 84 -11 125.5 28.5 c 128,-1,48
 167 68 167 68 167 119 c 0,49,50
 167 125 167 125 155.5 156 c 128,-1,51
 144 187 144 187 139 195 c 1,52,53
 58 141 58 141 29 83 c 0,54,55
 9 43 9 43 9 23 c 0,45,46
EndSplineSet
EndChar

StartChar: nine
Encoding: 57 57 30
Width: 340
GlyphClass: 2
Flags: W
LayerCount: 2
Fore
SplineSet
311 329 m 1,0,1
 321 359 321 359 321 376 c 0,2,3
 321 413 321 413 273 413 c 0,4,5
 213 413 213 413 134 339 c 1,6,7
 56 264 56 264 56 204 c 0,8,9
 56 169 56 169 87 169 c 0,10,11
 110 169 110 169 147.5 187.5 c 128,-1,12
 185 206 185 206 203.5 220 c 128,-1,13
 222 234 222 234 251 266 c 128,-1,14
 280 298 280 298 283 301 c 1,15,16
 284 304 284 304 290.5 304 c 128,-1,17
 297 304 297 304 306 294.5 c 128,-1,18
 315 285 315 285 315 280.5 c 128,-1,19
 315 276 315 276 261 192 c 0,20,21
 167 44 167 44 153 -27 c 0,22,23
 150 -39 150 -39 148 -47 c 128,-1,24
 146 -55 146 -55 137.5 -55 c 128,-1,25
 129 -55 129 -55 129 -43 c 0,26,27
 132 35 132 35 223 212 c 1,28,29
 135 147 135 147 75 147 c 0,30,31
 21 147 21 147 21 212 c 0,32,33
 21 287 21 287 116 362 c 1,34,35
 202 432 202 432 272.5 432 c 128,-1,36
 343 432 343 432 343 377 c 0,37,38
 343 359 343 359 334.5 341 c 128,-1,39
 326 323 326 323 319 320 c 1,40,-1
 315 323 l 1,41,-1
 315 321 l 1,42,-1
 313 324 l 1,43,44
 311 324 311 324 311 329 c 1,0,1
EndSplineSet
EndChar

StartChar: colon
Encoding: 58 58 31
Width: 160
GlyphClass: 2
Flags: W
LayerCount: 2
Fore
SplineSet
192 148 m 128,-1,1
 192 135 192 135 182.5 126 c 128,-1,2
 173 117 173 117 160.5 117 c 128,-1,3
 148 117 148 117 137 126 c 1,4,5
 128 135 128 135 128 148 c 128,-1,6
 128 161 128 161 137 170 c 1,7,8
 148 179 148 179 160.5 179 c 128,-1,9
 173 179 173 179 182.5 170 c 128,-1,0
 192 161 192 161 192 148 c 128,-1,1
76 48 m 128,-1,11
 85 57 85 57 98.5 57 c 128,-1,12
 112 57 112 57 121.5 48 c 128,-1,13
 131 39 131 39 131 26.5 c 128,-1,14
 131 14 131 14 121.5 5 c 128,-1,15
 112 -4 112 -4 98.5 -4 c 128,-1,16
 85 -4 85 -4 76 5 c 128,-1,17
 67 14 67 14 67 26.5 c 128,-1,10
 67 39 67 39 76 48 c 128,-1,11
EndSplineSet
EndChar

StartChar: semicolon
Encoding: 59 59 32
Width: 155
GlyphClass: 2
Flags: W
LayerCount: 2
Fore
SplineSet
216 169 m 128,-1,1
 216 157 216 157 207 148 c 1,2,3
 196 139 196 139 184 139 c 128,-1,4
 172 139 172 139 161 148 c 1,5,6
 152 157 152 157 152 169 c 128,-1,7
 152 181 152 181 161 190 c 1,8,9
 172 199 172 199 184 199 c 128,-1,10
 196 199 196 199 207 190 c 1,11,0
 216 181 216 181 216 169 c 128,-1,1
128 21 m 0,12,13
 128 2 128 2 99.5 -36.5 c 128,-1,14
 71 -75 71 -75 40 -93 c 0,15,16
 24 -103 24 -103 19.5 -103 c 128,-1,17
 15 -103 15 -103 15 -101 c 0,18,19
 15 -95 15 -95 28 -80 c 1,20,21
 47 -61 47 -61 79 -9 c 1,22,23
 61 -6 61 -6 61 19 c 0,24,25
 61 31 61 31 72 41.5 c 128,-1,26
 83 52 83 52 103 52 c 0,27,28
 128 52 128 52 128 21 c 0,12,13
EndSplineSet
EndChar

StartChar: less
Encoding: 60 60 33
Width: 219
GlyphClass: 2
Flags: W
LayerCount: 2
Fore
SplineSet
222 198 m 1,0,1
 214 186 214 186 171 153 c 1,2,3
 133 127 133 127 114 113 c 1,4,-1
 113 23 l 1,5,-1
 110 16 l 1,6,-1
 105 14 l 2,7,8
 104 14 104 14 100 16 c 1,9,10
 95 29 95 29 86 68 c 128,-1,11
 77 107 77 107 75 119 c 1,12,13
 211 205 211 205 217 205 c 1,14,-1
 221 203 l 1,15,-1
 222 198 l 1,0,1
EndSplineSet
EndChar

StartChar: equal
Encoding: 61 61 34
Width: 305
GlyphClass: 2
Flags: W
LayerCount: 2
Fore
SplineSet
273 215 m 0,0,1
 273 207 273 207 261 207 c 0,2,3
 204 207 204 207 177.5 204 c 128,-1,4
 151 201 151 201 142 200 c 128,-1,5
 133 199 133 199 127 198 c 0,6,7
 115 196 115 196 110 196 c 2,8,-1
 109 196 l 2,9,10
 98 196 98 196 98 212 c 128,-1,11
 98 228 98 228 109 228 c 2,12,-1
 207 228 l 2,13,14
 273 228 273 228 273 215 c 0,0,1
273 148 m 0,15,16
 273 141 273 141 261 141 c 0,17,18
 212 141 212 141 181.5 137.5 c 128,-1,19
 151 134 151 134 142 133 c 128,-1,20
 133 132 133 132 127 131 c 0,21,22
 115 129 115 129 110 129 c 2,23,-1
 109 129 l 2,24,25
 98 129 98 129 98 145 c 128,-1,26
 98 161 98 161 109 161 c 2,27,-1
 207 161 l 2,28,29
 273 161 273 161 273 148 c 0,15,16
EndSplineSet
EndChar

StartChar: greater
Encoding: 62 62 35
Width: 219
GlyphClass: 2
Flags: W
LayerCount: 2
Fore
SplineSet
165 100 m 1,0,-1
 29 15 l 1,1,-1
 24 14 l 2,2,3
 21 14 21 14 19 15 c 1,4,-1
 18 18 l 1,5,6
 18 27 18 27 71 66 c 1,7,-1
 126 105 l 1,8,-1
 127 196 l 1,9,-1
 130 202 l 1,10,-1
 135 205 l 1,11,-1
 141 202 l 1,12,13
 148 187 148 187 155 151 c 2,14,-1
 165 100 l 1,0,-1
EndSplineSet
EndChar

StartChar: question
Encoding: 63 63 36
Width: 400
GlyphClass: 2
Flags: W
LayerCount: 2
Fore
SplineSet
136 135 m 1,0,-1
 133 121 l 1,1,2
 132 109 132 109 119.5 109 c 128,-1,3
 107 109 107 109 101.5 120 c 128,-1,4
 96 131 96 131 96 139 c 0,5,6
 96 178 96 178 139 228 c 0,7,8
 163 256 163 256 232 319 c 1,9,10
 277 357 277 357 324 407 c 1,11,12
 364 447 364 447 364 479.5 c 128,-1,13
 364 512 364 512 332 512 c 0,14,15
 255 512 255 512 169 457 c 0,16,17
 104 416 104 416 80 381 c 0,18,19
 75 375 75 375 66.5 375 c 128,-1,20
 58 375 58 375 58 383 c 128,-1,21
 58 391 58 391 65 401 c 0,22,23
 90 438 90 438 161 483 c 1,24,25
 249 541 249 541 325 541 c 0,26,27
 354 541 354 541 379.5 522.5 c 128,-1,28
 405 504 405 504 405 473 c 0,29,30
 405 427 405 427 361 379 c 0,31,32
 331 345 331 345 267 297 c 128,-1,33
 203 249 203 249 171 220 c 1,34,35
 128 183 128 183 128 145 c 2,36,-1
 128 144 l 2,37,38
 128 135 128 135 136 135 c 1,0,-1
112 31 m 128,-1,40
 121 22 121 22 121 9.5 c 128,-1,41
 121 -3 121 -3 112 -11.5 c 128,-1,42
 103 -20 103 -20 89.5 -20 c 128,-1,43
 76 -20 76 -20 67 -11 c 1,44,45
 57 -4 57 -4 57 9 c 128,-1,46
 57 22 57 22 66.5 31 c 128,-1,47
 76 40 76 40 89.5 40 c 128,-1,39
 103 40 103 40 112 31 c 128,-1,40
EndSplineSet
EndChar

StartChar: at
Encoding: 64 64 37
Width: 650
GlyphClass: 2
Flags: W
LayerCount: 2
Fore
SplineSet
192 33 m 0,0,1
 190 33 190 33 188 33 c 0,2,3
 111 33 111 33 62 76.5 c 128,-1,4
 13 120 13 120 13 189 c 0,5,6
 13 214 13 214 19 241 c 0,7,8
 43 335 43 335 118 398 c 0,9,10
 169 440 169 440 252.5 474.5 c 128,-1,11
 336 509 336 509 424 509 c 0,12,13
 584 509 584 509 616 439 c 0,14,15
 622 426 622 426 622 405 c 128,-1,16
 622 384 622 384 602 352 c 1,17,18
 602 347 602 347 602 342 c 0,19,20
 602 305 602 305 578 257 c 1,21,22
 551 209 551 209 511 171 c 1,23,24
 445 111 445 111 360 72 c 1,25,26
 268 33 268 33 192 33 c 0,0,1
439 435 m 1,27,28
 417 435 417 435 417 442.5 c 128,-1,29
 417 450 417 450 474.5 450 c 128,-1,30
 532 450 532 450 563 425.5 c 128,-1,31
 594 401 594 401 600 366 c 1,32,33
 612 387 612 387 612 405 c 0,34,35
 612 445 612 445 553.5 467.5 c 128,-1,36
 495 490 495 490 425 490 c 0,37,38
 349 490 349 490 299 472 c 0,39,40
 216 442 216 442 162 396 c 1,41,42
 107 347 107 347 73.5 283.5 c 128,-1,43
 40 220 40 220 40 165 c 128,-1,44
 40 110 40 110 75 78 c 128,-1,45
 110 46 110 46 184 46 c 128,-1,46
 258 46 258 46 336 84.5 c 128,-1,47
 414 123 414 123 468 172 c 0,48,49
 539 236 539 236 567 308 c 1,50,51
 490 218 490 218 398 172 c 0,52,53
 365 155 365 155 349.5 155 c 128,-1,54
 334 155 334 155 327 157 c 0,55,56
 309 163 309 163 299.5 188.5 c 128,-1,57
 290 214 290 214 289.5 236 c 128,-1,58
 289 258 289 258 290 259 c 1,59,60
 283 249 283 249 274.5 236 c 128,-1,61
 266 223 266 223 259.5 214 c 128,-1,62
 253 205 253 205 246 196 c 128,-1,63
 239 187 239 187 230.5 178.5 c 128,-1,64
 222 170 222 170 214 164 c 0,65,66
 198 151 198 151 183 153 c 0,67,68
 150 158 150 158 150 197.5 c 128,-1,69
 150 237 150 237 175 285 c 128,-1,70
 200 333 200 333 242 372.5 c 128,-1,71
 284 412 284 412 326 412 c 0,72,73
 346 412 346 412 364 402 c 128,-1,74
 382 392 382 392 382 370.5 c 128,-1,75
 382 349 382 349 363 346 c 1,76,77
 370 358 370 358 370 368 c 128,-1,78
 370 378 370 378 360.5 383 c 128,-1,79
 351 388 351 388 343 388 c 0,80,81
 322 388 322 388 292.5 363.5 c 128,-1,82
 263 339 263 339 234 299 c 128,-1,83
 205 259 205 259 193 230 c 128,-1,84
 181 201 181 201 181 187.5 c 128,-1,85
 181 174 181 174 190 174 c 0,86,87
 201 174 201 174 221 192.5 c 128,-1,88
 241 211 241 211 300 294 c 0,89,90
 315 315 315 315 323.5 315 c 128,-1,91
 332 315 332 315 331 292 c 128,-1,92
 330 269 330 269 330 252 c 0,93,94
 330 173 330 173 362 173 c 0,95,96
 374 173 374 173 392 182 c 0,97,98
 506 244 506 244 572 326 c 1,99,100
 576 341 576 341 576 359 c 0,101,102
 576 437 576 437 477 437 c 1,103,-1
 439 435 l 1,27,28
EndSplineSet
EndChar

StartChar: A
Encoding: 65 65 38
Width: 769
GlyphClass: 2
Flags: W
LayerCount: 2
Fore
SplineSet
666 566 m 0,0,1
 703 566 703 566 703 519 c 0,2,3
 703 494 703 494 690.5 384.5 c 128,-1,4
 678 275 678 275 675 212 c 1,5,6
 725 215 725 215 737 223 c 128,-1,7
 749 231 749 231 749.5 225 c 128,-1,8
 750 219 750 219 732.5 208.5 c 128,-1,9
 715 198 715 198 675 192 c 1,10,11
 675 174 675 174 675 130 c 0,12,13
 675 33 675 33 708 1 c 0,14,15
 720 -11 720 -11 728.5 -11 c 128,-1,16
 737 -11 737 -11 748.5 -7.5 c 128,-1,17
 760 -4 760 -4 778 15.5 c 128,-1,18
 796 35 796 35 809 65 c 0,19,20
 813 74 813 74 816.5 72.5 c 128,-1,21
 820 71 820 71 820 68 c 128,-1,22
 820 65 820 65 819 61 c 0,23,24
 806 24 806 24 778 -1 c 0,25,26
 717 -57 717 -57 669 -14 c 0,27,28
 644 8 644 8 637.5 50 c 128,-1,29
 631 92 631 92 631 126.5 c 128,-1,30
 631 161 631 161 632 187 c 1,31,32
 617 186 617 186 507 186 c 1,33,34
 454 128 454 128 393 77 c 1,35,36
 400 76 400 76 408 76 c 0,37,38
 480 76 480 76 536 150 c 0,39,40
 540 155 540 155 542 149 c 1,41,-1
 542 145 l 1,42,43
 482 66 482 66 408 66 c 0,44,45
 395 66 395 66 383 68 c 1,46,47
 227 -57 227 -57 117 -57 c 0,48,49
 58 -57 58 -57 26 -24 c 0,50,51
 6 -2 6 -2 6 30 c 0,52,53
 6 77 6 77 39.5 110 c 128,-1,54
 73 143 73 143 119.5 158.5 c 128,-1,55
 166 174 166 174 241 186 c 1,56,57
 216 243 216 243 216 299 c 0,58,59
 216 451 216 451 302 522 c 0,60,61
 348 559 348 559 396 559 c 0,62,63
 413 559 413 559 431 554 c 0,64,65
 494 538 494 538 514 472 c 0,66,67
 522 447 522 447 522 418 c 0,68,69
 522 322 522 322 442 203 c 1,70,-1
 487 203 l 1,71,72
 507 223 507 223 566 305.5 c 128,-1,73
 625 388 625 388 655 426 c 1,74,75
 665 491 665 491 665 510 c 0,76,77
 665 545 665 545 647 545 c 0,78,79
 626 545 626 545 591 504 c 0,80,81
 572 482 572 482 568 473 c 128,-1,82
 564 464 564 464 558 468 c 1,83,84
 552 476 552 476 576 506 c 0,85,86
 626 566 626 566 666 566 c 0,0,1
470 272 m 0,88,89
 508 350 508 350 508 402 c 128,-1,90
 508 454 508 454 489 488 c 0,91,92
 457 546 457 546 391.5 546 c 128,-1,93
 326 546 326 546 278.5 480 c 128,-1,94
 231 414 231 414 231 299 c 0,95,96
 231 239 231 239 255 188 c 1,97,98
 346 201 346 201 429 202 c 1,99,87
 453 237 453 237 470 272 c 0,88,89
19 42 m 0,100,101
 19 14 19 14 47 -6 c 0,102,103
 82 -32 82 -32 140 -32 c 0,104,105
 245 -32 245 -32 361 73 c 1,106,-1
 338 82 l 1,107,108
 235 -8 235 -8 138 -8 c 0,109,110
 109 -8 109 -8 81 0 c 0,111,112
 76 1 76 1 78 5 c 128,-1,113
 80 9 80 9 83 8 c 0,114,115
 200 -23 200 -23 328 88 c 1,116,117
 282 115 282 115 253 165 c 1,118,119
 157 146 157 146 109 131 c 1,120,121
 19 100 19 100 19 42 c 0,100,101
525 208 m 1,122,123
 539 207 539 207 564.5 207 c 128,-1,124
 590 207 590 207 634 209 c 1,125,126
 637 287 637 287 653 392 c 1,127,128
 628 348 628 348 605.5 317.5 c 128,-1,129
 583 287 583 287 559.5 254.5 c 128,-1,130
 536 222 536 222 525 208 c 1,122,123
418 187 m 1,131,132
 344 180 344 180 266 167 c 1,133,134
 296 118 296 118 337 96 c 1,135,136
 380 135 380 135 418 187 c 1,131,132
455 189 m 128,-1,138
 444 189 444 189 432 188 c 1,139,140
 393 131 393 131 347 90 c 1,141,142
 360 85 360 85 370 82 c 1,143,144
 391 102 391 102 426 138.5 c 128,-1,145
 461 175 461 175 475 188 c 1,146,137
 466 189 466 189 455 189 c 128,-1,138
EndSplineSet
EndChar

StartChar: B
Encoding: 66 66 39
Width: 592
GlyphClass: 2
Flags: W
LayerCount: 2
Fore
SplineSet
169 283 m 1,0,-1
 123 279 l 1,1,2
 53 279 53 279 30 319 c 0,3,4
 21 334 21 334 21 356.5 c 128,-1,5
 21 379 21 379 50 413 c 0,6,7
 115 490 115 490 267 512 c 1,8,9
 302 576 302 576 333 592 c 0,10,11
 334 593 334 593 335.5 593 c 128,-1,12
 337 593 337 593 338 590 c 128,-1,13
 339 587 339 587 336 585 c 0,14,15
 311 571 311 571 277 513 c 1,16,17
 305 517 305 517 326 518 c 1,18,19
 357 564 357 564 382 575 c 0,20,21
 396 582 396 582 415.5 582 c 128,-1,22
 435 582 435 582 459 564.5 c 128,-1,23
 483 547 483 547 483 539 c 0,24,25
 483 534 483 534 479 534 c 128,-1,26
 475 534 475 534 473.5 536 c 128,-1,27
 472 538 472 538 469 542.5 c 128,-1,28
 466 547 466 547 461 551 c 0,29,30
 440 564 440 564 428.5 564 c 128,-1,31
 417 564 417 564 412 563 c 0,32,33
 396 559 396 559 368 519 c 1,34,-1
 375 519 l 1,35,36
 477 518 477 518 546.5 486.5 c 128,-1,37
 616 455 616 455 616 402 c 0,38,39
 616 336 616 336 532.5 287.5 c 128,-1,40
 449 239 449 239 383 232 c 1,41,42
 445 232 445 232 491 216 c 0,43,44
 579 185 579 185 579 121 c 0,45,46
 579 85 579 85 544 45.5 c 128,-1,47
 509 6 509 6 442.5 -23.5 c 128,-1,48
 376 -53 376 -53 321 -53 c 0,49,50
 299 -53 299 -53 272 -48 c 128,-1,51
 245 -43 245 -43 226 -11 c 0,52,53
 215 8 215 8 215 24 c 128,-1,54
 215 40 215 40 220 53 c 0,55,56
 221 56 221 56 202.5 32 c 128,-1,57
 184 8 184 8 165 -29 c 1,58,59
 162 -32 162 -32 154 -29.5 c 128,-1,60
 146 -27 146 -27 138.5 -17.5 c 128,-1,61
 131 -8 131 -8 132 0 c 0,62,63
 139 54 139 54 162 132 c 1,64,65
 149 131 149 131 123 127 c 1,66,67
 94 47 94 47 70 8 c 0,68,69
 10 -91 10 -91 -66 -91 c 0,70,71
 -108 -91 -108 -91 -128 -57 c 0,72,73
 -138 -40 -138 -40 -138 -17.5 c 128,-1,74
 -138 5 -138 5 -112 36 c 128,-1,75
 -86 67 -86 67 -26.5 93 c 128,-1,76
 33 119 33 119 115 134 c 1,77,78
 136 188 136 188 169 283 c 1,0,-1
220 144 m 0,79,80
 363 144 363 144 375 50 c 0,81,82
 376 45 376 45 372.5 45 c 128,-1,83
 369 45 369 45 368 48 c 0,84,85
 354 135 354 135 218 135 c 0,86,87
 212 135 212 135 206 135 c 1,88,89
 180 46 180 46 171 1 c 1,90,91
 178 8 178 8 194 34 c 0,92,93
 228 91 228 91 248 105.5 c 128,-1,94
 268 120 268 120 274 114 c 0,95,96
 277 112 277 112 273 109 c 0,97,98
 230 72 230 72 230 25 c 0,99,100
 230 -7 230 -7 258 -22 c 0,101,102
 271 -30 271 -30 297.5 -30 c 128,-1,103
 324 -30 324 -30 370 -16 c 1,104,105
 438 8 438 8 487.5 49.5 c 128,-1,106
 537 91 537 91 537 127 c 0,107,108
 537 147 537 147 523 165 c 0,109,110
 480 219 480 219 349 219 c 0,111,112
 290 219 290 219 227 205 c 1,113,114
 219 179 219 179 208 144 c 1,115,116
 214 144 214 144 220 144 c 0,79,80
520 477 m 128,-1,118
 461 508 461 508 373 509 c 1,119,-1
 362 509 l 1,120,121
 319 441 319 441 274 330 c 1,122,123
 362 358 362 358 431 408 c 0,124,125
 443 417 443 417 443.5 409 c 128,-1,126
 444 401 444 401 434 395 c 0,127,128
 337 330 337 330 264 306 c 1,129,130
 243 255 243 255 233 222 c 1,131,132
 301 222 301 222 341 232 c 1,133,134
 455 256 455 256 515 302 c 0,135,136
 579 351 579 351 579 398.5 c 128,-1,117
 579 446 579 446 520 477 c 128,-1,118
-123 -28 m 0,137,138
 -123 -58 -123 -58 -97 -73 c 0,139,140
 -82 -82 -82 -82 -59 -82 c 128,-1,141
 -36 -82 -36 -82 -2.5 -56.5 c 128,-1,142
 31 -31 31 -31 56 9.5 c 128,-1,143
 81 50 81 50 111 125 c 1,144,145
 -102 84 -102 84 -121 -12 c 0,146,147
 -123 -21 -123 -21 -123 -28 c 0,137,138
39 342 m 0,148,149
 39 331 39 331 46 322 c 0,150,151
 61 301 61 301 110 301 c 0,152,153
 149 301 149 301 177 307 c 1,154,155
 219 422 219 422 258 495 c 1,156,157
 139 468 139 468 73 401 c 0,158,159
 39 367 39 367 39 342 c 0,148,149
268 498 m 1,160,161
 228 424 228 424 187 309 c 1,162,163
 213 313 213 313 226 317 c 1,164,165
 272 433 272 433 318 506 c 1,166,167
 298 504 298 504 268 498 c 1,160,161
179 285 m 1,168,169
 134 154 134 154 127 136 c 1,170,171
 150 140 150 140 165 141 c 1,172,173
 191 228 191 228 216 292 c 1,174,175
 202 289 202 289 179 285 c 1,168,169
EndSplineSet
EndChar

StartChar: C
Encoding: 67 67 40
Width: 553
GlyphClass: 2
Flags: W
LayerCount: 2
Fore
SplineSet
569 396 m 1,0,1
 590 391 590 391 590 380 c 0,2,3
 590 373 590 373 579 379 c 2,4,-1
 568 384 l 1,5,6
 561 325 561 325 507 266 c 0,7,8
 415 167 415 167 305 167 c 0,9,10
 242 167 242 167 211 202 c 0,11,12
 192 223 192 223 192 246 c 0,13,14
 192 299 192 299 253 349 c 0,15,16
 292 382 292 382 352 398.5 c 128,-1,17
 412 415 412 415 465 415 c 0,18,19
 476 415 476 415 488 414 c 1,20,21
 488 464 488 464 434 480 c 0,22,23
 415 485 415 485 394 485 c 0,24,25
 341 485 341 485 279 450 c 0,26,27
 192 401 192 401 137 301 c 0,28,29
 94 221 94 221 85 130 c 1,30,31
 110 63 110 63 166 27 c 128,-1,32
 222 -9 222 -9 291 -9 c 0,33,34
 318 -9 318 -9 361 -1 c 1,35,36
 379 32 379 32 379 66 c 0,37,38
 379 119 379 119 346 137 c 0,39,40
 344 138 344 138 344 140 c 0,41,42
 346 146 346 146 350 144 c 0,43,44
 391 122 391 122 391 65 c 0,45,46
 391 34 391 34 375 3 c 1,47,48
 477 34 477 34 527 114 c 0,49,50
 550 152 550 152 557 152 c 0,51,52
 561 152 561 152 561 146 c 0,53,54
 561 135 561 135 538.5 102 c 128,-1,55
 516 69 516 69 467.5 32 c 128,-1,56
 419 -5 419 -5 359 -24 c 1,57,58
 309 -94 309 -94 227 -94 c 0,59,60
 166 -94 166 -94 120 -44 c 0,61,62
 86 -8 86 -8 76 47 c 1,63,64
 23 112 23 112 23 203.5 c 128,-1,65
 23 295 23 295 82 381.5 c 128,-1,66
 141 468 141 468 250 509 c 0,67,68
 314 533 314 533 365 533 c 128,-1,69
 416 533 416 533 459.5 521 c 128,-1,70
 503 509 503 509 536.5 476 c 128,-1,71
 570 443 570 443 569 396 c 1,0,1
295 255 m 0,72,73
 272 255 272 255 271.5 260 c 128,-1,74
 271 265 271 265 280.5 264.5 c 128,-1,75
 290 264 290 264 293 264 c 0,76,77
 345 264 345 264 393 286.5 c 128,-1,78
 441 309 441 309 461 342 c 128,-1,79
 481 375 481 375 486 398 c 1,80,81
 426 398 426 398 363.5 378.5 c 128,-1,82
 301 359 301 359 270 332 c 0,83,84
 222 290 222 290 222 249 c 0,85,86
 222 220 222 220 254 196 c 1,87,88
 275 182 275 182 308 182 c 128,-1,89
 341 182 341 182 381 194 c 1,90,91
 447 217 447 217 499.5 275 c 128,-1,92
 552 333 552 333 551 390 c 1,93,94
 523 397 523 397 496 398 c 1,95,96
 491 371 491 371 473 346 c 0,97,98
 442 300 442 300 394 277.5 c 128,-1,99
 346 255 346 255 295 255 c 0,72,73
314 480 m 0,100,101
 357 495 357 495 393 495 c 128,-1,102
 429 495 429 495 458 480 c 0,103,104
 500 457 500 457 498 413 c 1,105,106
 525 412 525 412 549 404 c 1,107,108
 539 469 539 469 455 500 c 1,109,110
 423 513 423 513 379.5 513 c 128,-1,111
 336 513 336 513 286.5 499.5 c 128,-1,112
 237 486 237 486 187.5 445 c 128,-1,113
 138 404 138 404 105 339.5 c 128,-1,114
 72 275 72 275 72 211 c 0,115,116
 72 186 72 186 77 160 c 1,117,118
 88 240 88 240 128 312 c 0,119,120
 198 439 198 439 314 480 c 0,100,101
341 -29 m 1,121,122
 301 -38 301 -38 261 -38 c 0,123,124
 159 -38 159 -38 91 30 c 1,125,126
 107 -32 107 -32 152 -62 c 0,127,128
 187 -85 187 -85 226 -85 c 0,129,130
 293 -85 293 -85 341 -29 c 1,121,122
EndSplineSet
EndChar

StartChar: D
Encoding: 68 68 41
Width: 724
GlyphClass: 2
Flags: W
LayerCount: 2
Fore
SplineSet
455 568 m 0,0,1
 481 568 481 568 505 550.5 c 128,-1,2
 529 533 529 533 529 526.5 c 128,-1,3
 529 520 529 520 524.5 520 c 128,-1,4
 520 520 520 520 518.5 522 c 128,-1,5
 517 524 517 524 514 528.5 c 128,-1,6
 511 533 511 533 506 536 c 0,7,8
 488 550 488 550 475.5 550 c 128,-1,9
 463 550 463 550 457 548 c 0,10,11
 440 545 440 545 420 517 c 1,12,13
 516 509 516 509 589 477 c 0,14,15
 727 417 727 417 746 290 c 0,16,17
 747 277 747 277 747 264 c 0,18,19
 747 218 747 218 720 161.5 c 128,-1,20
 693 105 693 105 627 48 c 128,-1,21
 561 -9 561 -9 458 -28 c 1,22,23
 431 -81 431 -81 392 -116.5 c 128,-1,24
 353 -152 353 -152 323.5 -160.5 c 128,-1,25
 294 -169 294 -169 275 -169 c 0,26,27
 213 -169 213 -169 182 -124 c 1,28,29
 148 -72 148 -72 148 6 c 0,30,31
 148 108 148 108 212 272 c 1,32,33
 167 261 167 261 129 261 c 128,-1,34
 91 261 91 261 58 280 c 0,35,36
 19 302 19 302 19 345 c 0,37,38
 19 375 19 375 42 411.5 c 128,-1,39
 65 448 65 448 118 474 c 0,40,41
 192 511 192 511 319 519 c 1,42,43
 336 556 336 556 338.5 573.5 c 128,-1,44
 341 591 341 591 342.5 591 c 128,-1,45
 344 591 344 591 346 588 c 128,-1,46
 348 585 348 585 348 574 c 128,-1,47
 348 563 348 563 331 519 c 1,48,49
 344 520 344 520 357 520 c 128,-1,50
 370 520 370 520 383 519 c 1,51,52
 417 568 417 568 455 568 c 0,0,1
440 377 m 1,53,54
 506 296 506 296 506 163 c 0,55,56
 506 99 506 99 486 40 c 2,57,-1
 475 9 l 1,58,59
 552 33 552 33 608 84 c 128,-1,60
 664 135 664 135 684.5 184.5 c 128,-1,61
 705 234 705 234 705 261 c 0,62,63
 705 338 705 338 656 400 c 1,64,65
 620 443 620 443 556.5 471.5 c 128,-1,66
 493 500 493 500 413 506 c 1,67,68
 392 475 392 475 373 433 c 1,69,70
 404 417 404 417 432 387 c 1,71,72
 476 414 476 414 495.5 434.5 c 128,-1,73
 515 455 515 455 515 448.5 c 128,-1,74
 515 442 515 442 511 438 c 0,75,76
 482 408 482 408 440 377 c 1,53,54
457 4 m 1,77,78
 489 74 489 74 489 146 c 0,79,80
 489 289 489 289 428 369 c 1,81,82
 377 335 377 335 323 311 c 1,83,84
 291 221 291 221 266 130.5 c 128,-1,85
 241 40 241 40 237 1 c 1,86,87
 242 6 242 6 257 32 c 128,-1,88
 272 58 272 58 276 64.5 c 128,-1,89
 280 71 280 71 292 85.5 c 128,-1,90
 304 100 304 100 311 105 c 0,91,92
 330 120 330 120 337 114 c 0,93,94
 340 112 340 112 336 109 c 0,95,96
 290 69 290 69 290 41 c 0,97,98
 290 26 290 26 304 14 c 0,99,100
 328 -7 328 -7 376 -7 c 0,101,102
 415 -7 415 -7 457 4 c 1,77,78
226 275 m 1,103,104
 188 171 188 171 176.5 109 c 128,-1,105
 165 47 165 47 165 11 c 0,106,107
 165 -97 165 -97 212 -132 c 0,108,109
 243 -154 243 -154 279 -154 c 0,110,111
 322 -154 322 -154 366.5 -120 c 128,-1,112
 411 -86 411 -86 441 -31 c 1,113,114
 416 -34 416 -34 382 -34 c 128,-1,115
 348 -34 348 -34 314 -19 c 128,-1,116
 280 -4 280 -4 280 28 c 0,117,118
 280 40 280 40 284 53 c 1,119,120
 263 33 263 33 231 -29 c 1,121,122
 228 -32 228 -32 220 -29.5 c 128,-1,123
 212 -27 212 -27 204.5 -17.5 c 128,-1,124
 197 -8 197 -8 198 0 c 0,125,126
 207 105 207 105 273 291 c 1,127,128
 241 279 241 279 226 275 c 1,103,104
264 449 m 0,129,130
 210 449 210 449 176 413.5 c 128,-1,131
 142 378 142 378 142 351 c 0,132,133
 142 344 142 344 143.5 338.5 c 128,-1,134
 145 333 145 333 141 332 c 0,135,136
 134 330 134 330 134 356 c 128,-1,137
 134 382 134 382 168.5 419.5 c 128,-1,138
 203 457 203 457 269 457 c 0,139,140
 286 457 286 457 291 456 c 1,141,-1
 314 506 l 1,142,143
 201 495 201 495 138 458 c 128,-1,144
 75 421 75 421 50 377 c 0,145,146
 37 355 37 355 37 336.5 c 128,-1,147
 37 318 37 318 49 304 c 0,148,149
 68 281 68 281 117 281 c 0,150,151
 165 281 165 281 222 298 c 1,152,153
 250 369 250 369 287 448 c 1,154,155
 282 449 282 449 264 449 c 0,129,130
297 447 m 1,156,157
 263 378 263 378 235 302 c 1,158,159
 259 308 259 308 283 317 c 1,160,161
 306 380 306 380 335 437 c 1,162,163
 319 444 319 444 297 447 c 1,156,157
420 379 m 1,164,165
 395 407 395 407 368 422 c 1,166,167
 351 385 351 385 333 336 c 1,168,169
 382 357 382 357 420 379 c 1,164,165
325 507 m 1,170,171
 323 501 323 501 301 455 c 1,172,173
 319 454 319 454 339 447 c 1,174,175
 359 485 359 485 375 508 c 1,176,177
 342 508 342 508 325 507 c 1,170,171
EndSplineSet
EndChar

StartChar: E
Encoding: 69 69 42
Width: 522
GlyphClass: 2
Flags: W
LayerCount: 2
Fore
SplineSet
422 12 m 1,0,-1
 423 -6 l 1,1,2
 423 -55 423 -55 405 -92 c 0,3,4
 368 -170 368 -170 288 -170 c 0,5,6
 218 -170 218 -170 168 -106 c 0,7,8
 140 -70 140 -70 126 -18 c 1,9,10
 35 29 35 29 35 141 c 0,11,12
 35 195 35 195 60 258 c 1,13,14
 54 257 54 257 44.5 254.5 c 128,-1,15
 35 252 35 252 35 259 c 0,16,17
 35 274 35 274 50 284 c 0,18,19
 53 285 53 285 55 286 c 2,20,-1
 75 290 l 1,21,-1
 81 302 l 1,22,23
 139 412 139 412 254 481 c 0,24,25
 343 534 343 534 425 534 c 128,-1,26
 507 534 507 534 538 504 c 1,27,28
 578 553 578 553 589 553 c 0,29,30
 594 553 594 553 594 549 c 128,-1,31
 594 545 594 545 591 542 c 0,32,33
 568 524 568 524 546 496 c 1,34,35
 562 475 562 475 562 457 c 0,36,37
 562 404 562 404 519 392 c 0,38,39
 512 390 512 390 507 390 c 0,40,41
 490 390 490 390 487 408 c 0,42,43
 483 429 483 429 499.5 453.5 c 128,-1,44
 516 478 516 478 526 488 c 1,45,46
 505 512 505 512 428 512 c 128,-1,47
 351 512 351 512 277 464 c 0,48,49
 185 404 185 404 125 299 c 1,50,51
 141 301 141 301 169 303 c 1,52,53
 248 442 248 442 403 487 c 0,54,55
 407 488 407 488 408.5 484 c 128,-1,56
 410 480 410 480 406 479 c 0,57,58
 272 443 272 443 190 304 c 1,59,60
 225 306 225 306 444 306 c 0,61,62
 455 306 455 306 455.5 299.5 c 128,-1,63
 456 293 456 293 438 293 c 0,64,65
 299 293 299 293 176 278 c 1,66,67
 128 182 128 182 128 84 c 0,68,69
 128 47 128 47 132 22 c 1,70,71
 144 10 144 10 175 -5.5 c 128,-1,72
 206 -21 206 -21 255 -21 c 0,73,74
 332 -21 332 -21 405 24 c 1,75,76
 393 75 393 75 353 122 c 1,77,78
 292 86 292 86 248 33 c 0,79,80
 241 25 241 25 241 30 c 0,81,82
 241 38 241 38 245 42 c 0,83,84
 281 82 281 82 320 115 c 1,85,86
 341 131 341 131 343 132 c 1,87,88
 285 190 285 190 220 191 c 0,89,90
 217 191 217 191 216 193 c 128,-1,91
 215 195 215 195 216.5 197 c 128,-1,92
 218 199 218 199 220 199 c 0,93,94
 289 197 289 197 352 138 c 1,95,96
 418 179 418 179 470.5 179 c 128,-1,97
 523 179 523 179 523 132 c 0,98,99
 523 75 523 75 422 12 c 1,0,-1
407 4 m 1,100,101
 323 -42 323 -42 234 -42 c 0,102,103
 175 -42 175 -42 142 -25 c 1,104,105
 162 -96 162 -96 205 -129 c 128,-1,106
 248 -162 248 -162 287 -162 c 0,107,108
 337 -162 337 -162 372.5 -118 c 128,-1,109
 408 -74 408 -74 408 -6 c 0,110,111
 408 1 408 1 407 4 c 1,100,101
418 32 m 1,112,113
 463 64 463 64 483.5 95 c 128,-1,114
 504 126 504 126 504 140 c 0,115,116
 504 168 504 168 473 168 c 0,117,118
 435 168 435 168 363 127 c 1,119,120
 405 82 405 82 418 32 c 1,112,113
113 88 m 0,121,122
 113 184 113 184 155 275 c 1,123,-1
 109 268 l 1,124,-1
 106 261 l 1,125,126
 79 206 79 206 79 151 c 0,127,128
 79 85 79 85 115 40 c 1,129,130
 113 70 113 70 113 88 c 0,121,122
535 417 m 1,131,132
 541 431 541 431 541 446 c 128,-1,133
 541 461 541 461 533 478 c 1,134,135
 506 438 506 438 506 410 c 0,136,137
 506 401 506 401 516 401 c 128,-1,138
 526 401 526 401 535 417 c 1,131,132
EndSplineSet
EndChar

StartChar: F
Encoding: 70 70 43
Width: 534
GlyphClass: 2
Flags: W
LayerCount: 2
Fore
SplineSet
280 336 m 1,0,1
 169 347 169 347 98 396 c 1,2,3
 57 338 57 338 57 294 c 0,4,5
 57 274 57 274 65 257 c 0,6,7
 82 220 82 220 125 220 c 0,8,9
 195 220 195 220 258 303 c 0,10,11
 268 316 268 316 280 336 c 1,0,1
310 562 m 1,12,13
 274 573 274 573 231.5 573 c 128,-1,14
 189 573 189 573 140 554 c 0,15,16
 61 524 61 524 61 474 c 0,17,18
 61 451 61 451 81 429 c 1,19,20
 164 529 164 529 310 562 c 1,12,13
454 229 m 1,22,23
 520 365 520 365 520 444 c 0,24,25
 520 497 520 497 487 527 c 128,-1,26
 454 557 454 557 395 557 c 0,27,28
 377 557 377 557 357 554 c 1,29,30
 449 504 449 504 449 384 c 0,31,32
 449 302 449 302 420 228 c 1,33,21
 431 229 431 229 454 229 c 1,22,23
493 228 m 1,34,35
 559 223 559 223 559 214 c 0,36,37
 559 212 559 212 554.5 207.5 c 128,-1,38
 550 203 550 203 534.5 207.5 c 128,-1,39
 519 212 519 212 484 212 c 1,40,41
 416 87 416 87 319 -17 c 128,-1,42
 222 -121 222 -121 142 -146 c 0,43,44
 140 -147 140 -147 138 -147 c 128,-1,45
 136 -147 136 -147 133.5 -144 c 128,-1,46
 131 -141 131 -141 131.5 -136.5 c 128,-1,47
 132 -132 132 -132 137 -130 c 0,48,49
 211 -106 211 -106 297 -8.5 c 128,-1,50
 383 89 383 89 445 211 c 1,51,52
 423 209 423 209 411 207 c 1,53,54
 388 154 388 154 360.5 119.5 c 128,-1,55
 333 85 333 85 319 68 c 128,-1,56
 305 51 305 51 280.5 27 c 128,-1,57
 256 3 256 3 244 -8 c 0,58,59
 182 -65 182 -65 174.5 -71.5 c 128,-1,60
 167 -78 167 -78 167 -71 c 0,61,62
 167 -68 167 -68 170 -65 c 128,-1,63
 173 -62 173 -62 195.5 -41.5 c 128,-1,64
 218 -21 218 -21 228.5 -10.5 c 128,-1,65
 239 0 239 0 261 22.5 c 128,-1,66
 283 45 283 45 297.5 62.5 c 128,-1,67
 312 80 312 80 330 104 c 0,68,69
 366 152 366 152 390 204 c 1,70,71
 297 186 297 186 212.5 145.5 c 128,-1,72
 128 105 128 105 94 55 c 0,73,74
 91 50 91 50 88 61.5 c 128,-1,75
 85 73 85 73 85 81.5 c 128,-1,76
 85 90 85 90 88 95 c 0,77,78
 123 148 123 148 211.5 182.5 c 128,-1,79
 300 217 300 217 400 226 c 1,80,81
 432 304 432 304 432 386 c 0,82,83
 432 506 432 506 338 551 c 1,84,85
 273 537 273 537 209.5 498.5 c 128,-1,86
 146 460 146 460 106 407 c 1,87,88
 180 357 180 357 285 344 c 1,89,90
 316 397 316 397 338 468 c 0,91,92
 340 476 340 476 345.5 471.5 c 128,-1,93
 351 467 351 467 348 459 c 0,94,95
 328 392 328 392 303 342 c 1,96,97
 339 340 339 340 349 340 c 128,-1,98
 359 340 359 340 360 338 c 0,99,100
 363 332 363 332 356 332 c 0,101,102
 319 332 319 332 299 334 c 1,103,104
 287 311 287 311 270 289 c 0,105,106
 204 198 204 198 122 198 c 0,107,108
 66 198 66 198 39 244 c 0,109,110
 24 269 24 269 24 305 c 0,111,112
 24 357 24 357 72 417 c 1,113,114
 42 445 42 445 42 471.5 c 128,-1,115
 42 498 42 498 66 523 c 0,116,117
 113 570 113 570 206 580 c 0,118,119
 224 582 224 582 256.5 582 c 128,-1,120
 289 582 289 582 332 566 c 1,121,122
 361 571 361 571 394 571 c 0,123,124
 499 571 499 571 541 497 c 0,125,126
 557 468 557 468 557 430 c 0,127,128
 557 355 557 355 493 228 c 1,34,35
EndSplineSet
EndChar

StartChar: G
Encoding: 71 71 44
Width: 572
GlyphClass: 2
Flags: W
LayerCount: 2
Fore
SplineSet
102 86 m 1,0,1
 127 13 127 13 203.5 13 c 128,-1,2
 280 13 280 13 363 76 c 1,3,4
 336 136 336 136 279 136 c 0,5,6
 265 136 265 136 252.5 133.5 c 128,-1,7
 240 131 240 131 226 116.5 c 128,-1,8
 212 102 212 102 212 93 c 128,-1,9
 212 84 212 84 210 82 c 0,10,11
 204 78 204 78 204 87 c 0,12,13
 204 105 204 105 220.5 122 c 128,-1,14
 237 139 237 139 251.5 142 c 128,-1,15
 266 145 266 145 282 145 c 0,16,17
 343 145 343 145 374 84 c 1,18,19
 480 169 480 169 551 306 c 1,20,21
 561 321 561 321 567 316 c 1,22,23
 576 317 576 317 583.5 313.5 c 128,-1,24
 591 310 591 310 590 304 c 0,25,26
 574 175 574 175 525 34 c 1,27,28
 547 36 547 36 559.5 36 c 128,-1,29
 572 36 572 36 573 31 c 128,-1,30
 574 26 574 26 568 24 c 1,31,-1
 561 23 l 1,32,33
 541 23 541 23 520 20 c 1,34,35
 492 -60 492 -60 457 -128 c 0,36,37
 398 -240 398 -240 301 -296 c 0,38,39
 251 -325 251 -325 217 -325 c 0,40,41
 202 -325 202 -325 190 -319 c 0,42,43
 169 -309 169 -309 169 -281.5 c 128,-1,44
 169 -254 169 -254 199 -204 c 1,45,46
 140 -197 140 -197 106.5 -148.5 c 128,-1,47
 73 -100 73 -100 73 -30 c 0,48,49
 73 -15 73 -15 74 1 c 1,50,-1
 78 32 l 1,51,52
 47 71 47 71 47 141 c 128,-1,53
 47 211 47 211 87 280 c 1,54,55
 26 320 26 320 26 394 c 0,56,57
 26 424 26 424 41.5 460 c 128,-1,58
 57 496 57 496 100 528.5 c 128,-1,59
 143 561 143 561 195 562 c 0,60,61
 207 562 207 562 208 556 c 0,62,63
 210 550 210 550 201 549 c 1,64,65
 156 549 156 549 117 520 c 0,66,67
 46 467 46 467 46 398 c 0,68,69
 46 334 46 334 100 301 c 1,70,71
 148 374 148 374 225.5 435 c 128,-1,72
 303 496 303 496 389 528 c 0,73,74
 444 549 444 549 492 549 c 0,75,76
 584 549 584 549 612 496 c 0,77,78
 618 485 618 485 618 469 c 128,-1,79
 618 453 618 453 608 430 c 0,80,81
 590 391 590 391 538.5 346.5 c 128,-1,82
 487 302 487 302 406.5 271 c 128,-1,83
 326 240 326 240 253 240 c 0,84,85
 213 240 213 240 173 247 c 1,86,87
 126 169 126 169 102 86 c 1,0,1
521 497 m 0,88,89
 425 497 425 497 339 434.5 c 128,-1,90
 253 372 253 372 188 272 c 1,91,92
 213 268 213 268 249 268 c 0,93,94
 387 268 387 268 509 354 c 0,95,96
 560 390 560 390 577.5 419.5 c 128,-1,97
 595 449 595 449 595 462 c 0,98,99
 595 500 595 500 556 522 c 1,100,101
 532 534 532 534 495 534 c 0,102,103
 446 534 446 534 379.5 508 c 128,-1,104
 313 482 313 482 241.5 420 c 128,-1,105
 170 358 170 358 130 286 c 1,106,107
 151 278 151 278 176 274 c 1,108,109
 242 377 242 377 331 441 c 128,-1,110
 420 505 420 505 521 505 c 0,111,112
 525 505 525 505 525 501 c 128,-1,113
 525 497 525 497 521 497 c 0,88,89
367 65 m 1,114,115
 266 -13 266 -13 183 -13 c 0,116,117
 122 -13 122 -13 87 22 c 1,118,119
 83 -9 83 -9 83 -35 c 0,120,121
 83 -100 83 -100 112 -141 c 0,122,123
 147 -192 147 -192 204 -196 c 1,124,125
 221 -169 221 -169 250 -134 c 0,126,127
 309 -63 309 -63 376 -20 c 1,128,129
 377 -8 377 -8 377 14.5 c 128,-1,130
 377 37 377 37 367 65 c 1,114,115
227 -204 m 1,131,132
 197 -258 197 -258 197 -286 c 128,-1,133
 197 -314 197 -314 226.5 -314 c 128,-1,134
 256 -314 256 -314 304 -278 c 0,135,136
 376 -223 376 -223 414 -146 c 128,-1,137
 452 -69 452 -69 477 10 c 1,138,139
 432 -4 432 -4 389 -31 c 1,140,-1
 388 -36 l 1,141,142
 375 -111 375 -111 329 -155 c 128,-1,143
 283 -199 283 -199 227 -204 c 1,131,132
379 74 m 1,145,146
 392 42 392 42 392 20 c 128,-1,147
 392 -2 392 -2 391 -10 c 1,148,149
 436 16 436 16 483 27 c 1,150,151
 520 147 520 147 545 267 c 1,152,144
 475 152 475 152 379 74 c 1,145,146
372 -42 m 1,153,154
 299 -93 299 -93 248 -169 c 1,155,-1
 232 -195 l 1,156,157
 280 -187 280 -187 319 -148 c 128,-1,158
 358 -109 358 -109 372 -46 c 1,159,-1
 372 -42 l 1,153,154
118 263 m 1,160,161
 92 208 92 208 92 166.5 c 128,-1,162
 92 125 92 125 96 105 c 1,163,164
 120 180 120 180 161 250 c 1,165,166
 143 253 143 253 118 263 c 1,160,161
EndSplineSet
EndChar

StartChar: H
Encoding: 72 72 45
Width: 833
GlyphClass: 2
Flags: W
LayerCount: 2
Fore
SplineSet
660 32 m 0,0,1
 650 54 650 54 650 95.5 c 128,-1,2
 650 137 650 137 656 191 c 1,3,4
 586 186 586 186 495 186 c 1,5,6
 448 114 448 114 368.5 54.5 c 128,-1,7
 289 -5 289 -5 209 -31 c 0,8,9
 167 -45 167 -45 143 -45 c 128,-1,10
 119 -45 119 -45 108 -44 c 0,11,12
 65 -39 65 -39 38.5 -13 c 128,-1,13
 12 13 12 13 12 51 c 0,14,15
 12 94 12 94 40.5 124.5 c 128,-1,16
 69 155 69 155 112 170 c 0,17,18
 194 197 194 197 417 205 c 1,19,-1
 438 247 l 1,20,21
 414 244 414 244 390 244 c 1,22,23
 319 247 319 247 268 290 c 0,24,25
 191 356 191 356 191 452 c 0,26,27
 191 545 191 545 253 586 c 0,28,29
 289 610 289 610 317.5 610 c 128,-1,30
 346 610 346 610 377 599 c 128,-1,31
 408 588 408 588 436 550 c 1,32,-1
 442 541 l 1,33,34
 457 549 457 549 474.5 549 c 128,-1,35
 492 549 492 549 511 535 c 0,36,37
 545 510 545 510 553 450 c 0,38,39
 556 429 556 429 556 392 c 128,-1,40
 556 355 556 355 539 296 c 1,41,42
 594 335 594 335 620 391 c 0,43,44
 622 396 622 396 625.5 393 c 128,-1,45
 629 390 629 390 627 387 c 0,46,47
 597 323 597 323 536 284 c 1,48,49
 525 250 525 250 505 207 c 1,50,51
 614 209 614 209 659 211 c 1,52,53
 676 305 676 305 732 424 c 0,54,55
 759 483 759 483 794 520.5 c 128,-1,56
 829 558 829 558 855.5 558 c 128,-1,57
 882 558 882 558 882 550 c 0,58,59
 882 546 882 546 873.5 547 c 128,-1,60
 865 548 865 548 863 548 c 0,61,62
 828 548 828 548 789.5 482.5 c 128,-1,63
 751 417 751 417 727 340.5 c 128,-1,64
 703 264 703 264 695 213 c 1,65,66
 741 218 741 218 753.5 226 c 128,-1,67
 766 234 766 234 765 227 c 0,68,69
 764 207 764 207 692 195 c 1,70,71
 686 151 686 151 686 118 c 0,72,73
 686 39 686 39 718 19 c 0,74,75
 726 13 726 13 740 13 c 128,-1,76
 754 13 754 13 784.5 29.5 c 128,-1,77
 815 46 815 46 834 78 c 0,78,79
 847 98 847 98 847 86 c 0,80,81
 847 55 847 55 781 14 c 0,82,83
 744 -10 744 -10 718 -10 c 0,84,85
 681 -10 681 -10 660 32 c 0,0,1
441 256 m 1,86,87
 470 327 470 327 470 392.5 c 128,-1,88
 470 458 470 458 440 517 c 1,89,90
 400 470 400 470 400 336 c 0,91,92
 400 329 400 329 396 329 c 0,93,94
 390 330 390 330 388 338 c 0,95,96
 383 372 383 372 383 401 c 0,97,98
 383 493 383 493 430 533 c 1,99,-1
 423 542 l 2,100,101
 379 600 379 600 320 600 c 0,102,103
 290 600 290 600 254 577 c 1,104,105
 205 544 205 544 205 459 c 0,106,107
 205 363 205 363 279 297 c 0,108,109
 326 255 326 255 391 252 c 1,110,111
 420 252 420 252 441 256 c 1,86,87
442 189 m 128,-1,113
 431 189 431 189 418 188 c 1,114,115
 363 100 363 100 280 49 c 0,116,117
 213 8 213 8 144 8 c 0,118,119
 110 8 110 8 108 11 c 1,120,121
 106 18 106 18 112 18 c 0,122,123
 128 16 128 16 145 16 c 0,124,125
 211 16 211 16 274 54 c 0,126,127
 353 103 353 103 406 188 c 1,128,129
 331 185 331 185 243.5 172 c 128,-1,130
 156 159 156 159 107 143 c 0,131,132
 24 116 24 116 24 60 c 0,133,134
 24 28 24 28 54 7.5 c 128,-1,135
 84 -13 84 -13 112 -16.5 c 128,-1,136
 140 -20 140 -20 155 -20 c 0,137,138
 316 -20 316 -20 463 188 c 1,139,112
 453 189 453 189 442 189 c 128,-1,113
451 527 m 1,140,141
 485 469 485 469 485 401.5 c 128,-1,142
 485 334 485 334 454 258 c 1,143,144
 482 265 482 265 496 272 c 1,145,146
 522 352 522 352 522 421 c 0,147,148
 522 495 522 495 495 522 c 0,149,150
 483 534 483 534 472 534 c 128,-1,151
 461 534 461 534 451 527 c 1,140,141
493 262 m 1,152,153
 465 252 465 252 450 249 c 1,154,155
 441 227 441 227 428 205 c 1,156,157
 443 206 443 206 471 206 c 1,158,159
 484 234 484 234 493 262 c 1,152,153
EndSplineSet
EndChar

StartChar: I
Encoding: 73 73 46
Width: 441
GlyphClass: 2
Flags: W
LayerCount: 2
Fore
SplineSet
265 502 m 1,0,1
 233 588 233 588 158 588 c 0,2,3
 107 588 107 588 63 534 c 128,-1,4
 19 480 19 480 19 389 c 0,5,6
 19 362 19 362 23 331 c 0,7,8
 38 227 38 227 94.5 183 c 128,-1,9
 151 139 151 139 216 139 c 0,10,11
 225 139 225 139 235 140 c 1,12,13
 282 276 282 276 282 386 c 0,14,15
 282 433 282 433 272 480 c 1,16,17
 147 467 147 467 105 409 c 0,18,19
 90 389 90 389 90 368 c 128,-1,20
 90 347 90 347 115.5 321.5 c 128,-1,21
 141 296 141 296 203 285 c 0,22,23
 210 283 210 283 205 278.5 c 128,-1,24
 200 274 200 274 193 276 c 0,25,26
 127 296 127 296 91.5 323.5 c 128,-1,27
 56 351 56 351 56 378.5 c 128,-1,28
 56 406 56 406 78.5 431.5 c 128,-1,29
 101 457 101 457 150.5 476 c 128,-1,30
 200 495 200 495 265 502 c 1,0,1
295 482 m 1,31,32
 306 443 306 443 306 393 c 0,33,34
 306 284 306 284 254 143 c 1,35,36
 274 147 274 147 288 153 c 1,37,38
 316 238 316 238 334.5 334 c 128,-1,39
 353 430 353 430 354 482 c 1,40,41
 338 483 338 483 323 483 c 128,-1,42
 308 483 308 483 295 482 c 1,31,32
197 23 m 1,43,44
 207 23 207 23 229 21 c 1,45,46
 259 67 259 67 284 140 c 1,47,48
 271 136 271 136 249 132 c 1,49,50
 230 79 230 79 197 23 c 1,43,44
183 0 m 2,51,-1
 182 0 l 1,52,53
 171 -18 171 -18 155 -37 c 1,54,55
 183 -37 183 -37 214 -1 c 1,56,57
 203 0 203 0 183 0 c 2,51,-1
261 18 m 1,58,59
 329 10 329 10 369.5 0.5 c 128,-1,60
 410 -9 410 -9 421.5 -9 c 128,-1,61
 433 -9 433 -9 433 -4 c 0,62,63
 433 4 433 4 404 22 c 0,64,65
 400 25 400 25 403 26.5 c 128,-1,66
 406 28 406 28 409 27 c 0,67,68
 436 16 436 16 443 -3 c 0,69,70
 444 -7 444 -7 444 -10 c 0,71,72
 444 -24 444 -24 417 -24 c 0,73,74
 404 -24 404 -24 358 -15 c 128,-1,75
 312 -6 312 -6 247 -2 c 1,76,77
 205 -55 205 -55 170 -55 c 0,78,79
 158 -55 158 -55 144 -50 c 1,80,81
 74 -127 74 -127 12 -127 c 0,82,83
 -12 -127 -12 -127 -28 -109 c 0,84,85
 -29 -107 -29 -107 -29 -105 c 128,-1,86
 -29 -103 -29 -103 -26 -102 c 128,-1,87
 -23 -101 -23 -101 -22 -103 c 0,88,89
 -9 -120 -9 -120 13.5 -120 c 128,-1,90
 36 -120 36 -120 70 -101.5 c 128,-1,91
 104 -83 104 -83 135 -46 c 1,92,93
 103 -32 103 -32 96 -15 c 1,94,95
 94 -7 94 -7 99 -7 c 128,-1,96
 104 -7 104 -7 105.5 -9 c 128,-1,97
 107 -11 107 -11 110 -16 c 0,98,99
 120 -31 120 -31 143 -36 c 1,100,101
 159 -17 159 -17 169 0 c 1,102,103
 28 -3 28 -3 28 -47 c 0,104,105
 28 -57 28 -57 38 -69.5 c 128,-1,106
 48 -82 48 -82 57 -87.5 c 128,-1,107
 66 -93 66 -93 57 -94 c 128,-1,108
 48 -95 48 -95 42 -91 c 0,109,110
 1 -63 1 -63 1 -40 c 0,111,112
 1 24 1 24 173 24 c 0,113,114
 180 24 180 24 183 23 c 1,115,116
 210 69 210 69 232 130 c 1,117,118
 224 129 224 129 216 129 c 0,119,120
 145 129 145 129 83 179 c 0,121,122
 3 242 3 242 3 387 c 0,123,124
 3 490 3 490 61 550 c 0,125,126
 106 596 106 596 161 596 c 0,127,128
 250 596 250 596 288 504 c 1,129,-1
 326 504 l 2,130,131
 354 504 354 504 366 505 c 1,132,-1
 382 520 l 1,133,134
 390 526 390 526 395 526 c 0,135,136
 405 526 405 526 406 506 c 1,137,138
 410 506 410 506 418 505 c 0,139,140
 515 501 515 501 515 484 c 0,141,142
 515 478 515 478 504 480 c 128,-1,143
 493 482 493 482 484 482 c 2,144,-1
 402 483 l 1,145,146
 377 312 377 312 332 176 c 1,147,148
 383 212 383 212 393 266 c 0,149,150
 394 271 394 271 397.5 268 c 128,-1,151
 401 265 401 265 400 262 c 0,152,153
 384 197 384 197 327 161 c 1,154,155
 296 72 296 72 261 18 c 1,58,59
EndSplineSet
EndChar

StartChar: J
Encoding: 74 74 47
Width: 421
GlyphClass: 2
Flags: W
LayerCount: 2
Fore
SplineSet
461 506 m 0,0,1
 569 501 569 501 569 484 c 0,2,3
 569 478 569 478 558 480 c 128,-1,4
 547 482 547 482 538 482 c 2,5,-1
 457 483 l 1,6,7
 439 338 439 338 378 168 c 1,8,-1
 422 171 l 2,9,10
 443 173 443 173 445 169 c 0,11,12
 449 161 449 161 428 160 c 0,13,14
 401 158 401 158 374 154 c 1,15,16
 264 -151 264 -151 130 -234 c 0,17,18
 38 -292 38 -292 -37 -292 c 0,19,20
 -97 -292 -97 -292 -122 -247 c 1,21,22
 -136 -224 -136 -224 -136 -205 c 128,-1,23
 -136 -186 -136 -186 -135 -178 c 0,24,25
 -131 -139 -131 -139 -102.5 -90 c 128,-1,26
 -74 -41 -74 -41 -23 4 c 0,27,28
 97 112 97 112 281 152 c 1,29,30
 294 210 294 210 294 260 c 0,31,32
 294 354 294 354 248 415 c 1,33,34
 233 433 233 433 221 444 c 1,35,36
 136 405 136 405 136 341 c 0,37,38
 136 325 136 325 143 311 c 0,39,40
 158 279 158 279 193.5 255 c 128,-1,41
 229 231 229 231 272 228 c 0,42,43
 280 227 280 227 274.5 221 c 128,-1,44
 269 215 269 215 261 216 c 0,45,46
 193 229 193 229 152 258 c 0,47,48
 102 294 102 294 102 339 c 0,49,50
 102 366 102 366 123 398.5 c 128,-1,51
 144 431 144 431 199 459 c 1,52,53
 173 473 173 473 143.5 473 c 128,-1,54
 114 473 114 473 79 449.5 c 128,-1,55
 44 426 44 426 30 378 c 0,56,57
 21 348 21 348 21 325 c 0,58,59
 21 251 21 251 66 202 c 0,60,61
 99 167 99 167 148 165 c 0,62,63
 163 164 163 164 162 161 c 128,-1,64
 161 158 161 158 147 159 c 0,65,66
 76 162 76 162 37 220 c 0,67,68
 7 264 7 264 7 317 c 0,69,70
 7 410 7 410 78 458 c 0,71,72
 116 483 116 483 149.5 483 c 128,-1,73
 183 483 183 483 213 466 c 1,74,75
 234 475 234 475 270.5 486 c 128,-1,76
 307 497 307 497 401 503 c 1,77,-1
 421 505 l 1,78,79
 428 511 428 511 432 515 c 0,80,81
 444 525 444 525 452 525 c 128,-1,82
 460 525 460 525 460 515 c 2,83,-1
 460 508 l 2,84,85
 460 506 460 506 461 506 c 0,0,1
-54 -243 m 0,86,87
 -80 -243 -80 -243 -81.5 -240 c 128,-1,88
 -83 -237 -83 -237 -81.5 -235 c 128,-1,89
 -80 -233 -80 -233 -72.5 -234 c 128,-1,90
 -65 -235 -65 -235 -53 -235 c 0,91,92
 8 -235 8 -235 76 -186.5 c 128,-1,93
 144 -138 144 -138 198 -51 c 128,-1,94
 252 36 252 36 277 135 c 1,95,96
 83 85 83 85 -21 -29 c 0,97,98
 -66 -77 -66 -77 -90 -122 c 0,99,100
 -116 -169 -116 -169 -116 -200 c 128,-1,101
 -116 -231 -116 -231 -100 -250 c 0,102,103
 -80 -274 -80 -274 -47 -274 c 0,104,105
 27 -274 27 -274 117 -212 c 0,106,107
 233 -131 233 -131 331 147 c 1,108,109
 314 145 314 145 290 139 c 1,110,111
 264 37 264 37 208 -53 c 128,-1,112
 152 -143 152 -143 80.5 -193 c 128,-1,113
 9 -243 9 -243 -54 -243 c 0,86,87
308 266 m 0,114,115
 308 215 308 215 294 155 c 1,116,-1
 336 162 l 1,117,118
 398 351 398 351 410 481 c 1,119,120
 316 474 316 474 290.5 467.5 c 128,-1,121
 265 461 265 461 236 450 c 1,122,123
 253 433 253 433 261 422 c 0,124,125
 308 360 308 360 308 266 c 0,114,115
EndSplineSet
EndChar

StartChar: K
Encoding: 75 75 48
Width: 655
GlyphClass: 2
Flags: W
LayerCount: 2
Fore
SplineSet
287 554 m 0,0,1
 287 557 287 557 291 557 c 128,-1,2
 295 557 295 557 295 546 c 128,-1,3
 295 535 295 535 292 505 c 1,4,-1
 336 505 l 1,5,-1
 352 520 l 1,6,7
 360 526 360 526 365 526 c 0,8,9
 375 526 375 526 376 506 c 1,10,11
 394 505 394 505 393 495 c 1,12,13
 393 483 393 483 371 483 c 1,14,15
 359 401 359 401 343 331 c 1,16,17
 376 329 376 329 397 324 c 1,18,19
 442 414 442 414 487 467 c 128,-1,20
 532 520 532 520 602 537 c 1,21,-1
 617 540 l 2,22,23
 626 541 626 541 635 541 c 0,24,25
 676 541 676 541 711 510.5 c 128,-1,26
 746 480 746 480 752 427 c 1,27,28
 752 412 752 412 751 412 c 0,29,30
 747 412 747 412 747 424 c 1,31,32
 741 473 741 473 705.5 494 c 128,-1,33
 670 515 670 515 632 515 c 0,34,35
 562 515 562 515 509.5 459 c 128,-1,36
 457 403 457 403 410 321 c 1,37,38
 478 302 478 302 510 260 c 0,39,40
 533 229 533 229 533 197 c 0,41,42
 533 184 533 184 529 171 c 0,43,44
 513 119 513 119 453 90 c 1,45,46
 506 22 506 22 538 0 c 1,47,48
 575 -24 575 -24 598 -24 c 0,49,50
 636 -24 636 -24 636 23 c 128,-1,51
 636 70 636 70 608 111 c 0,52,53
 606 113 606 113 606 115 c 128,-1,54
 606 117 606 117 608 117 c 128,-1,55
 610 117 610 117 615 112 c 0,56,57
 648 74 648 74 648 35.5 c 128,-1,58
 648 -3 648 -3 628.5 -25 c 128,-1,59
 609 -47 609 -47 577 -47 c 0,60,61
 531 -47 531 -47 480 -2 c 1,62,63
 443 29 443 29 413 77 c 1,64,65
 398 74 398 74 384 74 c 0,66,67
 345 74 345 74 313 95 c 0,68,69
 310 97 310 97 312 100.5 c 128,-1,70
 314 104 314 104 318 102 c 0,71,72
 349 82 349 82 382 82 c 0,73,74
 395 82 395 82 408 85 c 1,75,76
 390 115 390 115 360 173.5 c 128,-1,77
 330 232 330 232 322 247 c 1,78,79
 255 0 255 0 166 -48 c 0,80,81
 152 -55 152 -55 132.5 -55 c 128,-1,82
 113 -55 113 -55 89 -37.5 c 128,-1,83
 65 -20 65 -20 65 -12 c 0,84,85
 65 -7 65 -7 69 -7 c 128,-1,86
 73 -7 73 -7 74.5 -9 c 128,-1,87
 76 -11 76 -11 79 -15.5 c 128,-1,88
 82 -20 82 -20 87 -23 c 0,89,90
 105 -36 105 -36 117.5 -36 c 128,-1,91
 130 -36 130 -36 136 -35 c 0,92,93
 187 -23 187 -23 231 82.5 c 128,-1,94
 275 188 275 188 302 323 c 1,95,96
 275 321 275 321 262 318 c 1,97,98
 235 199 235 199 197.5 112 c 128,-1,99
 160 25 160 25 97 7 c 0,100,101
 47 -7 47 -7 18 32 c 0,102,103
 -1 56 -1 56 -1 87 c 0,104,105
 -1 138 -1 138 34 189.5 c 128,-1,106
 69 241 69 241 143 282 c 1,107,108
 25 322 25 322 25 384 c 0,109,110
 25 431 25 431 98.5 466.5 c 128,-1,111
 172 502 172 502 284 505 c 1,112,113
 287 535 287 535 287 554 c 0,0,1
18 98 m 0,114,115
 18 77 18 77 26 58 c 0,116,117
 44 20 44 20 83 20 c 0,118,119
 149 20 149 20 192 119 c 0,120,121
 229 206 229 206 253 316 c 1,122,123
 211 308 211 308 169 286 c 1,124,-1
 173 285 l 2,125,126
 181 283 181 283 174 279 c 1,127,128
 168 274 168 274 155 278 c 1,129,130
 85 239 85 239 51.5 189 c 128,-1,131
 18 139 18 139 18 98 c 0,114,115
82 418 m 0,132,133
 60 395 60 395 60 374 c 128,-1,134
 60 353 60 353 74 335 c 0,135,136
 97 303 97 303 155 289 c 1,137,138
 205 314 205 314 255 325 c 1,139,140
 272 400 272 400 281 483 c 1,141,142
 137 479 137 479 82 418 c 0,132,133
355 222 m 1,143,-1
 447 98 l 1,144,145
 500 126 500 126 514 173 c 0,146,147
 518 185 518 185 518 206 c 128,-1,148
 518 227 518 227 498 256 c 0,149,150
 469 296 469 296 405 314 c 1,151,-1
 355 222 l 1,143,-1
303 331 m 1,152,153
 323 428 323 428 323 482 c 1,154,155
 312 483 312 483 289 483 c 1,156,157
 280 403 280 403 264 327 c 1,158,159
 288 331 288 331 303 331 c 1,152,153
341 324 m 1,160,161
 337 304 337 304 327 264 c 1,162,-1
 350 228 l 1,163,-1
 394 317 l 1,164,165
 363 323 363 323 341 324 c 1,160,161
EndSplineSet
EndChar

StartChar: L
Encoding: 76 76 49
Width: 433
GlyphClass: 2
Flags: W
LayerCount: 2
Fore
SplineSet
1 55 m 0,0,1
 -7 74 -7 74 -7 94 c 128,-1,2
 -7 114 -7 114 12.5 136.5 c 128,-1,3
 32 159 32 159 74.5 159 c 128,-1,4
 117 159 117 159 210 113 c 1,5,6
 221 135 221 135 233 171 c 1,7,8
 226 171 226 171 219 171 c 0,9,10
 146 171 146 171 112 209 c 0,11,12
 92 232 92 232 92 259.5 c 128,-1,13
 92 287 92 287 105 315 c 1,14,15
 69 366 69 366 69 428 c 0,16,17
 69 537 69 537 147 576 c 0,18,19
 166 586 166 586 190.5 586 c 128,-1,20
 215 586 215 586 243 558 c 0,21,22
 288 513 288 513 288 403 c 0,23,24
 288 335 288 335 266 246 c 1,25,26
 281 246 281 246 301 251 c 1,27,28
 332 414 332 414 372 485 c 0,29,30
 427 585 427 585 479 585 c 0,31,32
 524 585 524 585 541 522 c 0,33,34
 548 496 548 496 548 468 c 0,35,36
 548 414 548 414 520.5 357 c 128,-1,37
 493 300 493 300 438 252.5 c 128,-1,38
 383 205 383 205 309 183 c 1,39,40
 292 127 292 127 269 80 c 1,41,42
 328 44 328 44 408 11 c 0,43,44
 597 -66 597 -66 626 13 c 0,45,46
 630 22 630 22 634 21 c 0,47,48
 636 20 636 20 636 17.5 c 128,-1,49
 636 15 636 15 635 12 c 0,50,51
 621 -27 621 -27 581 -42 c 0,52,53
 551 -54 551 -54 530 -54 c 0,54,55
 468 -54 468 -54 401 -22.5 c 128,-1,56
 334 9 334 9 296 35 c 2,57,-1
 259 61 l 1,58,59
 208 -17 208 -17 132 -17 c 0,60,61
 118 -17 118 -17 102 -14 c 0,62,63
 26 -1 26 -1 1 55 c 0,0,1
272 403 m 0,64,65
 272 533 272 533 214 567 c 0,66,67
 197 577 197 577 176.5 577 c 128,-1,68
 156 577 156 577 131 556 c 0,69,70
 86 516 86 516 86 444 c 0,71,72
 86 388 86 388 114 331 c 1,73,74
 130 358 130 358 157 376 c 0,75,76
 164 381 164 381 165.5 378.5 c 128,-1,77
 167 376 167 376 165 375 c 0,78,79
 133 349 133 349 122 315 c 1,80,81
 142 284 142 284 178 265.5 c 128,-1,82
 214 247 214 247 253 246 c 1,83,84
 272 335 272 335 272 403 c 0,64,65
495 367 m 1,85,86
 526 435 526 435 526 498 c 128,-1,87
 526 561 526 561 496 561 c 0,88,89
 442 561 442 561 363 347 c 0,90,91
 349 310 349 310 335 264 c 1,92,93
 393 294 393 294 427 363 c 0,94,95
 429 368 429 368 432.5 365 c 128,-1,96
 436 362 436 362 434 360 c 0,97,98
 396 283 396 283 332 253 c 1,99,-1
 315 203 l 1,100,101
 438 237 438 237 495 367 c 1,85,86
109 18 m 0,102,103
 107 18 107 18 105 18 c 0,104,105
 99 18 99 18 101 23 c 1,106,107
 101 26 101 26 103.5 26 c 128,-1,108
 106 26 106 26 108 26 c 0,109,110
 161 26 161 26 199 93 c 1,111,112
 145 117 145 117 126.5 120.5 c 128,-1,113
 108 124 108 124 95 124 c 0,114,115
 59 124 59 124 41.5 105 c 128,-1,116
 24 86 24 86 24 70 c 128,-1,117
 24 54 24 54 32 38 c 0,118,119
 56 -4 56 -4 123 -4 c 0,120,121
 170 -4 170 -4 198 18 c 0,122,123
 229 42 229 42 238 62 c 1,124,-1
 243 71 l 1,125,126
 228 79 228 79 208 89 c 1,127,128
 165 18 165 18 109 18 c 0,102,103
118 286 m 0,129,130
 118 246 118 246 153.5 218 c 128,-1,131
 189 190 189 190 238 190 c 1,132,133
 243 206 243 206 251 238 c 1,134,135
 169 241 169 241 119 297 c 1,136,137
 118 291 118 291 118 286 c 0,129,130
245 172 m 1,138,139
 231 133 231 133 219 108 c 1,140,-1
 253 90 l 1,141,142
 263 110 263 110 285 179 c 1,143,144
 271 176 271 176 245 172 c 1,138,139
299 242 m 1,145,146
 283 238 283 238 264 238 c 1,147,148
 256 206 256 206 251 190 c 1,149,150
 269 192 269 192 290 196 c 1,151,-1
 299 242 l 1,145,146
EndSplineSet
EndChar

StartChar: M
Encoding: 77 77 50
Width: 833
GlyphClass: 2
Flags: W
LayerCount: 2
Fore
SplineSet
64 440 m 1,0,1
 88 500 88 500 146.5 535 c 128,-1,2
 205 570 205 570 260 570 c 128,-1,3
 315 570 315 570 355 546 c 1,4,5
 362 547 362 547 376 547 c 0,6,7
 478 547 478 547 526 486 c 1,8,9
 539 495 539 495 549 497 c 128,-1,10
 559 499 559 499 560 495 c 1,11,12
 558 488 558 488 550 486 c 128,-1,13
 542 484 542 484 532 477 c 1,14,15
 567 425 567 425 567 338.5 c 128,-1,16
 567 252 567 252 524 125 c 1,17,18
 535 123 535 123 555 117 c 1,19,-1
 568 140 l 1,20,21
 664 298 664 298 714 365 c 0,22,23
 842 533 842 533 935 533 c 0,24,25
 959 533 959 533 973.5 514.5 c 128,-1,26
 988 496 988 496 988 473 c 0,27,28
 988 457 988 457 984.5 456 c 128,-1,29
 981 455 981 455 980 460 c 2,30,-1
 979 463 l 1,31,32
 979 507 979 507 933 507 c 0,33,34
 916 507 916 507 885.5 493.5 c 128,-1,35
 855 480 855 480 809.5 436.5 c 128,-1,36
 764 393 764 393 722 336 c 0,37,38
 652 242 652 242 612.5 179.5 c 128,-1,39
 573 117 573 117 569 111 c 1,40,41
 655 76 655 76 655 12 c 0,42,43
 655 -7 655 -7 648 -28 c 0,44,45
 647 -30 647 -30 644.5 -30.5 c 128,-1,46
 642 -31 642 -31 640.5 -29 c 128,-1,47
 639 -27 639 -27 643 -16 c 128,-1,48
 647 -5 647 -5 647 15 c 128,-1,49
 647 35 647 35 635 54 c 0,50,51
 614 87 614 87 565 105 c 1,52,53
 484 -16 484 -16 462 -16 c 0,54,55
 456 -16 456 -16 458 -10 c 0,56,57
 483 54 483 54 500 121 c 1,58,59
 490 123 490 123 470 125 c 1,60,61
 446 41 446 41 397 -15.5 c 128,-1,62
 348 -72 348 -72 300.5 -93.5 c 128,-1,63
 253 -115 253 -115 217 -115 c 0,64,65
 145 -115 145 -115 127 -68 c 1,66,67
 120 -69 120 -69 105 -69 c 128,-1,68
 90 -69 90 -69 73 -66.5 c 128,-1,69
 56 -64 56 -64 39 -52.5 c 128,-1,70
 22 -41 22 -41 22 -24 c 128,-1,71
 22 -7 22 -7 34 -4 c 0,72,73
 40 -3 40 -3 40.5 -6 c 128,-1,74
 41 -9 41 -9 39 -11 c 0,75,76
 30 -23 30 -23 42 -35 c 0,77,78
 65 -56 65 -56 106 -56 c 0,79,80
 115 -56 115 -56 123 -55 c 1,81,82
 122 -49 122 -49 122 -43 c 0,83,84
 122 -5 122 -5 161 40 c 0,85,86
 211 98 211 98 320 124 c 1,87,88
 336 154 336 154 364 222 c 0,89,90
 414 340 414 340 456 407 c 1,91,92
 429 491 429 491 366 531 c 1,93,94
 359 532 359 532 345 532 c 0,95,96
 276 532 276 532 204 478 c 0,97,98
 107 406 107 406 83 298 c 1,99,100
 113 239 113 239 172 239 c 0,101,102
 174 239 174 239 175 239 c 0,103,104
 215 239 215 239 251 264 c 128,-1,105
 287 289 287 289 291 323 c 0,106,107
 291 325 291 325 293 326 c 128,-1,108
 295 327 295 327 297 325.5 c 128,-1,109
 299 324 299 324 299 322 c 0,110,111
 295 285 295 285 256 258 c 128,-1,112
 217 231 217 231 175 231 c 0,113,114
 174 231 174 231 172 231 c 0,115,116
 116 231 116 231 81 277 c 1,117,118
 80 268 80 268 80 259 c 0,119,120
 80 218 80 218 101 186 c 128,-1,121
 122 154 122 154 172.5 154 c 128,-1,122
 223 154 223 154 257.5 178.5 c 128,-1,123
 292 203 292 203 303 218.5 c 128,-1,124
 314 234 314 234 315 229.5 c 128,-1,125
 316 225 316 225 313 219 c 0,126,127
 302 192 302 192 255 161.5 c 128,-1,128
 208 131 208 131 164.5 131 c 128,-1,129
 121 131 121 131 94 148 c 1,130,131
 47 180 47 180 47 253 c 0,132,133
 47 288 47 288 58 323 c 1,134,135
 51 347 51 347 51 375.5 c 128,-1,136
 51 404 51 404 64 440 c 1,0,1
143 -66 m 1,137,138
 159 -108 159 -108 218 -108 c 0,139,140
 250 -108 250 -108 288 -91 c 0,141,142
 351 -62 351 -62 394 -4.5 c 128,-1,143
 437 53 437 53 457 125 c 1,144,145
 445 126 445 126 422.5 126 c 128,-1,146
 400 126 400 126 365 120 c 1,147,148
 277 -47 277 -47 143 -66 c 1,137,138
879 434 m 0,149,150
 884 434 884 434 884 428 c 128,-1,151
 884 422 884 422 878 422 c 0,152,153
 877 422 877 422 876 422 c 0,154,155
 847 422 847 422 820 372 c 0,156,157
 776 290 776 290 752 122 c 0,158,159
 745 70 745 70 745 54 c 0,160,161
 745 -34 745 -34 790 -34 c 0,162,163
 803 -34 803 -34 823 -21 c 128,-1,164
 843 -8 843 -8 865 27 c 0,165,166
 870 35 870 35 874 32.5 c 128,-1,167
 878 30 878 30 874 22 c 0,168,169
 851 -23 851 -23 810 -42 c 1,170,171
 791 -52 791 -52 772.5 -52 c 128,-1,172
 754 -52 754 -52 736 -40 c 0,173,174
 703 -19 703 -19 702 43 c 1,175,176
 702 131 702 131 744 271 c 0,177,178
 764 340 764 340 799 387 c 128,-1,179
 834 434 834 434 874 434 c 0,180,181
 876 434 876 434 879 434 c 0,149,150
339 545 m 1,182,183
 298 562 298 562 252 562 c 128,-1,184
 206 562 206 562 155.5 531.5 c 128,-1,185
 105 501 105 501 86 456.5 c 128,-1,186
 67 412 67 412 67 372 c 0,187,188
 67 361 67 361 68 350 c 1,189,-1
 77 368 l 1,190,191
 117 437 117 437 189 486 c 128,-1,192
 261 535 261 535 339 545 c 1,182,183
460 134 m 1,193,194
 475 194 475 194 475 258 c 128,-1,195
 475 322 475 322 465 370 c 1,196,197
 450 336 450 336 423 262.5 c 128,-1,198
 396 189 396 189 384 162 c 2,199,-1
 371 132 l 1,200,201
 395 135 395 135 418 135 c 128,-1,202
 441 135 441 135 460 134 c 1,193,194
138 -44 m 0,203,204
 138 -49 138 -49 139 -53 c 1,205,206
 236 -34 236 -34 313 110 c 1,207,208
 219 87 219 87 178.5 39.5 c 128,-1,209
 138 -8 138 -8 138 -44 c 0,203,204
477 395 m 1,210,211
 492 344 492 344 492 280 c 128,-1,212
 492 216 492 216 472 133 c 1,213,-1
 502 130 l 1,214,215
 526 230 526 230 526 308 c 128,-1,216
 526 386 526 386 501 440 c 1,217,218
 489 420 489 420 477 395 c 1,210,211
467 424 m 1,219,220
 474 435 474 435 492 457 c 1,221,222
 457 516 457 516 385 529 c 1,223,224
 441 491 441 491 467 424 c 1,219,220
551 110 m 1,225,-1
 522 118 l 1,226,227
 500 52 500 52 472 -3 c 1,228,229
 493 7 493 7 551 110 c 1,225,-1
EndSplineSet
EndChar

StartChar: N
Encoding: 78 78 51
Width: 686
GlyphClass: 2
Flags: W
LayerCount: 2
Fore
SplineSet
283 39 m 1,0,1
 238 63 238 63 238 106.5 c 128,-1,2
 238 150 238 150 276 190 c 1,3,4
 335 248 335 248 416 265 c 1,5,6
 443 333 443 333 449 395 c 1,7,8
 411 513 411 513 319 530 c 1,9,10
 300 505 300 505 300 462.5 c 128,-1,11
 300 420 300 420 327 383 c 0,12,13
 328 381 328 381 327 379 c 128,-1,14
 326 377 326 377 324 377 c 128,-1,15
 322 377 322 377 320 379 c 0,16,17
 292 417 292 417 292 461 c 128,-1,18
 292 505 292 505 310 531 c 1,19,20
 302 532 302 532 293 532 c 0,21,22
 240 532 240 532 183 490 c 128,-1,23
 126 448 126 448 96 372 c 0,24,25
 77 324 77 324 77 276 c 0,26,27
 77 200 77 200 133 200 c 0,28,29
 165 200 165 200 194 229.5 c 128,-1,30
 223 259 223 259 235 280 c 0,31,32
 240 287 240 287 242 283 c 1,33,-1
 242 275 l 1,34,35
 232 251 232 251 194 216 c 0,36,37
 155 180 155 180 118 180 c 128,-1,38
 81 180 81 180 65 211 c 128,-1,39
 49 242 49 242 49 278 c 0,40,41
 49 335 49 335 75 386 c 0,42,43
 113 460 113 460 182 504.5 c 128,-1,44
 251 549 251 549 318 549 c 0,45,46
 321 549 321 549 324 549 c 1,47,48
 346 574 346 574 384 574 c 0,49,50
 434 574 434 574 467 530 c 0,51,52
 506 477 506 477 522 419 c 0,53,54
 546 333 546 333 559 253 c 1,55,56
 579 245 579 245 603 228 c 1,57,58
 639 395 639 395 664 447 c 1,59,60
 701 520 701 520 741 541 c 0,61,62
 766 554 766 554 800 554 c 128,-1,63
 834 554 834 554 857 528 c 128,-1,64
 880 502 880 502 886 475 c 0,65,66
 887 472 887 472 887 469 c 128,-1,67
 887 466 887 466 882 466 c 0,68,69
 880 466 880 466 876.5 477 c 128,-1,70
 873 488 873 488 853.5 505 c 128,-1,71
 834 522 834 522 806.5 522 c 128,-1,72
 779 522 779 522 755.5 510 c 128,-1,73
 732 498 732 498 714 473.5 c 128,-1,74
 696 449 696 449 681.5 423 c 128,-1,75
 667 397 667 397 654 358 c 0,76,77
 636 300 636 300 616 218 c 1,78,79
 636 202 636 202 654 178 c 0,80,81
 687 133 687 133 687 86 c 128,-1,82
 687 39 687 39 661 27 c 0,83,84
 655 24 655 24 650 24 c 0,85,86
 614 24 614 24 586 99 c 1,87,88
 578 72 578 72 570 56 c 1,89,90
 603 -10 603 -10 642 -10 c 0,91,92
 670 -10 670 -10 702 20 c 0,93,94
 712 30 712 30 713.5 30 c 128,-1,95
 715 30 715 30 715 28 c 2,96,-1
 717 23 l 1,97,98
 673 -23 673 -23 629.5 -23 c 128,-1,99
 586 -23 586 -23 550 26 c 1,100,101
 544 21 544 21 530.5 21 c 128,-1,102
 517 21 517 21 517 30 c 0,103,104
 517 32 517 32 527 34.5 c 128,-1,105
 537 37 537 37 541 39 c 1,106,107
 500 125 500 125 479 260 c 1,108,109
 474 260 474 260 468 260 c 2,110,-1
 437 257 l 1,111,112
 391 135 391 135 304 39 c 1,113,114
 316 35 316 35 328 35 c 0,115,116
 361 35 361 35 394 65 c 0,117,118
 399 70 399 70 400 65.5 c 128,-1,119
 401 61 401 61 399 59 c 0,120,121
 365 28 365 28 327 28 c 0,122,123
 313 28 313 28 298 32 c 1,124,125
 183 -95 183 -95 62 -95 c 0,126,127
 33 -95 33 -95 15 -78 c 128,-1,128
 -3 -61 -3 -61 -3 -29.5 c 128,-1,129
 -3 2 -3 2 22 34 c 1,130,131
 22 37 22 37 26 37 c 0,132,133
 28 37 28 37 28 34 c 1,134,-1
 20 14 l 2,135,136
 12 -6 12 -6 12 -26 c 128,-1,137
 12 -46 12 -46 27 -64.5 c 128,-1,138
 42 -83 42 -83 66 -83 c 0,139,140
 176 -83 176 -83 283 39 c 1,0,1
288 45 m 1,141,142
 363 133 363 133 411 252 c 1,143,144
 344 234 344 234 288 181 c 1,145,146
 252 142 252 142 252 104 c 128,-1,147
 252 66 252 66 288 45 c 1,141,142
334 548 m 1,148,149
 446 536 446 536 481 407 c 0,150,151
 497 350 497 350 512 266 c 1,152,153
 531 263 531 263 549 257 c 1,154,155
 528 362 528 362 490 455 c 0,156,157
 467 510 467 510 437.5 537.5 c 128,-1,158
 408 565 408 565 382 565 c 128,-1,159
 356 565 356 565 334 548 c 1,148,149
614.5 59.5 m 128,-1,161
 628 40 628 40 636 36.5 c 128,-1,162
 644 33 644 33 649 33 c 128,-1,163
 654 33 654 33 658 35 c 0,164,165
 679 45 679 45 679 85.5 c 128,-1,166
 679 126 679 126 648 173 c 1,167,168
 631 195 631 195 614 209 c 1,169,170
 599 144 599 144 590 112 c 1,171,160
 601 79 601 79 614.5 59.5 c 128,-1,161
551 247 m 1,172,173
 535 254 535 254 514 257 c 1,174,175
 541 121 541 121 563 71 c 1,176,177
 571 88 571 88 579 119 c 1,178,179
 567 154 567 154 556 219 c 2,180,-1
 551 247 l 1,172,173
560 243 m 1,181,-1
 564 220 l 2,182,183
 574 164 574 164 583 134 c 1,184,185
 590 163 590 163 601 220 c 1,186,187
 580 234 580 234 560 243 c 1,181,-1
441 269 m 1,188,189
 453 270 453 270 478 270 c 1,190,191
 472 300 472 300 465 354 c 1,192,193
 455 310 455 310 441 269 c 1,188,189
EndSplineSet
EndChar

StartChar: O
Encoding: 79 79 52
Width: 534
GlyphClass: 2
Flags: W
LayerCount: 2
Fore
SplineSet
39 268 m 1,0,1
 38 347 38 347 125 420 c 1,2,3
 125 425 125 425 125 430 c 0,4,5
 125 525 125 525 199 560 c 0,6,7
 225 572 225 572 251 572 c 0,8,9
 331 572 331 572 403 487 c 1,10,11
 470 473 470 473 514 424.5 c 128,-1,12
 558 376 558 376 558 298 c 128,-1,13
 558 220 558 220 507 142 c 1,14,15
 493 52 493 52 439 -4 c 128,-1,16
 385 -60 385 -60 318 -60 c 128,-1,17
 251 -60 251 -60 197 -32 c 1,18,19
 98 -31 98 -31 62 27 c 0,20,21
 41 62 41 62 41 100 c 128,-1,22
 41 138 41 138 50 172 c 1,23,24
 39 213 39 213 39 267 c 2,25,-1
 39 268 l 1,0,1
355 319 m 0,26,27
 341 283 341 283 318 270 c 128,-1,28
 295 257 295 257 281 257 c 128,-1,29
 267 257 267 257 249 260 c 128,-1,30
 231 263 231 263 204 279.5 c 128,-1,31
 177 296 177 296 158 320 c 1,32,33
 95 250 95 250 71 176 c 1,34,35
 89 66 89 66 164 3 c 1,36,37
 172 1 172 1 180.5 1 c 128,-1,38
 189 1 189 1 197 2 c 0,39,40
 279 6 279 6 366 61.5 c 128,-1,41
 453 117 453 117 496 200 c 1,42,43
 488 364 488 364 393 476 c 1,44,45
 376 480 376 480 353 480 c 0,46,47
 221 480 221 480 138 398 c 1,48,49
 145 364 145 364 154 348 c 1,50,51
 244 434 244 434 335 434 c 0,52,53
 347 434 347 434 347 427.5 c 128,-1,54
 347 421 347 421 334 421 c 0,55,56
 256 421 256 421 165 328 c 1,57,58
 188 295 188 295 217 280.5 c 128,-1,59
 246 266 246 266 269 266 c 1,60,-1
 294 270 l 1,61,62
 330 280 330 280 347 322 c 0,63,64
 348 326 348 326 352 324.5 c 128,-1,65
 356 323 356 323 355 319 c 0,26,27
380 491 m 1,66,67
 314 563 314 563 248 563 c 0,68,69
 225 563 225 563 203 553 c 0,70,71
 136 520 136 520 136 437 c 0,72,73
 136 432 136 432 136 427 c 1,74,75
 227 493 227 493 353 493 c 0,76,77
 362 493 362 493 380 491 c 1,66,67
217 -31 m 1,78,79
 262 -52 262 -52 319 -52 c 128,-1,80
 376 -52 376 -52 424 -6 c 128,-1,81
 472 40 472 40 488 116 c 1,82,83
 438 52 438 52 365.5 12.5 c 128,-1,84
 293 -27 293 -27 217 -31 c 1,78,79
509 231 m 1,85,86
 524 272 524 272 524 323 c 128,-1,87
 524 374 524 374 495 413.5 c 128,-1,88
 466 453 466 453 418 469 c 1,89,90
 490 372 490 372 509 231 c 1,85,86
129 389 m 1,91,92
 74 328 74 328 66 258 c 1,93,-1
 66 222 l 1,94,95
 91 284 91 284 145 340 c 1,96,-1
 140 350 l 1,97,98
 133 372 133 372 129 389 c 1,91,92
60 115 m 0,99,100
 60 79 60 79 79.5 48.5 c 128,-1,101
 99 18 99 18 143 6 c 1,102,103
 88 58 88 58 61 132 c 1,104,105
 60 123 60 123 60 115 c 0,99,100
EndSplineSet
EndChar

StartChar: P
Encoding: 80 80 53
Width: 606
GlyphClass: 2
Flags: W
LayerCount: 2
Fore
SplineSet
147 313 m 1,0,1
 135 328 135 328 135 347 c 128,-1,2
 135 366 135 366 144.5 384.5 c 128,-1,3
 154 403 154 403 172.5 422.5 c 128,-1,4
 191 442 191 442 221.5 459.5 c 128,-1,5
 252 477 252 477 290 490 c 0,6,7
 369 519 369 519 488 519 c 1,8,9
 514 546 514 546 543 552 c 0,10,11
 544 552 544 552 544 552 c 2,12,13
 550 552 550 552 550 548 c 1,14,15
 548 541 548 541 536.5 538 c 128,-1,16
 525 535 525 535 509 518 c 1,17,18
 605 514 605 514 667.5 483 c 128,-1,19
 730 452 730 452 730 400 c 0,20,21
 730 352 730 352 677.5 309 c 128,-1,22
 625 266 625 266 544 240 c 1,23,24
 535 161 535 161 461 128 c 0,25,26
 456 126 456 126 455 130 c 128,-1,27
 454 134 454 134 457 135 c 0,28,29
 490 150 490 150 510.5 177.5 c 128,-1,30
 531 205 531 205 536 237 c 1,31,32
 475 219 475 219 400 213 c 1,33,-1
 391 186 l 1,34,35
 301 -60 301 -60 113 -60 c 0,36,37
 62 -60 62 -60 34 -34.5 c 128,-1,38
 6 -9 6 -9 6 27.5 c 128,-1,39
 6 64 6 64 32 110 c 1,40,41
 32 125 32 125 35 140 c 0,42,43
 51 237 51 237 147 313 c 1,0,1
330 292 m 1,44,45
 278 280 278 280 231 280 c 128,-1,46
 184 280 184 280 156 304 c 1,47,48
 64 232 64 232 49 138 c 1,49,-1
 48 133 l 1,50,51
 121 215 121 215 254 229 c 0,52,53
 260 230 260 230 260 224 c 0,54,55
 259 218 259 218 253 216 c 1,56,57
 181 205 181 205 127.5 170 c 128,-1,58
 74 135 74 135 46 90 c 1,59,60
 49 50 49 50 68 28 c 0,61,62
 90 2 90 2 126 2 c 128,-1,63
 162 2 162 2 195.5 27.5 c 128,-1,64
 229 53 229 53 255 102 c 0,65,66
 298 184 298 184 323 270 c 1,67,-1
 330 292 l 1,44,45
639 474.5 m 128,-1,69
 585 505 585 505 502 508 c 1,70,71
 478 474 478 474 450 378 c 1,72,73
 468 370 468 370 475 366 c 1,74,75
 511 383 511 383 545 408 c 0,76,77
 557 417 557 417 557 409 c 0,78,79
 557 397 557 397 489 358 c 1,80,81
 542 321 542 321 544 258 c 1,82,83
 615 285 615 285 652 322 c 0,84,85
 693 362 693 362 693 403 c 128,-1,68
 693 444 693 444 639 474.5 c 128,-1,69
196 409.5 m 128,-1,87
 165 384 165 384 160 367.5 c 128,-1,88
 155 351 155 351 155 341 c 128,-1,89
 155 331 155 331 159 322 c 1,90,91
 250 388 250 388 368 390 c 1,92,93
 404 469 404 469 428 487 c 0,94,95
 433 490 433 490 434 486 c 128,-1,96
 435 482 435 482 433 480 c 0,97,98
 409 462 409 462 379 390 c 1,99,100
 385 390 385 390 393.5 389.5 c 128,-1,101
 402 389 402 389 414 386 c 1,102,103
 450 474 450 474 479 509 c 1,104,105
 420 508 420 508 363 493.5 c 128,-1,106
 306 479 306 479 266.5 457 c 128,-1,86
 227 435 227 435 196 409.5 c 128,-1,87
67.5 15 m 128,-1,108
 44 36 44 36 36 69 c 1,109,110
 24 45 24 45 24 25 c 128,-1,111
 24 5 24 5 34 -11 c 0,112,113
 54 -46 54 -46 106.5 -46 c 128,-1,114
 159 -46 159 -46 198 -23.5 c 128,-1,115
 237 -1 237 -1 266 39 c 0,116,117
 313 106 313 106 347 199 c 2,118,-1
 386 309 l 1,119,120
 377 306 377 306 346 296 c 1,121,-1
 338 268 l 2,122,123
 320 202 320 202 292 147.5 c 128,-1,124
 264 93 264 93 240.5 62 c 128,-1,125
 217 31 217 31 186.5 12.5 c 128,-1,126
 156 -6 156 -6 123.5 -6 c 128,-1,107
 91 -6 91 -6 67.5 15 c 128,-1,108
537 255 m 1,127,128
 535 318 535 318 481 353 c 1,129,130
 451 337 451 337 436 330 c 1,131,132
 410 240 410 240 405 226 c 1,133,134
 415 228 415 228 432 230 c 0,135,136
 478 233 478 233 537 255 c 1,127,128
168 314 m 1,137,138
 186 300 186 300 213 300 c 128,-1,139
 240 300 240 300 266 303 c 128,-1,140
 292 306 292 306 338 316 c 1,141,142
 347 343 347 343 364 382 c 1,143,144
 256 379 256 379 168 314 c 1,137,138
376 382 m 1,145,146
 360 340 360 340 354 320 c 1,147,-1
 394 332 l 1,148,149
 399 347 399 347 411 379 c 1,150,151
 397 381 397 381 390.5 381.5 c 128,-1,152
 384 382 384 382 376 382 c 1,145,146
467 362 m 1,153,-1
 448 370 l 1,154,-1
 442 350 l 1,155,-1
 467 362 l 1,153,-1
EndSplineSet
EndChar

StartChar: Q
Encoding: 81 81 54
Width: 535
GlyphClass: 2
Flags: W
LayerCount: 2
Fore
SplineSet
486 93 m 0,0,1
 486 52 486 52 464 10.5 c 128,-1,2
 442 -31 442 -31 389 -49 c 0,3,4
 366 -57 366 -57 343 -57 c 1,5,-1
 253 -27 l 1,6,7
 225 -32 225 -32 201 -32 c 0,8,9
 128 -32 128 -32 86 1 c 1,10,11
 42 37 42 37 42 100 c 0,12,13
 42 145 42 145 57 197 c 1,14,15
 39 228 39 228 39 268 c 0,16,17
 39 334 39 334 93 390 c 1,18,19
 112 412 112 412 141 431 c 1,20,21
 163 479 163 479 199.5 513.5 c 128,-1,22
 236 548 236 548 275 562 c 128,-1,23
 314 576 314 576 351.5 576 c 128,-1,24
 389 576 389 576 418 558 c 0,25,26
 464 528 464 528 464 465 c 1,27,28
 558 412 558 412 558 307 c 128,-1,29
 558 202 558 202 485 113 c 1,30,31
 486 103 486 103 486 93 c 0,0,1
524 319 m 128,-1,33
 524 403 524 403 461 447 c 1,34,35
 453 413 453 413 427.5 389 c 128,-1,36
 402 365 402 365 369 364 c 0,37,38
 365 364 365 364 365 368 c 128,-1,39
 365 372 365 372 369 372 c 0,40,41
 400 373 400 373 424 396 c 128,-1,42
 448 419 448 419 454 452 c 1,43,44
 409 480 409 480 353 480 c 0,45,46
 226 480 226 480 144 404 c 1,47,48
 131 364 131 364 127 320 c 1,49,50
 171 370 171 370 226 402 c 128,-1,51
 281 434 281 434 335 434 c 0,52,53
 350 434 350 434 348 425 c 0,54,55
 347 421 347 421 334 421 c 0,56,57
 285 421 285 421 227.5 381 c 128,-1,58
 170 341 170 341 125 280 c 1,59,-1
 127 245 l 1,60,61
 139 97 139 97 233 6 c 1,62,63
 297 18 297 18 360 57 c 128,-1,64
 423 96 423 96 465 152 c 1,65,66
 450 191 450 191 417.5 216 c 128,-1,67
 385 241 385 241 350 241 c 0,68,69
 303 241 303 241 278 194 c 0,70,71
 277 192 277 192 275 192 c 128,-1,72
 273 192 273 192 271.5 194 c 128,-1,73
 270 196 270 196 271 198 c 0,74,75
 300 251 300 251 351 251 c 0,76,77
 390 251 390 251 434 212 c 0,78,79
 459 190 459 190 472 162 c 1,80,32
 524 235 524 235 524 319 c 128,-1,33
634 -261 m 0,81,82
 617 -285 617 -285 589.5 -297 c 128,-1,83
 562 -309 562 -309 549 -309 c 0,84,85
 511 -309 511 -309 482 -303 c 1,86,87
 439 -291 439 -291 391 -258.5 c 128,-1,88
 343 -226 343 -226 307 -191 c 0,89,90
 164 -52 164 -52 100 -52 c 0,91,92
 74 -52 74 -52 56 -73 c 128,-1,93
 38 -94 38 -94 38 -113 c 128,-1,94
 38 -132 38 -132 43 -146 c 0,95,96
 56 -185 56 -185 102 -197 c 0,97,98
 113 -200 113 -200 113.5 -204 c 128,-1,99
 114 -208 114 -208 109 -209 c 128,-1,100
 104 -210 104 -210 96 -207 c 0,101,102
 18 -181 18 -181 18 -119 c 0,103,104
 18 -83 18 -83 47.5 -62.5 c 128,-1,105
 77 -42 77 -42 104 -42 c 128,-1,106
 131 -42 131 -42 165 -53.5 c 128,-1,107
 199 -65 199 -65 246.5 -100 c 128,-1,108
 294 -135 294 -135 330 -168.5 c 128,-1,109
 366 -202 366 -202 419.5 -236 c 128,-1,110
 473 -270 473 -270 528 -284 c 1,111,112
 539 -289 539 -289 552 -289 c 0,113,114
 605 -289 605 -289 626 -259 c 0,115,116
 637 -243 637 -243 637 -254 c 0,117,118
 637 -257 637 -257 634 -261 c 0,81,82
347 570 m 0,119,120
 306 570 306 570 260 546 c 0,121,122
 198 514 198 514 161 444 c 1,123,124
 247 493 247 493 353 493 c 0,125,126
 410 493 410 493 456 469 c 1,127,128
 456 488 456 488 450 504 c 0,129,130
 432 554 432 554 378 566 c 0,131,132
 362 570 362 570 347 570 c 0,119,120
111 259 m 1,133,134
 60 182 60 182 60 116 c 0,135,136
 60 77 60 77 80 48 c 0,137,138
 112 2 112 2 185 2 c 0,139,140
 196 2 196 2 204 2.5 c 128,-1,141
 212 3 212 3 215 3 c 1,142,143
 125 93 125 93 112 247 c 0,144,145
 112 249 112 249 111.5 253 c 128,-1,146
 111 257 111 257 111 259 c 1,133,134
272 -24 m 1,147,148
 311 -48 311 -48 340 -48 c 0,149,150
 420 -48 420 -48 455 14 c 0,151,152
 475 50 475 50 475 93 c 0,153,154
 475 97 475 97 475 101 c 1,155,156
 390 4 390 4 272 -24 c 1,147,148
65 236 m 0,157,158
 65 227 65 227 66 222 c 1,159,160
 81 260 81 260 111 300 c 1,161,162
 112 344 112 344 123 382 c 1,163,164
 65 316 65 316 65 236 c 0,157,158
EndSplineSet
EndChar

StartChar: R
Encoding: 82 82 55
Width: 688
GlyphClass: 2
Flags: W
LayerCount: 2
Fore
SplineSet
327 291 m 1,0,1
 267 280 267 280 231 280 c 128,-1,2
 195 280 195 280 164.5 297.5 c 128,-1,3
 134 315 134 315 136 351 c 1,4,5
 107 362 107 362 86 383.5 c 128,-1,6
 65 405 65 405 61 425.5 c 128,-1,7
 57 446 57 446 57 467 c 128,-1,8
 57 488 57 488 72 519 c 128,-1,9
 87 550 87 550 120 568 c 0,10,11
 157 589 157 589 196.5 589 c 128,-1,12
 236 589 236 589 270.5 565.5 c 128,-1,13
 305 542 305 542 326 501 c 1,14,15
 401 519 401 519 488 519 c 1,16,17
 514 546 514 546 543 552 c 0,18,19
 550 553 550 553 550 548 c 1,20,21
 548 541 548 541 536.5 538 c 128,-1,22
 525 535 525 535 509 518 c 1,23,24
 605 514 605 514 667.5 483 c 128,-1,25
 730 452 730 452 730 400 c 0,26,27
 730 335 730 335 639 281.5 c 128,-1,28
 548 228 548 228 420 215 c 1,29,30
 429 202 429 202 463.5 150 c 128,-1,31
 498 98 498 98 514.5 74.5 c 128,-1,32
 531 51 531 51 561 18 c 0,33,34
 629 -58 629 -58 678 -58 c 0,35,36
 716 -58 716 -58 716 -10 c 128,-1,37
 716 38 716 38 687 77 c 0,38,39
 683 83 683 83 687 83 c 128,-1,40
 691 83 691 83 695 78 c 0,41,42
 727 41 727 41 727 2 c 128,-1,43
 727 -37 727 -37 707.5 -58.5 c 128,-1,44
 688 -80 688 -80 656 -80 c 0,45,46
 609 -80 609 -80 559 -36 c 0,47,48
 512 5 512 5 472 80 c 1,49,50
 457 106 457 106 435 150 c 128,-1,51
 413 194 413 194 402 213 c 1,52,-1
 400 213 l 1,53,-1
 391 186 l 1,54,55
 301 -60 301 -60 113 -60 c 0,56,57
 34 -60 34 -60 12 -3 c 0,58,59
 5 15 5 15 5 34 c 0,60,61
 5 74 5 74 37 118 c 0,62,63
 98 203 98 203 227 225 c 1,64,-1
 254 229 l 2,65,66
 260 230 260 230 260 224 c 0,67,68
 259 218 259 218 253 216 c 1,69,70
 134 197 134 197 66 117 c 0,71,72
 25 68 25 68 25 26 c 0,73,74
 25 15 25 15 27 5 c 0,75,76
 40 -46 40 -46 112 -46 c 0,77,78
 205 -46 205 -46 266 39 c 0,79,80
 313 106 313 106 347 199 c 2,81,-1
 386 308 l 1,82,-1
 344 295 l 1,83,84
 322 173 322 173 249 65 c 0,85,86
 219 21 219 21 177.5 -3 c 128,-1,87
 136 -27 136 -27 91 -27 c 0,88,89
 88 -27 88 -27 83 -26.5 c 128,-1,90
 78 -26 78 -26 79.5 -22 c 128,-1,91
 81 -18 81 -18 84.5 -18.5 c 128,-1,92
 88 -19 88 -19 91 -19 c 0,93,94
 134 -19 134 -19 172.5 4 c 128,-1,95
 211 27 211 27 238 70 c 1,96,97
 301 165 301 165 327 291 c 1,0,1
639 474.5 m 128,-1,99
 585 505 585 505 502 508 c 1,100,101
 476 471 476 471 442 350 c 1,102,103
 500 376 500 376 545 408 c 0,104,105
 557 417 557 417 557 409 c 128,-1,106
 557 401 557 401 547 395 c 0,107,108
 486 353 486 353 436 330 c 1,109,110
 424 288 424 288 407 233 c 1,111,-1
 411 227 l 1,112,113
 454 232 454 232 455 232 c 0,114,115
 568 256 568 256 628 302 c 0,116,117
 693 351 693 351 693 397.5 c 128,-1,98
 693 444 693 444 639 474.5 c 128,-1,99
194 580 m 0,118,119
 116 580 116 580 83 510 c 0,120,121
 72 486 72 486 72 467 c 128,-1,122
 72 448 72 448 75 434 c 0,123,124
 84 385 84 385 137 361 c 1,125,126
 144 401 144 401 190.5 439 c 128,-1,127
 237 477 237 477 317 499 c 1,128,129
 298 537 298 537 265 558.5 c 128,-1,130
 232 580 232 580 194 580 c 0,118,119
332 315 m 1,131,132
 338 354 338 354 338 397.5 c 128,-1,133
 338 441 338 441 324 482 c 1,134,135
 257 459 257 459 211 422.5 c 128,-1,136
 165 386 165 386 156 354 c 1,137,138
 171 350 171 350 185 350 c 0,139,140
 226 350 226 350 256 380 c 0,141,142
 261 385 261 385 262 378 c 1,143,-1
 261 374 l 1,144,145
 229 342 229 342 186 342 c 0,146,147
 171 342 171 342 154 346 c 1,148,149
 151 321 151 321 178 309 c 0,150,151
 195 301 195 301 218 301 c 0,152,153
 276 301 276 301 332 315 c 1,131,132
333 485 m 1,154,155
 352 440 352 440 352 395.5 c 128,-1,156
 352 351 352 351 347 318 c 1,157,158
 367 323 367 323 394 332 c 1,159,160
 439 459 439 459 479 509 c 1,161,162
 402 508 402 508 333 485 c 1,154,155
EndSplineSet
EndChar

StartChar: S
Encoding: 83 83 56
Width: 520
GlyphClass: 2
Flags: W
LayerCount: 2
Fore
SplineSet
471 227 m 1,0,1
 503 179 503 179 503 135.5 c 128,-1,2
 503 92 503 92 464 48 c 0,3,4
 398 -25 398 -25 269 -50 c 1,5,6
 219 -61 219 -61 190.5 -61 c 128,-1,7
 162 -61 162 -61 151 -60 c 1,8,9
 158 -117 158 -117 187.5 -141.5 c 128,-1,10
 217 -166 217 -166 246 -166 c 0,11,12
 285 -166 285 -166 319.5 -140 c 128,-1,13
 354 -114 354 -114 358 -83 c 0,14,15
 358 -81 358 -81 360 -80 c 0,16,17
 366 -78 366 -78 366 -84 c 0,18,19
 362 -112 362 -112 338 -136 c 0,20,21
 297 -177 297 -177 233 -177 c 1,22,-1
 216 -176 l 1,23,24
 183 -173 183 -173 159 -142.5 c 128,-1,25
 135 -112 135 -112 132 -58 c 1,26,27
 81 -50 81 -50 52 -23.5 c 128,-1,28
 23 3 23 3 23 39 c 0,29,30
 23 99 23 99 64 137 c 1,31,32
 3 194 3 194 3 273.5 c 128,-1,33
 3 353 3 353 64 427 c 1,34,35
 106 473 106 473 158.5 493.5 c 128,-1,36
 211 514 211 514 259 514 c 0,37,38
 267 514 267 514 276 513 c 1,39,40
 337 560 337 560 417.5 560 c 128,-1,41
 498 560 498 560 533 511 c 1,42,43
 577 557 577 557 590 557 c 0,44,45
 595 557 595 557 595 553 c 128,-1,46
 595 549 595 549 579.5 538 c 128,-1,47
 564 527 564 527 540 502 c 1,48,49
 551 484 551 484 551 466.5 c 128,-1,50
 551 449 551 449 542 432 c 0,51,52
 525 398 525 398 488 398 c 0,53,54
 470 398 470 398 469 417 c 0,55,56
 467 449 467 449 518 495 c 1,57,58
 504 531 504 531 454 542 c 0,59,60
 437 545 437 545 411 545 c 0,61,62
 364 545 364 545 309 508 c 1,63,64
 389 490 389 490 416 427 c 0,65,66
 417 425 417 425 415.5 423 c 128,-1,67
 414 421 414 421 412 421 c 128,-1,68
 410 421 410 421 409 423 c 0,69,70
 381 486 381 486 303 502 c 1,71,72
 272 476 272 476 272 444 c 0,73,74
 272 399 272 399 321 357 c 1,75,-1
 346 337 l 1,76,77
 390 363 390 363 426 363 c 0,78,79
 464 363 464 363 481 327 c 0,80,81
 488 312 488 312 488 286.5 c 128,-1,82
 488 261 488 261 471 227 c 1,0,1
270 342 m 0,83,84
 226 387 226 387 226 428.5 c 128,-1,85
 226 470 226 470 268 506 c 1,86,87
 264 506 264 506 261 506 c 0,88,89
 156 506 156 506 81 423 c 0,90,91
 19 355 19 355 19 271 c 0,92,93
 19 196 19 196 71 143 c 1,94,95
 125 190 125 190 217 209 c 1,96,97
 254 264 254 264 289 294 c 2,98,-1
 309 311 l 1,99,100
 273 339 273 339 270 342 c 0,83,84
207 85 m 0,101,102
 183 85 183 85 168 87 c 1,103,104
 157 56 157 56 153 21.5 c 128,-1,105
 149 -13 149 -13 149 -39 c 1,106,107
 169 -43 169 -43 198.5 -43 c 128,-1,108
 228 -43 228 -43 268 -32 c 1,109,110
 366 -8 366 -8 416 50 c 0,111,112
 450 90 450 90 450 134 c 0,113,114
 450 162 450 162 440 183 c 1,115,116
 430 171 430 171 411 155 c 0,117,118
 329 85 329 85 207 85 c 0,101,102
203 92 m 0,119,120
 315 92 315 92 399 162 c 0,121,122
 419 179 419 179 434 197 c 1,123,124
 408 243 408 243 316 307 c 1,125,126
 295 289 295 289 294 288 c 0,127,128
 260 258 260 258 228 212 c 1,129,130
 258 216 258 216 275 216 c 128,-1,131
 292 216 292 216 302 214.5 c 128,-1,132
 312 213 312 213 311 204 c 0,133,134
 310 199 310 199 299 201 c 128,-1,135
 288 203 288 203 267 203 c 128,-1,136
 246 203 246 203 219 198 c 1,137,138
 188 147 188 147 170 94 c 1,139,-1
 188 92 l 2,140,141
 196 92 196 92 203 92 c 0,119,120
78 124 m 1,143,144
 53 93 53 93 53 54 c 0,145,146
 53 36 53 36 61 20 c 0,147,148
 79 -19 79 -19 131 -35 c 1,149,150
 131 19 131 19 155 89 c 1,151,142
 112 98 112 98 78 124 c 1,143,144
461 239 m 1,152,153
 476 272 476 272 476 297 c 128,-1,154
 476 322 476 322 461 338.5 c 128,-1,155
 446 355 446 355 420.5 355 c 128,-1,156
 395 355 395 355 353 332 c 1,157,158
 433 273 433 273 461 239 c 1,152,153
158 96 m 1,159,160
 178 148 178 148 208 196 c 1,161,162
 124 179 124 179 84 131 c 1,163,164
 114 105 114 105 158 96 c 1,159,160
524 484 m 1,165,166
 488 438 488 438 488 416 c 0,167,168
 488 408 488 408 495 408 c 0,169,170
 508 408 508 408 518.5 424 c 128,-1,171
 529 440 529 440 529 455.5 c 128,-1,172
 529 471 529 471 524 484 c 1,165,166
EndSplineSet
EndChar

StartChar: T
Encoding: 84 84 57
Width: 464
GlyphClass: 2
Flags: W
LayerCount: 2
Fore
SplineSet
26 2 m 0,0,1
 26 -64 26 -64 108 -64 c 0,2,3
 132 -64 132 -64 158 -57 c 1,4,5
 269 37 269 37 326 205 c 1,6,7
 358 296 358 296 358 365.5 c 128,-1,8
 358 435 358 435 335 488 c 1,9,10
 235 511 235 511 209.5 513.5 c 128,-1,11
 184 516 184 516 158 516 c 128,-1,12
 132 516 132 516 104 504 c 1,13,14
 94 475 94 475 94 452 c 0,15,16
 94 379 94 379 122 335 c 1,17,18
 128 334 128 334 139 334 c 0,19,20
 206 334 206 334 256 364 c 128,-1,21
 306 394 306 394 318 425 c 0,22,23
 321 435 321 435 325.5 430.5 c 128,-1,24
 330 426 330 426 327 419 c 0,25,26
 313 381 313 381 263.5 349 c 128,-1,27
 214 317 214 317 143 317 c 0,28,29
 141 317 141 317 139 317 c 2,30,-1
 135 317 l 1,31,32
 164 285 164 285 206 282 c 0,33,34
 210 282 210 282 209.5 279 c 128,-1,35
 209 276 209 276 205 276 c 0,36,37
 156 279 156 279 123 318 c 1,38,39
 70 323 70 323 36 354 c 0,40,41
 -2 390 -2 390 -2 427 c 128,-1,42
 -2 464 -2 464 25 496 c 128,-1,43
 52 528 52 528 110 538 c 1,44,45
 141 587 141 587 194 598 c 0,46,47
 202 599 202 599 217.5 599 c 128,-1,48
 233 599 233 599 264.5 587.5 c 128,-1,49
 296 576 296 576 324 538 c 1,50,51
 333 524 333 524 343 507 c 1,52,53
 479 472 479 472 498 468 c 1,54,55
 541 527 541 527 584 534 c 0,56,57
 590 535 590 535 590 531 c 0,58,59
 589 523 589 523 580 521 c 0,60,61
 551 516 551 516 522 464 c 1,62,63
 567 456 567 456 606 456 c 0,64,65
 706 456 706 456 763 506 c 0,66,67
 770 511 770 511 770 503 c 128,-1,68
 770 495 770 495 763 490 c 0,69,70
 711 444 711 444 605 444 c 0,71,72
 564 444 564 444 515 451 c 1,73,74
 497 414 497 414 461 314.5 c 128,-1,75
 425 215 425 215 404 168 c 0,76,77
 308 -50 308 -50 149 -74 c 1,78,79
 77 -128 77 -128 9 -128 c 0,80,81
 -19 -128 -19 -128 -19 -123 c 256,82,83
 -19 -118 -19 -118 -10.5 -119 c 128,-1,84
 -2 -120 -2 -120 10 -120 c 0,85,86
 71 -120 71 -120 133 -76 c 1,87,88
 125 -77 125 -77 108 -77 c 0,89,90
 30 -77 30 -77 12 -21 c 0,91,92
 7 -6 7 -6 7 9 c 0,93,94
 7 51 7 51 44 99 c 0,95,96
 119 196 119 196 270 212 c 0,97,98
 276 213 276 213 276 207 c 0,99,100
 275 201 275 201 269 199 c 1,101,102
 146 180 146 180 72 97 c 0,103,104
 26 46 26 46 26 2 c 0,0,1
353 484 m 1,105,106
 371 434 371 434 371 367 c 128,-1,107
 371 300 371 300 340 210 c 0,108,109
 286 49 286 49 180 -49 c 1,110,111
 278 -6 278 -6 361 181 c 0,112,113
 372 206 372 206 400 272 c 0,114,115
 457 406 457 406 489 455 c 1,116,117
 418 467 418 467 353 484 c 1,105,106
311 530 m 1,118,119
 284 566 284 566 255 578 c 128,-1,120
 226 590 226 590 213 590 c 0,121,122
 153 590 153 590 121 540 c 1,123,124
 138 542 138 542 158 542 c 0,125,126
 214 542 214 542 323 513 c 1,127,-1
 311 530 l 1,118,119
109 337 m 1,128,129
 82 381 82 381 82 438 c 0,130,131
 82 469 82 469 92 499 c 1,132,133
 37 473 37 473 37 420 c 0,134,135
 37 399 37 399 50 378 c 0,136,137
 69 347 69 347 109 337 c 1,128,129
EndSplineSet
EndChar

StartChar: U
Encoding: 85 85 58
Width: 707
GlyphClass: 2
Flags: W
LayerCount: 2
Fore
SplineSet
-27 398 m 1,0,1
 -46 425 -46 425 -46 455 c 128,-1,2
 -46 485 -46 485 -23.5 517.5 c 128,-1,3
 -1 550 -1 550 44 566 c 0,4,5
 66 574 66 574 87 574 c 128,-1,6
 108 574 108 574 129 566 c 0,7,8
 134 564 134 564 132 560 c 1,9,10
 130 559 130 559 127 559 c 1,11,12
 106 567 106 567 86 567 c 0,13,14
 48 567 48 567 5 534.5 c 128,-1,15
 -38 502 -38 502 -38 455 c 0,16,17
 -38 444 -38 444 -34 430.5 c 128,-1,18
 -30 417 -30 417 -23 405 c 1,19,20
 1 448 1 448 50 482 c 0,21,22
 142 546 142 546 242 546 c 0,23,24
 309 546 309 546 346 514 c 1,25,26
 386 523 386 523 411 523 c 128,-1,27
 436 523 436 523 463.5 510 c 128,-1,28
 491 497 491 497 498 471 c 0,29,30
 500 467 500 467 500 463 c 0,31,32
 500 439 500 439 467.5 411 c 128,-1,33
 435 383 435 383 376 362 c 1,34,35
 365 319 365 319 330 251.5 c 128,-1,36
 295 184 295 184 274.5 132 c 128,-1,37
 254 80 254 80 254 41 c 0,38,39
 254 31 254 31 255 21 c 1,40,41
 322 34 322 34 366 78 c 1,42,43
 404 114 404 114 414 164 c 0,44,45
 417 174 417 174 417 183 c 0,46,47
 417 211 417 211 401 221 c 0,48,49
 395 225 395 225 398.5 226.5 c 128,-1,50
 402 228 402 228 404 227 c 0,51,52
 427 213 427 213 427 173 c 0,53,54
 427 125 427 125 388 78 c 0,55,56
 341 21 341 21 258 7 c 1,57,58
 267 -30 267 -30 306 -30 c 0,59,60
 383 -30 383 -30 479 131 c 0,61,62
 511 184 511 184 558 296 c 128,-1,63
 605 408 605 408 645 529 c 1,64,65
 647 540 647 540 662 543 c 128,-1,66
 677 546 677 546 690.5 539 c 128,-1,67
 704 532 704 532 702 519 c 1,68,69
 591 257 591 257 591 88 c 0,70,71
 591 -11 591 -11 630 -10 c 0,72,73
 647 -9 647 -9 668 12 c 128,-1,74
 689 33 689 33 703 70 c 0,75,76
 704 72 704 72 707 72 c 0,77,78
 713 74 713 74 713 68 c 0,79,80
 713 39 713 39 671 -5 c 1,81,82
 645 -34 645 -34 618 -34 c 0,83,84
 605 -34 605 -34 592 -27 c 0,85,86
 551 -6 551 -6 549 68 c 0,87,88
 549 77 549 77 549 111 c 128,-1,89
 549 145 549 145 562 241 c 1,90,91
 515 156 515 156 497 127 c 0,92,93
 388 -50 388 -50 303 -50 c 0,94,95
 243 -50 243 -50 224 4 c 1,96,97
 222 4 222 4 219 4 c 0,98,99
 177 4 177 4 139 21 c 0,100,101
 63 55 63 55 40 144 c 0,102,103
 35 164 35 164 35 187 c 0,104,105
 35 261 35 261 83 334 c 1,106,107
 28 346 28 346 -5 375 c 1,108,109
 -19 348 -19 348 -19 329.5 c 128,-1,110
 -19 311 -19 311 -17 298 c 128,-1,111
 -15 285 -15 285 -1.5 269 c 128,-1,112
 12 253 12 253 36 244 c 0,113,114
 41 242 41 242 37.5 238 c 128,-1,115
 34 234 34 234 28 237 c 0,116,117
 -32 268 -32 268 -40 311 c 0,118,119
 -42 323 -42 323 -42 344 c 128,-1,120
 -42 365 -42 365 -27 398 c 1,0,1
221 16 m 1,121,122
 217 32 217 32 217 59.5 c 128,-1,123
 217 87 217 87 232 133 c 128,-1,124
 247 179 247 179 283.5 247 c 128,-1,125
 320 315 320 315 332 349 c 1,126,127
 239 324 239 324 167 324 c 0,128,129
 139 324 139 324 125 326.5 c 128,-1,130
 111 329 111 329 105 329 c 1,131,132
 50 244 50 244 50 173 c 128,-1,133
 50 102 50 102 98 59 c 128,-1,134
 146 16 146 16 212 16 c 0,135,136
 216 16 216 16 221 16 c 1,121,122
251 530 m 0,137,138
 153 530 153 530 62 456 c 0,139,140
 19 421 19 421 -2 382 c 1,141,142
 32 354 32 354 88 341 c 1,143,144
 108 368 108 368 114 375 c 0,145,146
 194 467 194 467 318 506 c 1,147,148
 293 530 293 530 251 530 c 0,137,138
110 337 m 1,149,150
 131 332 131 332 165 332 c 0,151,152
 244 332 244 332 335 359 c 1,153,154
 347 394 347 394 347 417 c 128,-1,155
 347 440 347 440 344 459 c 128,-1,156
 341 478 341 478 326 498 c 1,157,158
 211 459 211 459 130 362 c 1,159,-1
 110 337 l 1,149,150
354 506 m 1,160,161
 384 470 384 470 384 419 c 0,162,163
 384 397 384 397 378 372 c 1,164,165
 435 394 435 394 459 415 c 1,166,167
 490 444 490 444 490 467 c 0,168,169
 490 479 490 479 481 489 c 0,170,171
 458 515 458 515 414 515 c 0,172,173
 409 515 409 515 390.5 513 c 128,-1,174
 372 511 372 511 354 506 c 1,160,161
EndSplineSet
EndChar

StartChar: V
Encoding: 86 86 59
Width: 543
GlyphClass: 2
Flags: W
LayerCount: 2
Fore
SplineSet
247 545 m 1,0,1
 205 587 205 587 162 587 c 0,2,3
 139 587 139 587 120 572 c 0,4,5
 88 548 88 548 88 504 c 0,6,7
 88 490 88 490 92 473 c 1,8,9
 165 538 165 538 247 545 c 1,0,1
238 532 m 0,11,12
 164 532 164 532 96 457 c 1,13,14
 117 389 117 389 186 358 c 0,15,16
 239 334 239 334 299 334 c 0,17,18
 318 334 318 334 338 336 c 1,19,20
 320 461 320 461 260 531 c 1,21,10
 253 532 253 532 238 532 c 0,11,12
274 528 m 1,22,23
 334 456 334 456 352 338 c 1,24,25
 376 342 376 342 386 346 c 1,26,27
 372 502 372 502 274 528 c 1,22,23
1 290 m 0,28,29
 1 383 1 383 79 461 c 1,30,31
 74 479 74 479 74 501 c 128,-1,32
 74 523 74 523 87 547 c 0,33,34
 111 593 111 593 159 593 c 0,35,36
 189 593 189 593 216 577 c 128,-1,37
 243 561 243 561 258 545 c 1,38,-1
 263 545 l 2,39,40
 264 545 264 545 266 545 c 0,41,42
 340 545 340 545 377.5 494 c 128,-1,43
 415 443 415 443 421 358 c 1,44,45
 502 393 502 393 531 460 c 0,46,47
 538 475 538 475 538 490 c 128,-1,48
 538 505 538 505 532 510.5 c 128,-1,49
 526 516 526 516 530 517.5 c 128,-1,50
 534 519 534 519 540 514 c 0,51,52
 548 507 548 507 548 488.5 c 128,-1,53
 548 470 548 470 542 457 c 0,54,55
 511 383 511 383 422 348 c 1,56,57
 423 335 423 335 423 322 c 0,58,59
 423 247 423 247 401.5 154.5 c 128,-1,60
 380 62 380 62 347 -3 c 1,61,62
 365 7 365 7 387.5 44.5 c 128,-1,63
 410 82 410 82 425 108.5 c 128,-1,64
 440 135 440 135 443.5 141 c 128,-1,65
 447 147 447 147 471 187.5 c 128,-1,66
 495 228 495 228 511 254.5 c 128,-1,67
 527 281 527 281 557 327.5 c 128,-1,68
 587 374 587 374 610.5 406 c 128,-1,69
 634 438 634 438 666.5 476.5 c 128,-1,70
 699 515 699 515 726 538.5 c 128,-1,71
 753 562 753 562 783 578 c 128,-1,72
 813 594 813 594 838 594 c 128,-1,73
 863 594 863 594 877.5 575 c 128,-1,74
 892 556 892 556 892 536 c 128,-1,75
 892 516 892 516 887 516.5 c 128,-1,76
 882 517 882 517 882 524 c 0,77,78
 882 567 882 567 836 567 c 0,79,80
 756 567 756 567 636 402 c 0,81,82
 530 256 530 256 438 102 c 0,83,84
 436 100 436 100 429 89.5 c 128,-1,85
 422 79 422 79 415.5 69.5 c 128,-1,86
 409 60 409 60 400 47 c 128,-1,87
 391 34 391 34 382.5 24 c 128,-1,88
 374 14 374 14 366 4 c 1,89,90
 347 -16 347 -16 337 -16 c 0,91,92
 329 -16 329 -16 333 -10 c 1,93,94
 359 52 359 52 374 138.5 c 128,-1,95
 389 225 389 225 389 270 c 128,-1,96
 389 315 389 315 387 337 c 1,97,98
 378 335 378 335 353 330 c 1,99,100
 358 289 358 289 358 231.5 c 128,-1,101
 358 174 358 174 342 100 c 1,102,103
 315 -17 315 -17 258 -85 c 0,104,105
 256 -87 256 -87 254 -87 c 128,-1,106
 252 -87 252 -87 251 -84.5 c 128,-1,107
 250 -82 250 -82 252 -80 c 0,108,109
 304 -17 304 -17 328 99 c 0,110,111
 344 173 344 173 344 230 c 128,-1,112
 344 287 344 287 339 328 c 1,113,114
 320 326 320 326 302 326 c 0,115,116
 239 326 239 326 182 350 c 0,117,118
 109 381 109 381 85 444 c 1,119,120
 27 373 27 373 27 292 c 0,121,122
 27 259 27 259 45.5 231 c 128,-1,123
 64 203 64 203 102.5 203 c 128,-1,124
 141 203 141 203 169 224.5 c 128,-1,125
 197 246 197 246 206 260 c 128,-1,126
 215 274 215 274 215 266 c 0,127,128
 214 243 214 243 171.5 212.5 c 128,-1,129
 129 182 129 182 86.5 182 c 128,-1,130
 44 182 44 182 22.5 216 c 128,-1,131
 1 250 1 250 1 290 c 0,28,29
EndSplineSet
EndChar

StartChar: W
Encoding: 87 87 60
Width: 816
GlyphClass: 2
Flags: W
LayerCount: 2
Fore
SplineSet
591 439 m 0,0,1
 591 462 591 462 579 461 c 0,2,3
 561 459 561 459 552 427 c 128,-1,4
 543 395 543 395 543 370 c 128,-1,5
 543 345 543 345 545 305 c 1,6,7
 591 397 591 397 591 439 c 0,0,1
77 15 m 0,8,9
 38 -41 38 -41 38 -84 c 0,10,11
 38 -97 38 -97 47 -108 c 0,12,13
 60 -123 60 -123 80.5 -123 c 128,-1,14
 101 -123 101 -123 127.5 -107 c 128,-1,15
 154 -91 154 -91 178 -57 c 0,16,17
 238 28 238 28 273 176 c 1,18,19
 148 114 148 114 77 15 c 0,8,9
505 230 m 1,20,21
 455 228 455 228 427 224.5 c 128,-1,22
 399 221 399 221 369 212 c 1,23,24
 336 90 336 90 267 -49 c 1,25,26
 278 -46 278 -46 285 -39 c 0,27,28
 345 20 345 20 409 96.5 c 128,-1,29
 473 173 473 173 505 229 c 1,30,-1
 505 230 l 1,20,21
552 229 m 1,31,32
 560 161 560 161 563.5 135.5 c 128,-1,33
 567 110 567 110 567 71.5 c 128,-1,34
 567 33 567 33 555 0 c 1,35,36
 571 23 571 23 625.5 84.5 c 128,-1,37
 680 146 680 146 709 184 c 1,38,39
 649 222 649 222 552 229 c 1,31,32
883 468 m 0,40,41
 883 368 883 368 730 184 c 1,42,43
 780 144 780 144 780 97 c 0,44,45
 780 43 780 43 726 24 c 0,46,47
 711 19 711 19 699 19 c 0,48,49
 673 19 673 19 656 42 c 0,50,51
 655 44 655 44 656 46 c 128,-1,52
 657 48 657 48 659 48 c 128,-1,53
 661 48 661 48 663 46 c 0,54,55
 676 26 676 26 693 26 c 128,-1,56
 710 26 710 26 722 31 c 0,57,58
 762 45 762 45 770 81 c 0,59,60
 771 88 771 88 771 94 c 0,61,62
 771 136 771 136 722 175 c 1,63,64
 694 142 694 142 654 98 c 0,65,66
 564 0 564 0 550 -24 c 0,67,68
 543 -36 543 -36 540 -15 c 0,69,70
 538 -5 538 -5 538 18.5 c 128,-1,71
 538 42 538 42 523.5 117 c 128,-1,72
 509 192 509 192 507 211 c 1,73,74
 471 155 471 155 403.5 71 c 128,-1,75
 336 -13 336 -13 285 -56 c 0,76,77
 264 -73 264 -73 257 -73 c 0,78,79
 242 -73 242 -73 250 -55 c 0,80,81
 309 88 309 88 332 201 c 1,82,83
 309 193 309 193 290 184 c 1,84,85
 255 37 255 37 184 -62 c 1,86,87
 133 -135 133 -135 71 -135 c 0,88,89
 35 -135 35 -135 25 -103 c 0,90,91
 22 -93 22 -93 22 -82 c 0,92,93
 22 -44 22 -44 60 10 c 0,94,95
 135 115 135 115 275 185 c 1,96,97
 291 260 291 260 291 301.5 c 128,-1,98
 291 343 291 343 287.5 375 c 128,-1,99
 284 407 284 407 268 433.5 c 128,-1,100
 252 460 252 460 232.5 466.5 c 128,-1,101
 213 473 213 473 203 473 c 0,102,103
 174 473 174 473 153 463 c 0,104,105
 148 460 148 460 147.5 464.5 c 128,-1,106
 147 469 147 469 150 470 c 0,107,108
 172 481 172 481 194 481 c 128,-1,109
 216 481 216 481 238.5 474 c 128,-1,110
 261 467 261 467 280 438 c 0,111,112
 305 399 305 399 305 329 c 128,-1,113
 305 259 305 259 292 194 c 1,114,-1
 292 193 l 1,115,116
 313 204 313 204 334 211 c 1,117,118
 345 271 345 271 345 323.5 c 128,-1,119
 345 376 345 376 331 417 c 0,120,121
 301 501 301 501 220.5 501 c 128,-1,122
 140 501 140 501 78 435.5 c 128,-1,123
 16 370 16 370 16 292 c 0,124,125
 16 254 16 254 34 230.5 c 128,-1,126
 52 207 52 207 88 207 c 128,-1,127
 124 207 124 207 159.5 231 c 128,-1,128
 195 255 195 255 217 287 c 1,129,-1
 221 291 l 1,130,131
 223 291 223 291 223 288.5 c 128,-1,132
 223 286 223 286 221 282 c 0,133,134
 200 248 200 248 156 218.5 c 128,-1,135
 112 189 112 189 73 189 c 128,-1,136
 34 189 34 189 13.5 216 c 128,-1,137
 -7 243 -7 243 -7 288 c 128,-1,138
 -7 333 -7 333 13 375 c 0,139,140
 41 436 41 436 104.5 476.5 c 128,-1,141
 168 517 168 517 232 517 c 0,142,143
 355 517 355 517 380 426 c 0,144,145
 390 390 390 390 390 366 c 128,-1,146
 390 342 390 342 388.5 313 c 128,-1,147
 387 284 387 284 372 224 c 1,148,149
 432 243 432 243 504 243 c 1,150,151
 504 254 504 254 504 287 c 128,-1,152
 504 320 504 320 517.5 383.5 c 128,-1,153
 531 447 531 447 563 465 c 0,154,155
 571 470 571 470 579 470 c 0,156,157
 606 470 606 470 606 435 c 0,158,159
 606 387 606 387 547 286 c 1,160,161
 547 283 547 283 551 243 c 1,162,163
 653 238 653 238 717 194 c 1,164,165
 836 352 836 352 836 481 c 0,166,167
 836 523 836 523 817.5 547.5 c 128,-1,168
 799 572 799 572 757 585 c 0,169,170
 748 588 748 588 748 594 c 1,171,172
 747 599 747 599 752.5 599 c 128,-1,173
 758 599 758 599 766 596 c 0,174,175
 827 576 827 576 855 541.5 c 128,-1,176
 883 507 883 507 883 468 c 0,40,41
EndSplineSet
EndChar

StartChar: X
Encoding: 88 88 61
Width: 577
GlyphClass: 2
Flags: W
LayerCount: 2
Fore
SplineSet
-22 274 m 0,0,1
 -22 366 -22 366 70 455 c 1,2,3
 63 481 63 481 63 499 c 0,4,5
 63 550 63 550 94 576 c 1,6,7
 110 588 110 588 124 588 c 0,8,9
 186 588 186 588 226 535 c 1,10,11
 242 537 242 537 260.5 537 c 128,-1,12
 279 537 279 537 302.5 528.5 c 128,-1,13
 326 520 326 520 339 492.5 c 128,-1,14
 352 465 352 465 356.5 438.5 c 128,-1,15
 361 412 361 412 362 370 c 1,16,17
 403 396 403 396 419 427.5 c 128,-1,18
 435 459 435 459 435 471.5 c 128,-1,19
 435 484 435 484 432.5 489 c 128,-1,20
 430 494 430 494 434 496 c 128,-1,21
 438 498 438 498 442 490.5 c 128,-1,22
 446 483 446 483 446 466 c 128,-1,23
 446 449 446 449 434 425 c 0,24,25
 413 384 413 384 363 358 c 1,26,27
 363 340 363 340 365 304 c 1,28,-1
 534 439 l 1,29,30
 612 500 612 500 649.5 542.5 c 128,-1,31
 687 585 687 585 708 587 c 0,32,33
 714 587 714 587 714 579 c 0,34,35
 714 556 714 556 567 443 c 1,36,37
 412 326 412 326 366 288 c 1,38,-1
 366 210 l 2,39,40
 366 113 366 113 373.5 81.5 c 128,-1,41
 381 50 381 50 388 30 c 0,42,43
 404 -10 404 -10 432.5 -8 c 128,-1,44
 461 -6 461 -6 484 8.5 c 128,-1,45
 507 23 507 23 520.5 36 c 128,-1,46
 534 49 534 49 563 86 c 0,47,48
 569 93 569 93 573.5 89 c 128,-1,49
 578 85 578 85 571 76 c 0,50,51
 532 30 532 30 486 -9 c 0,52,53
 436 -51 436 -51 402 -51 c 0,54,55
 365 -51 365 -51 348 -5 c 0,56,57
 331 43 331 43 328 88 c 0,58,59
 324 164 324 164 324 190 c 1,60,-1
 326 236 l 2,61,62
 326 246 326 246 325 253 c 1,63,-1
 288 222 l 1,64,-1
 290 161 l 1,65,66
 290 46 290 46 306 -3.5 c 128,-1,67
 322 -53 322 -53 341 -65 c 128,-1,68
 360 -77 360 -77 379 -77 c 0,69,70
 415 -77 415 -77 441 -52 c 0,71,72
 444 -49 444 -49 447 -52 c 128,-1,73
 450 -55 450 -55 447 -58 c 0,74,75
 413 -87 413 -87 384.5 -87 c 128,-1,76
 356 -87 356 -87 338.5 -78 c 128,-1,77
 321 -69 321 -69 310.5 -50.5 c 128,-1,78
 300 -32 300 -32 293.5 -13.5 c 128,-1,79
 287 5 287 5 284 32.5 c 128,-1,80
 281 60 281 60 279.5 78.5 c 128,-1,81
 278 97 278 97 278 124 c 128,-1,82
 278 151 278 151 277 164 c 128,-1,83
 276 177 276 177 276 211 c 1,84,85
 67 30 67 30 -20 -129 c 0,86,87
 -42 -169 -42 -169 -61 -169 c 0,88,89
 -67 -169 -67 -169 -67 -157.5 c 128,-1,90
 -67 -146 -67 -146 -57 -132 c 1,91,92
 51 41 51 41 276 230 c 1,93,94
 276 314 276 314 275 332 c 1,95,96
 264 331 264 331 254 331 c 0,97,98
 116 331 116 331 75 438 c 1,99,100
 6 363 6 363 6 279 c 0,101,102
 6 246 6 246 25.5 219 c 128,-1,103
 45 192 45 192 86 192 c 128,-1,104
 127 192 127 192 156.5 213 c 128,-1,105
 186 234 186 234 195 246.5 c 128,-1,106
 204 259 204 259 205 254 c 1,107,108
 199 228 199 228 156.5 200 c 128,-1,109
 114 172 114 172 68.5 172 c 128,-1,110
 23 172 23 172 0.5 204.5 c 128,-1,111
 -22 237 -22 237 -22 274 c 0,0,1
122 382 m 128,-1,113
 151 355 151 355 189.5 347 c 128,-1,114
 228 339 228 339 246.5 339 c 128,-1,115
 265 339 265 339 275 340 c 1,116,117
 270 459 270 459 229 518 c 1,118,119
 152 518 152 518 81 445 c 1,120,112
 93 409 93 409 122 382 c 128,-1,113
217 533 m 1,121,122
 180 576 180 576 143 576 c 0,123,124
 123 576 123 576 104 562 c 1,125,126
 73 536 73 536 73 493 c 0,127,128
 73 478 73 478 77 461 c 1,129,130
 141 518 141 518 211 532 c 0,131,132
 212 532 212 532 214 532.5 c 128,-1,133
 216 533 216 533 217 533 c 1,121,122
238 518 m 1,134,135
 275 457 275 457 284 341 c 1,136,137
 304 344 304 344 323 350 c 1,138,139
 320 467 320 467 280 500 c 0,140,141
 263 515 263 515 238 518 c 1,134,135
323 342 m 1,142,143
 304 336 304 336 285 333 c 1,144,145
 288 291 288 291 288 240 c 1,146,-1
 324 270 l 1,147,148
 323 290 323 290 323 342 c 1,142,143
EndSplineSet
EndChar

StartChar: Y
Encoding: 89 89 62
Width: 707
GlyphClass: 2
Flags: W
LayerCount: 2
Fore
SplineSet
283 528 m 1,0,1
 358 444 358 444 369 339 c 1,2,-1
 395 344 l 1,3,4
 378 500 378 500 283 528 c 1,0,1
247 545 m 1,5,6
 203 582 203 582 159 582 c 0,7,8
 123 582 123 582 96 550 c 0,9,10
 81 533 81 533 81 506.5 c 128,-1,11
 81 480 81 480 96 451 c 1,12,13
 157 533 157 533 247 545 c 1,5,6
322 336 m 0,14,15
 340 336 340 336 358 338 c 1,16,17
 347 421 347 421 292 497 c 0,18,19
 275 519 275 519 261 533 c 1,20,21
 254 534 254 534 247 534 c 1,22,-1
 175 512 l 1,23,24
 132 487 132 487 104 439 c 1,25,26
 130 400 130 400 186.5 368 c 128,-1,27
 243 336 243 336 322 336 c 0,14,15
44 -244 m 1,28,29
 83 -179 83 -179 224 -116 c 1,30,31
 212 -94 212 -94 188 -76 c 0,32,33
 162 -56 162 -56 130 -56 c 0,34,35
 70 -56 70 -56 36 -110 c 0,36,37
 21 -134 21 -134 21 -170 c 128,-1,38
 21 -206 21 -206 44 -244 c 1,28,29
58 -264 m 1,39,40
 106 -320 106 -320 185 -320 c 0,41,42
 245 -320 245 -320 312.5 -276.5 c 128,-1,43
 380 -233 380 -233 426 -160 c 1,44,45
 456 -115 456 -115 480 -35 c 1,46,47
 340 -90 340 -90 246 -136 c 1,48,49
 249 -150 249 -150 249 -174.5 c 128,-1,50
 249 -199 249 -199 230 -233 c 0,51,52
 229 -235 229 -235 226 -235 c 0,53,54
 221 -235 221 -235 223 -229 c 1,55,56
 238 -203 238 -203 238 -180.5 c 128,-1,57
 238 -158 238 -158 234 -142 c 1,58,59
 165 -174 165 -174 116 -207 c 1,60,61
 75 -237 75 -237 58 -264 c 1,39,40
186 -328 m 0,62,63
 102 -328 102 -328 53 -273 c 1,64,65
 47 -285 47 -285 47 -296.5 c 128,-1,66
 47 -308 47 -308 54 -319 c 0,67,68
 76 -357 76 -357 159 -357 c 0,69,70
 204 -357 204 -357 240 -345 c 1,71,72
 347 -317 347 -317 430 -227 c 128,-1,73
 513 -137 513 -137 538 -11 c 1,74,-1
 496 -28 l 1,75,76
 473 -114 473 -114 441 -164 c 1,77,78
 391 -239 391 -239 319.5 -283.5 c 128,-1,79
 248 -328 248 -328 186 -328 c 0,62,63
39 -254 m 1,80,81
 13 -213 13 -213 13 -173 c 0,82,83
 13 -102 13 -102 75 -60 c 0,84,85
 101 -42 101 -42 133 -42 c 0,86,87
 171 -42 171 -42 198.5 -63 c 128,-1,88
 226 -84 226 -84 238 -110 c 1,89,90
 300 -83 300 -83 378.5 -55 c 128,-1,91
 457 -27 457 -27 485 -16 c 1,92,93
 495 20 495 20 508 78 c 0,94,95
 550 269 550 269 564 256 c 1,96,97
 566 252 566 252 564 246 c 0,98,99
 544 203 544 203 526.5 113 c 128,-1,100
 509 23 509 23 501 -9 c 1,101,102
 533 3 533 3 541 7 c 1,103,104
 541 13 541 13 549 68 c 128,-1,105
 557 123 557 123 566.5 169.5 c 128,-1,106
 576 216 576 216 588 260 c 0,107,108
 615 367 615 367 660 449 c 1,109,110
 591 367 591 367 504 216 c 0,111,112
 465 150 465 150 455 134 c 0,113,114
 376 15 376 15 354 15 c 0,115,116
 351 15 351 15 349.5 17.5 c 128,-1,117
 348 20 348 20 350 22 c 1,118,119
 374 81 374 81 386 154.5 c 128,-1,120
 398 228 398 228 398 269 c 128,-1,121
 398 310 398 310 396 336 c 1,122,123
 387 334 387 334 373 332 c 1,124,-1
 369 332 l 1,125,126
 371 312 371 312 371 284 c 0,127,128
 371 156 371 156 327 21 c 0,129,130
 326 16 326 16 322.5 18 c 128,-1,131
 319 20 319 20 320 23 c 0,132,133
 349 112 349 112 357 217 c 1,134,135
 361 256 361 256 361 283.5 c 128,-1,136
 361 311 361 311 359 331 c 1,137,138
 339 329 339 329 320 329 c 0,139,140
 241 329 241 329 182.5 362 c 128,-1,141
 124 395 124 395 100 431 c 1,142,143
 96 425 96 425 84.5 397 c 128,-1,144
 73 369 73 369 73 341 c 128,-1,145
 73 313 73 313 87.5 290.5 c 128,-1,146
 102 268 102 268 140.5 268 c 128,-1,147
 179 268 179 268 215 317 c 0,148,149
 219 323 219 323 219 318 c 1,150,151
 212 296 212 296 182.5 274 c 128,-1,152
 153 252 153 252 119.5 252 c 128,-1,153
 86 252 86 252 69.5 278.5 c 128,-1,154
 53 305 53 305 53 335 c 0,155,156
 53 395 53 395 91 444 c 1,157,158
 75 472 75 472 75 498 c 128,-1,159
 75 524 75 524 84.5 542 c 128,-1,160
 94 560 94 560 112 573 c 0,161,162
 136 590 136 590 165 590 c 0,163,164
 214 590 214 590 264 547 c 1,165,166
 267 547 267 547 271 547 c 0,167,168
 318 547 318 547 357 519 c 0,169,170
 422 473 422 473 430 353 c 1,171,172
 474 368 474 368 501 392.5 c 128,-1,173
 528 417 528 417 530 449 c 0,174,175
 530 451 530 451 532 452 c 0,176,177
 538 455 538 455 538 448 c 0,178,179
 532 378 532 378 431 345 c 1,180,181
 432 332 432 332 432 318 c 0,182,183
 432 251 432 251 413.5 170.5 c 128,-1,184
 395 90 395 90 364 29 c 1,185,186
 382 37 382 37 415 94 c 0,187,188
 427 114 427 114 442 140.5 c 128,-1,189
 457 167 457 167 463 177 c 128,-1,190
 469 187 469 187 501 244.5 c 128,-1,191
 533 302 533 302 558 345 c 128,-1,192
 583 388 583 388 624 442.5 c 128,-1,193
 665 497 665 497 705 532 c 0,194,195
 714 540 714 540 720.5 537.5 c 128,-1,196
 727 535 727 535 727 530 c 128,-1,197
 727 525 727 525 722 517 c 0,198,199
 675 448 675 448 644.5 359 c 128,-1,200
 614 270 614 270 604.5 205.5 c 128,-1,201
 595 141 595 141 590 85.5 c 128,-1,202
 585 30 585 30 584 27 c 1,203,204
 612 39 612 39 647 59 c 128,-1,205
 682 79 682 79 681 74 c 0,206,207
 679 67 679 67 642 42.5 c 128,-1,208
 605 18 605 18 579 6 c 1,209,210
 556 -86 556 -86 502 -172 c 128,-1,211
 448 -258 448 -258 365 -315 c 0,212,213
 302 -358 302 -358 235 -376 c 0,214,215
 200 -386 200 -386 172 -386 c 0,216,217
 74 -386 74 -386 42 -331 c 0,218,219
 31 -313 31 -313 31 -293.5 c 128,-1,220
 31 -274 31 -274 39 -254 c 1,80,81
EndSplineSet
EndChar

StartChar: Z
Encoding: 90 90 63
Width: 546
GlyphClass: 2
Flags: W
LayerCount: 2
Fore
SplineSet
536 458 m 1,0,1
 281 475 281 475 241 475 c 128,-1,2
 201 475 201 475 163 459 c 128,-1,3
 125 443 125 443 122 409 c 0,4,5
 120 396 120 396 125.5 384.5 c 128,-1,6
 131 373 131 373 131 372 c 0,7,8
 131 366 131 366 126 366 c 1,9,-1
 124 367 l 1,10,11
 112 387 112 387 112 399 c 0,12,13
 112 445 112 445 141.5 471.5 c 128,-1,14
 171 498 171 498 195.5 503 c 128,-1,15
 220 508 220 508 253 508 c 128,-1,16
 286 508 286 508 340.5 501.5 c 128,-1,17
 395 495 395 495 460 485 c 128,-1,18
 525 475 525 475 556 471 c 1,19,20
 594 492 594 492 621 492 c 128,-1,21
 648 492 648 492 648 481 c 0,22,23
 648 458 648 458 551 458 c 1,24,25
 491 413 491 413 411 324 c 1,26,27
 504 274 504 274 530 169 c 0,28,29
 538 138 538 138 538 109 c 0,30,31
 538 40 538 40 494 -17 c 1,32,33
 541 -10 541 -10 570 30 c 0,34,35
 588 54 588 54 588 75.5 c 128,-1,36
 588 97 588 97 582 108 c 128,-1,37
 576 119 576 119 581 122 c 1,38,39
 585 122 585 122 586 121 c 0,40,41
 597 98 597 98 597 70 c 128,-1,42
 597 42 597 42 570 10 c 1,43,44
 524 -41 524 -41 459 -52 c 1,45,46
 403 -96 403 -96 320 -109 c 0,47,48
 301 -112 301 -112 285 -112 c 0,49,50
 237 -112 237 -112 213.5 -86.5 c 128,-1,51
 190 -61 190 -61 190 -29 c 0,52,53
 190 -14 190 -14 195 3 c 1,54,-1
 151 18 l 1,55,56
 99 -25 99 -25 55 -25 c 0,57,58
 42 -25 42 -25 30 -22 c 0,59,60
 -2 -12 -2 -12 -2 12 c 128,-1,61
 -2 36 -2 36 35 48 c 0,62,63
 55 54 55 54 84.5 54 c 128,-1,64
 114 54 114 54 142 48 c 1,65,66
 143 49 143 49 196.5 118 c 128,-1,67
 250 187 250 187 276 218 c 1,68,69
 265 218 265 218 244 215 c 1,70,71
 208 170 208 170 164 128 c 128,-1,72
 120 86 120 86 84 86 c 0,73,74
 69 86 69 86 56 94 c 0,75,76
 30 111 30 111 30 151 c 0,77,78
 30 239 30 239 115 299 c 0,79,80
 188 351 188 351 300 351 c 0,81,82
 321 351 321 351 346 346 c 1,83,84
 425 427 425 427 453 440 c 0,85,86
 463 445 463 445 463 441.5 c 128,-1,87
 463 438 463 438 449.5 431 c 128,-1,88
 436 424 436 424 355 345 c 1,89,-1
 384 336 l 1,90,91
 465 414 465 414 536 458 c 1,0,1
208 31 m 1,92,93
 252 100 252 100 341 100 c 0,94,95
 390 100 390 100 399 78 c 0,96,97
 401 73 401 73 396 73 c 0,98,99
 393 73 393 73 392 75 c 0,100,101
 381 92 381 92 344 92 c 0,102,103
 257 92 257 92 215 29 c 1,104,105
 359 -19 359 -19 403 -19 c 1,106,-1
 452 -22 l 2,107,108
 465 -22 465 -22 474 -19 c 1,109,110
 523 40 523 40 523 114 c 0,111,112
 523 138 523 138 518 164 c 0,113,114
 496 270 496 270 406 317 c 1,115,116
 374 283 374 283 334 236 c 1,117,118
 397 234 397 234 439 224 c 1,119,120
 444 224 444 224 444 221 c 1,121,122
 443 219 443 219 439 219 c 2,123,-1
 436 219 l 1,124,125
 418 222 418 222 379 222 c 128,-1,126
 340 222 340 222 320 221 c 1,127,128
 293 192 293 192 240.5 125 c 128,-1,129
 188 58 188 58 174 41 c 1,130,131
 200 34 200 34 208 31 c 1,92,93
152 174 m 1,132,133
 150 171 150 171 155 162 c 1,134,-1
 154 161 l 1,135,136
 151 161 151 161 140 172 c 1,137,138
 135 181 135 181 136 191 c 0,139,140
 140 235 140 235 248 237 c 1,141,142
 316 316 316 316 339 340 c 1,143,144
 320 343 320 343 300 343 c 0,145,146
 159 343 159 343 82 251 c 0,147,148
 38 198 38 198 38 146.5 c 128,-1,149
 38 95 38 95 76 95 c 0,150,151
 109 95 109 95 158 141 c 0,152,153
 181 163 181 163 225 211 c 1,154,155
 153 198 153 198 152 174 c 1,132,133
197 -28 m 0,156,157
 197 -57 197 -57 220 -80.5 c 128,-1,158
 243 -104 243 -104 287 -104 c 0,159,160
 302 -104 302 -104 319 -101 c 0,161,162
 391 -89 391 -89 437 -54 c 1,163,164
 431 -54 431 -54 412 -54 c 128,-1,165
 393 -54 393 -54 350 -45 c 128,-1,166
 307 -36 307 -36 285 -28.5 c 128,-1,167
 263 -21 263 -21 202 1 c 1,168,169
 197 -14 197 -14 197 -28 c 0,156,157
124 25 m 1,170,171
 83 36 83 36 44 36 c 128,-1,172
 5 36 5 36 5 17 c 0,173,174
 5 2 5 2 29 -6 c 0,175,176
 42 -11 42 -11 55 -11 c 0,177,178
 91 -11 91 -11 124 25 c 1,170,171
263 238 m 1,179,-1
 292 237 l 1,180,181
 341 293 341 293 378 330 c 1,182,183
 362 336 362 336 349 338 c 1,184,185
 325 313 325 313 263 238 c 1,179,-1
EndSplineSet
EndChar

StartChar: bracketleft
Encoding: 91 91 64
Width: 585
GlyphClass: 2
Flags: W
LayerCount: 2
Fore
SplineSet
164 4 m 1,0,-1
 239 9 l 1,1,2
 268 9 268 9 268 -3 c 0,3,4
 268 -17 268 -17 158 -17 c 128,-1,5
 48 -17 48 -17 48 19 c 0,6,7
 48 95 48 95 109 241 c 128,-1,8
 170 387 170 387 255 520.5 c 128,-1,9
 340 654 340 654 402 699 c 0,10,11
 427 718 427 718 472 718 c 0,12,13
 573 718 573 718 573 697 c 0,14,15
 573 688 573 688 572 684 c 1,16,17
 568 683 568 683 558 683 c 2,18,-1
 486 687 l 1,19,20
 443 687 443 687 431 680 c 0,21,22
 405 664 405 664 370 620 c 1,23,24
 290 526 290 526 188.5 338 c 128,-1,25
 87 150 87 150 87 60 c 0,26,27
 87 4 87 4 164 4 c 1,0,-1
EndSplineSet
EndChar

StartChar: backslash
Encoding: 92 92 65
Width: 551
GlyphClass: 2
Flags: W
LayerCount: 2
Fore
SplineSet
523 -84 m 0,0,1
 523 -116 523 -116 497 -116 c 1,2,-1
 497 -96 l 2,3,4
 497 -11 497 -11 446 104.5 c 128,-1,5
 395 220 395 220 315 334 c 0,6,7
 160 555 160 555 10 709 c 1,8,9
 11 715 11 715 30.5 715 c 128,-1,10
 50 715 50 715 74.5 694.5 c 128,-1,11
 99 674 99 674 157 600 c 128,-1,12
 215 526 215 526 270 447 c 128,-1,13
 325 368 325 368 385.5 269.5 c 128,-1,14
 446 171 446 171 484.5 75.5 c 128,-1,15
 523 -20 523 -20 523 -84 c 0,0,1
EndSplineSet
EndChar

StartChar: bracketright
Encoding: 93 93 66
Width: 556
GlyphClass: 2
Flags: W
LayerCount: 2
Fore
SplineSet
465 716 m 1,0,-1
 492 717 l 2,1,2
 518 717 518 717 524 711 c 0,3,4
 538 699 538 699 538 679 c 0,5,6
 538 534 538 534 454.5 335 c 128,-1,7
 371 136 371 136 268 27 c 0,8,9
 226 -17 226 -17 93 -17 c 0,10,11
 45 -17 45 -17 32 -15 c 1,12,13
 52 3 52 3 63 5.5 c 128,-1,14
 74 8 74 8 77.5 8.5 c 128,-1,15
 81 9 81 9 95 8.5 c 128,-1,16
 109 8 109 8 136.5 8 c 128,-1,17
 164 8 164 8 198 19.5 c 128,-1,18
 232 31 232 31 259 63 c 0,19,20
 338 157 338 157 418.5 344.5 c 128,-1,21
 499 532 499 532 499 643 c 0,22,23
 499 656 499 656 495 680 c 1,24,25
 482 689 482 689 460 689 c 128,-1,26
 438 689 438 689 356 684 c 1,27,28
 388 716 388 716 465 716 c 1,0,-1
EndSplineSet
EndChar

StartChar: asciicircum
Encoding: 94 94 67
Width: 323
GlyphClass: 2
Flags: W
LayerCount: 2
Fore
SplineSet
91 245 m 1,0,1
 83 243 83 243 83 245.5 c 128,-1,2
 83 248 83 248 83.5 248 c 128,-1,3
 84 248 84 248 84 249 c 2,4,-1
 206 335 l 1,5,6
 221 337 221 337 228.5 337 c 128,-1,7
 236 337 236 337 237 335 c 2,8,-1
 267 249 l 1,9,10
 267 245 267 245 265 244 c 1,11,12
 252 244 252 244 250 249 c 1,13,-1
 213 307 l 1,14,-1
 105 249 l 1,15,16
 101 245 101 245 91 245 c 1,0,1
EndSplineSet
EndChar

StartChar: underscore
Encoding: 95 95 68
Width: 760
GlyphClass: 2
Flags: W
LayerCount: 2
Fore
SplineSet
40 -61 m 0,0,1
 21 -61 21 -61 21 -53 c 0,2,3
 21 -48 21 -48 34 -38 c 1,4,5
 49 -29 49 -29 60.5 -25 c 128,-1,6
 72 -21 72 -21 365 -21 c 128,-1,7
 658 -21 658 -21 701 -26 c 128,-1,8
 744 -31 744 -31 744 -38.5 c 128,-1,9
 744 -46 744 -46 714 -48 c 1,10,11
 514 -54 514 -54 501.5 -55.5 c 128,-1,12
 489 -57 489 -57 384 -58 c 0,13,14
 71 -61 71 -61 57.5 -61 c 128,-1,15
 44 -61 44 -61 40 -61 c 0,0,1
EndSplineSet
EndChar

StartChar: grave
Encoding: 96 96 69
Width: 245
GlyphClass: 2
Flags: W
LayerCount: 2
Fore
SplineSet
79 415 m 1,0,1
 73 421 73 421 73 433 c 128,-1,2
 73 445 73 445 82 445 c 0,3,4
 87 445 87 445 95 438.5 c 128,-1,5
 103 432 103 432 119 420 c 0,6,7
 145 402 145 402 181 373 c 0,8,9
 185 370 185 370 185 366 c 0,10,11
 185 359 185 359 177 359 c 0,12,13
 165 359 165 359 79 415 c 1,0,1
EndSplineSet
EndChar

StartChar: a
Encoding: 97 97 70
Width: 269
GlyphClass: 2
Flags: W
LayerCount: 2
Fore
SplineSet
108 142 m 0,0,1
 79 103 79 103 67 74 c 128,-1,2
 55 45 55 45 55 31 c 128,-1,3
 55 17 55 17 64 17 c 0,4,5
 91 17 91 17 173 137 c 1,6,7
 205 178 205 178 205 136 c 1,8,9
 203 110 203 110 203 92 c 0,10,11
 203 16 203 16 235 16 c 0,12,13
 269 16 269 16 318 71 c 0,14,15
 321 74 321 74 325 67 c 1,16,17
 322 60 322 60 304.5 42.5 c 128,-1,18
 287 25 287 25 261 11 c 128,-1,19
 235 -3 235 -3 221.5 -3 c 128,-1,20
 208 -3 208 -3 200 0 c 0,21,22
 163 13 163 13 163 102 c 1,23,24
 123 39 123 39 105 22 c 0,25,26
 77 -4 77 -4 59 -4 c 0,27,28
 58 -4 58 -4 56 -4 c 0,29,30
 23 1 23 1 23 40.5 c 128,-1,31
 23 80 23 80 48.5 128.5 c 128,-1,32
 74 177 74 177 116 216 c 128,-1,33
 158 255 158 255 200 255 c 0,34,35
 220 255 220 255 239 245 c 0,36,37
 256 235 256 235 256 213.5 c 128,-1,38
 256 192 256 192 237 189 c 1,39,40
 244 201 244 201 244 211.5 c 128,-1,41
 244 222 244 222 234 227 c 128,-1,42
 224 232 224 232 216 232 c 0,43,44
 173 232 173 232 108 142 c 0,0,1
EndSplineSet
EndChar

StartChar: b
Encoding: 98 98 71
Width: 259
GlyphClass: 2
Flags: W
LayerCount: 2
Fore
SplineSet
222 253 m 0,0,1
 253 253 253 253 253 217 c 0,2,3
 253 196 253 196 244 155 c 128,-1,4
 235 114 235 114 208 71.5 c 128,-1,5
 181 29 181 29 130 6 c 0,6,7
 99 -7 99 -7 78 -7 c 0,8,9
 17 -7 17 -7 17 36 c 0,10,11
 17 55 17 55 32 69 c 1,12,13
 39 4 39 4 81 4 c 0,14,15
 84 4 84 4 87 4 c 0,16,17
 112 8 112 8 140.5 35.5 c 128,-1,18
 169 63 169 63 190 107.5 c 128,-1,19
 211 152 211 152 211 192 c 0,20,21
 211 226 211 226 199 220 c 0,22,23
 153 197 153 197 120 145.5 c 128,-1,24
 87 94 87 94 86 43 c 0,25,26
 86 37 86 37 80 37 c 128,-1,27
 74 37 74 37 64 47.5 c 128,-1,28
 54 58 54 58 52 59 c 1,29,30
 52 106 52 106 76 206.5 c 128,-1,31
 100 307 100 307 142.5 388.5 c 128,-1,32
 185 470 185 470 238 503 c 0,33,34
 243 506 243 506 262 511 c 128,-1,35
 281 516 281 516 286 516 c 128,-1,36
 291 516 291 516 292 515 c 0,37,38
 320 508 320 508 334 486 c 0,39,40
 339 479 339 479 339 476 c 128,-1,41
 339 473 339 473 335 473 c 128,-1,42
 331 473 331 473 328 476 c 0,43,44
 306 494 306 494 276 494 c 0,45,46
 275 494 275 494 273 494 c 0,47,48
 226 493 226 493 161.5 341 c 128,-1,49
 97 189 97 189 92 124 c 1,50,51
 106 148 106 148 145 191 c 128,-1,52
 184 234 184 234 195.5 243.5 c 128,-1,53
 207 253 207 253 222 253 c 0,0,1
EndSplineSet
EndChar

StartChar: c
Encoding: 99 99 72
Width: 199
GlyphClass: 2
Flags: W
LayerCount: 2
Fore
SplineSet
61 -18 m 0,0,1
 13 -18 13 -18 13 50 c 0,2,3
 13 71 13 71 19 96 c 0,4,5
 39 172 39 172 92 229 c 0,6,7
 117 255 117 255 138.5 255 c 128,-1,8
 160 255 160 255 178 239 c 0,9,10
 183 235 183 235 187.5 223.5 c 128,-1,11
 192 212 192 212 189 205 c 256,12,13
 186 198 186 198 180 211 c 0,14,15
 174 222 174 222 158 222 c 0,16,17
 130 222 130 222 101 176 c 0,18,19
 48 91 48 91 48 41 c 0,20,21
 48 25 48 25 55.5 13 c 128,-1,22
 63 1 63 1 73 1 c 0,23,24
 134 1 134 1 201 78 c 0,25,26
 208 85 208 85 208 79 c 128,-1,27
 208 73 208 73 196.5 59 c 128,-1,28
 185 45 185 45 154 22 c 1,29,30
 103 -18 103 -18 61 -18 c 0,0,1
EndSplineSet
EndChar

StartChar: d
Encoding: 100 100 73
Width: 306
GlyphClass: 2
Flags: W
LayerCount: 2
Fore
SplineSet
248 202 m 1,0,1
 228 147 228 147 228 91.5 c 128,-1,2
 228 36 228 36 242 25 c 1,3,4
 247 23 247 23 256.5 23 c 128,-1,5
 266 23 266 23 288 35 c 128,-1,6
 310 47 310 47 329.5 63 c 128,-1,7
 349 79 349 79 350 77.5 c 128,-1,8
 351 76 351 76 351 74 c 0,9,10
 351 64 351 64 328 43 c 128,-1,11
 305 22 305 22 275.5 8.5 c 128,-1,12
 246 -5 246 -5 232.5 -5 c 128,-1,13
 219 -5 219 -5 213 -2.5 c 128,-1,14
 207 0 207 0 203 6 c 128,-1,15
 199 12 199 12 197.5 20.5 c 128,-1,16
 196 29 196 29 195 39.5 c 128,-1,17
 194 50 194 50 195 61 c 128,-1,18
 196 72 196 72 197 82.5 c 128,-1,19
 198 93 198 93 199.5 103 c 128,-1,20
 201 113 201 113 202 120 c 128,-1,21
 203 127 203 127 205 136 c 1,22,-1
 193 122 l 1,23,24
 93 -4 93 -4 58 -4 c 0,25,26
 56 -4 56 -4 55 -4 c 0,27,28
 23 1 23 1 23 40 c 0,29,30
 23 53 23 53 26 70 c 0,31,32
 42 140 42 140 96.5 197.5 c 128,-1,33
 151 255 151 255 198 255 c 0,34,35
 217 255 217 255 238 245 c 1,36,37
 252 276 252 276 278.5 354 c 128,-1,38
 305 432 305 432 334 447 c 0,39,40
 338 449 338 449 341 449 c 0,41,42
 352 449 352 449 349 424 c 0,43,44
 349 421 349 421 334 392 c 0,45,46
 285 295 285 295 271.5 260.5 c 128,-1,47
 258 226 258 226 256 222 c 1,48,49
 267 198 267 198 254 200 c 1,50,-1
 248 202 l 1,0,1
64 70 m 0,51,52
 54 45 54 45 54 31 c 128,-1,53
 54 17 54 17 63 17 c 0,54,55
 88 17 88 17 156 109 c 0,56,57
 190 155 190 155 210.5 188.5 c 128,-1,58
 231 222 231 222 231 228 c 128,-1,59
 231 234 231 234 210 234 c 128,-1,60
 189 234 189 234 138.5 182 c 128,-1,61
 88 130 88 130 64 70 c 0,51,52
EndSplineSet
EndChar

StartChar: e
Encoding: 101 101 74
Width: 225
GlyphClass: 2
Flags: W
LayerCount: 2
Fore
SplineSet
190 235 m 1,0,1
 209 220 209 220 209 197 c 128,-1,2
 209 174 209 174 187 144 c 1,3,-1
 207 144 l 2,4,5
 222 144 222 144 206 138.5 c 128,-1,6
 190 133 190 133 176 130 c 1,7,8
 166 118 166 118 153 108.5 c 128,-1,9
 140 99 140 99 141 107 c 1,10,-1
 146 116 l 1,11,-1
 156 127 l 1,12,13
 75 121 75 121 70 120 c 1,14,15
 59 93 59 93 59 62 c 128,-1,16
 59 31 59 31 74 18.5 c 128,-1,17
 89 6 89 6 100 6 c 0,18,19
 169 6 169 6 240 81 c 0,20,21
 249 90 249 90 249 80 c 0,22,23
 249 77 249 77 243 70 c 0,24,25
 223 46 223 46 187 24 c 0,26,27
 129 -13 129 -13 93.5 -13 c 128,-1,28
 58 -13 58 -13 37 6.5 c 128,-1,29
 16 26 16 26 16 66 c 0,30,31
 16 80 16 80 20.5 103 c 128,-1,32
 25 126 25 126 43.5 162.5 c 128,-1,33
 62 199 62 199 88.5 224.5 c 128,-1,34
 115 250 115 250 140.5 250 c 128,-1,35
 166 250 166 250 190 235 c 1,0,1
166 143 m 1,36,37
 183 178 183 178 183 199 c 128,-1,38
 183 220 183 220 165 220 c 128,-1,39
 147 220 147 220 121 195 c 128,-1,40
 95 170 95 170 80 141 c 1,41,42
 154 143 154 143 166 143 c 1,36,37
EndSplineSet
EndChar

StartChar: f
Encoding: 102 102 75
Width: 151
GlyphClass: 2
Flags: W
LayerCount: 2
Fore
SplineSet
205 234 m 2,0,1
 213 234 213 234 214 230.5 c 128,-1,2
 215 227 215 227 197 223 c 0,3,4
 138 211 138 211 110 211 c 1,5,6
 83 145 83 145 69.5 45.5 c 128,-1,7
 56 -54 56 -54 56 -101 c 0,8,9
 56 -171 56 -171 78 -193 c 0,10,11
 83 -198 83 -198 91.5 -202.5 c 128,-1,12
 100 -207 100 -207 96 -209 c 0,13,14
 91 -211 91 -211 80 -211 c 128,-1,15
 69 -211 69 -211 46 -196 c 128,-1,16
 23 -181 23 -181 19 -146 c 0,17,18
 17 -131 17 -131 17 -94 c 128,-1,19
 17 -57 17 -57 37.5 42.5 c 128,-1,20
 58 142 58 142 80 207 c 1,21,22
 75 206 75 206 70 206 c 0,23,24
 51 206 51 206 46.5 217 c 128,-1,25
 42 228 42 228 47.5 229 c 128,-1,26
 53 230 53 230 67.5 231 c 128,-1,27
 82 232 82 232 86 233 c 1,28,29
 136 362 136 362 168 414 c 0,30,31
 226 511 226 511 286 511 c 0,32,33
 297 511 297 511 308 508 c 0,34,35
 331 500 331 500 331 479 c 128,-1,36
 331 458 331 458 318 452 c 1,37,38
 323 469 323 469 316 478.5 c 128,-1,39
 309 488 309 488 294 488 c 0,40,41
 262 487 262 487 222 434 c 0,42,43
 154 343 154 343 117 234 c 1,44,-1
 205 234 l 2,0,1
EndSplineSet
EndChar

StartChar: g
Encoding: 103 103 76
Width: 258
GlyphClass: 2
Flags: W
LayerCount: 2
Fore
SplineSet
98.5 142.5 m 128,-1,1
 70 103 70 103 58 73.5 c 128,-1,2
 46 44 46 44 46 30.5 c 128,-1,3
 46 17 46 17 55 17 c 0,4,5
 82 17 82 17 164 137 c 1,6,7
 196 178 196 178 196 136 c 1,8,9
 195 129 195 129 195 118 c 0,10,11
 195 80 195 80 197 50 c 1,12,13
 224 68 224 68 248.5 90 c 128,-1,14
 273 112 273 112 273 105 c 128,-1,15
 273 98 273 98 260 84 c 0,16,17
 217 41 217 41 198 29 c 1,18,19
 202 -2 202 -2 202 -48.5 c 128,-1,20
 202 -95 202 -95 187 -154 c 0,21,22
 165 -244 165 -244 105 -309 c 0,23,24
 59 -358 59 -358 0 -382 c 1,25,26
 -39 -400 -39 -400 -84 -400 c 0,27,28
 -160 -400 -160 -400 -204 -356 c 1,29,30
 -234 -323 -234 -323 -234 -286 c 0,31,32
 -234 -209 -234 -209 -98 -120 c 1,33,34
 -38 -82 -38 -82 47 -36 c 128,-1,35
 132 10 132 10 171 34 c 1,36,37
 158 98 158 98 154 102 c 1,38,39
 114 39 114 39 96 22 c 0,40,41
 66 -6 66 -6 47 -4 c 0,42,43
 14 1 14 1 14 40.5 c 128,-1,44
 14 80 14 80 39.5 128.5 c 128,-1,45
 65 177 65 177 107 216 c 128,-1,46
 149 255 149 255 191 255 c 0,47,48
 211 255 211 255 230 245 c 0,49,50
 247 235 247 235 247 213.5 c 128,-1,51
 247 192 247 192 228 189 c 1,52,53
 235 201 235 201 235 211.5 c 128,-1,54
 235 222 235 222 225.5 227 c 128,-1,55
 216 232 216 232 207 232 c 0,56,57
 186 232 186 232 156.5 207 c 128,-1,0
 127 182 127 182 98.5 142.5 c 128,-1,1
-176 -226 m 0,58,59
 -216 -268 -216 -268 -216 -296 c 128,-1,60
 -216 -324 -216 -324 -196 -344 c 0,61,62
 -168 -372 -168 -372 -106 -372 c 0,63,64
 -59 -372 -59 -372 -6 -350 c 1,65,66
 59 -325 59 -325 107 -274 c 1,67,68
 181 -193 181 -193 181 -68 c 0,69,70
 181 -28 181 -28 174 16 c 1,71,72
 -110 -155 -110 -155 -176 -226 c 0,58,59
EndSplineSet
EndChar

StartChar: h
Encoding: 104 104 77
Width: 242
GlyphClass: 2
Flags: W
LayerCount: 2
Fore
SplineSet
164 88 m 0,0,1
 164 25 164 25 186 25 c 0,2,3
 216 25 216 25 268 90 c 0,4,5
 278 102 278 102 279.5 103.5 c 128,-1,6
 281 105 281 105 283 99 c 2,7,-1
 284 97 l 1,8,9
 276 77 276 77 235.5 37 c 128,-1,10
 195 -3 195 -3 167 -3 c 0,11,12
 157 -3 157 -3 148 2 c 0,13,14
 123 14 123 14 123 90 c 0,15,16
 123 102 123 102 125 123.5 c 128,-1,17
 127 145 127 145 129 147 c 0,18,19
 129 148 129 148 126.5 145.5 c 128,-1,20
 124 143 124 143 118.5 136.5 c 128,-1,21
 113 130 113 130 107 123 c 128,-1,22
 101 116 101 116 93 105 c 128,-1,23
 85 94 85 94 78 86 c 0,24,25
 60 66 60 66 50 50 c 1,26,27
 47 14 47 14 24 0 c 0,28,29
 19 -3 19 -3 16.5 -3 c 128,-1,30
 14 -3 14 -3 14 15.5 c 128,-1,31
 14 34 14 34 27 111 c 128,-1,32
 40 188 40 188 51 217 c 1,33,34
 20 209 20 209 18 192 c 0,35,36
 16 180 16 180 11.5 180.5 c 128,-1,37
 7 181 7 181 7 189 c 0,38,39
 7 220 7 220 58 235 c 1,40,41
 84 320 84 320 134 403 c 128,-1,42
 184 486 184 486 245 532 c 1,43,44
 306 580 306 580 369 580 c 0,45,46
 396 580 396 580 422 569 c 0,47,48
 461 552 461 552 477 512 c 0,49,50
 484 494 484 494 484 475 c 0,51,52
 484 417 484 417 427 374 c 0,53,54
 387 343 387 343 320 312.5 c 128,-1,55
 253 282 253 282 210.5 267.5 c 128,-1,56
 168 253 168 253 86 227 c 1,57,58
 70 184 70 184 52 67 c 1,59,60
 66 88 66 88 96 126.5 c 128,-1,61
 126 165 126 165 135 177 c 1,62,63
 140 199 140 199 158.5 212.5 c 128,-1,64
 177 226 177 226 177 207 c 0,65,66
 177 202 177 202 170.5 161 c 128,-1,67
 164 120 164 120 164 88 c 0,0,1
468 501 m 0,68,69
 449 551 449 551 373 551 c 0,70,71
 302 551 302 551 234 502 c 0,72,73
 204 481 204 481 167 426 c 0,74,75
 146 394 146 394 131.5 356.5 c 128,-1,76
 117 319 117 319 105.5 286.5 c 128,-1,77
 94 254 94 254 90 244 c 1,78,79
 157 263 157 263 263.5 312.5 c 128,-1,80
 370 362 370 362 421 401.5 c 128,-1,81
 472 441 472 441 472 479 c 0,82,83
 472 490 472 490 468 501 c 0,68,69
EndSplineSet
EndChar

StartChar: i
Encoding: 105 105 78
Width: 142
GlyphClass: 2
Flags: W
LayerCount: 2
Fore
SplineSet
138 307 m 0,0,1
 145 307 145 307 145 302.5 c 128,-1,2
 145 298 145 298 133 284 c 0,3,4
 107 252 107 252 82 272 c 0,5,6
 78 275 78 275 81 278 c 0,7,8
 116 307 116 307 138 307 c 0,0,1
61 53 m 0,9,10
 61 23 61 23 79 23 c 0,11,12
 89 23 89 23 128.5 55.5 c 128,-1,13
 168 88 168 88 171 91 c 128,-1,14
 174 94 174 94 176 92.5 c 128,-1,15
 178 91 178 91 178 89.5 c 128,-1,16
 178 88 178 88 177 86 c 0,17,18
 162 61 162 61 114 26 c 1,19,20
 82 0 82 0 60 0 c 0,21,22
 26 0 26 0 26 58 c 0,23,24
 26 69 26 69 28 89.5 c 128,-1,25
 30 110 30 110 60 216 c 0,26,27
 62 224 62 224 82.5 224 c 128,-1,28
 103 224 103 224 103 212.5 c 128,-1,29
 103 201 103 201 95.5 182.5 c 128,-1,30
 88 164 88 164 78 162 c 0,31,32
 73 161 73 161 67 112 c 128,-1,33
 61 63 61 63 61 53 c 0,9,10
EndSplineSet
EndChar

StartChar: j
Encoding: 106 106 79
Width: 138
GlyphClass: 2
Flags: W
LayerCount: 2
Fore
SplineSet
157 307 m 0,0,1
 164 307 164 307 164 302.5 c 128,-1,2
 164 298 164 298 152 284 c 0,3,4
 126 254 126 254 101 272 c 0,5,6
 96 275 96 275 99 278 c 0,7,8
 135 307 135 307 157 307 c 0,0,1
43 -61.5 m 128,-1,10
 30 -100 30 -100 12 -129.5 c 128,-1,11
 -6 -159 -6 -159 -36 -175 c 128,-1,12
 -66 -191 -66 -191 -86.5 -191 c 128,-1,13
 -107 -191 -107 -191 -122 -186 c 128,-1,14
 -137 -181 -137 -181 -137 -163 c 0,15,16
 -137 -142 -137 -142 -131 -141 c 0,17,18
 -127 -140 -127 -140 -127.5 -150 c 128,-1,19
 -128 -160 -128 -160 -118.5 -170.5 c 128,-1,20
 -109 -181 -109 -181 -92 -180 c 0,21,22
 -64 -179 -64 -179 -42 -153 c 128,-1,23
 -20 -127 -20 -127 -2.5 -89.5 c 128,-1,24
 15 -52 15 -52 27 -13 c 128,-1,25
 39 26 39 26 50 69.5 c 128,-1,26
 61 113 61 113 66.5 144.5 c 128,-1,27
 72 176 72 176 76 202 c 1,28,-1
 81 227 l 2,29,30
 82 232 82 232 89.5 232 c 128,-1,31
 97 232 97 232 108.5 227.5 c 128,-1,32
 120 223 120 223 120 220 c 2,33,-1
 118 210 l 1,34,35
 111 156 111 156 92 154 c 1,36,37
 88 134 88 134 78.5 86 c 128,-1,38
 69 38 69 38 62.5 7.5 c 128,-1,9
 56 -23 56 -23 43 -61.5 c 128,-1,10
EndSplineSet
EndChar

StartChar: k
Encoding: 107 107 80
Width: 207
GlyphClass: 2
Flags: W
LayerCount: 2
Fore
SplineSet
82 163 m 1,0,1
 156 287 156 287 245 287 c 0,2,3
 271 287 271 287 279 270 c 0,4,5
 282 265 282 265 277.5 263.5 c 128,-1,6
 273 262 273 262 269 267.5 c 128,-1,7
 265 273 265 273 249 270 c 0,8,9
 212 263 212 263 166.5 218.5 c 128,-1,10
 121 174 121 174 94 139 c 1,11,12
 117 97 117 97 163 55 c 128,-1,13
 209 13 209 13 244 5 c 0,14,15
 250 4 250 4 241 1 c 0,16,17
 224 -4 224 -4 210.5 -4 c 128,-1,18
 197 -4 197 -4 191 -1.5 c 128,-1,19
 185 1 185 1 179 3 c 128,-1,20
 173 5 173 5 170.5 6 c 128,-1,21
 168 7 168 7 163 10 c 128,-1,22
 158 13 158 13 154 16 c 0,23,24
 149 21 149 21 135 37 c 1,25,26
 104 77 104 77 82 122 c 1,27,28
 46 68 46 68 37 11 c 1,29,-1
 37 6 l 2,30,31
 37 -2 37 -2 32 -2 c 128,-1,32
 27 -2 27 -2 16 9.5 c 128,-1,33
 5 21 5 21 3 22 c 1,34,35
 3 54 3 54 20.5 145 c 128,-1,36
 38 236 38 236 63 317 c 0,37,38
 107 461 107 461 189 503 c 0,39,40
 214 516 214 516 239.5 516 c 128,-1,41
 265 516 265 516 285 486 c 0,42,43
 290 479 290 479 290 475 c 0,44,45
 290 469 290 469 279 476 c 1,46,47
 259 494 259 494 227 494 c 0,48,49
 226 494 226 494 224 494 c 0,50,51
 180 494 180 494 139 417 c 0,52,53
 66 280 66 280 41 71 c 1,54,55
 54 113 54 113 72 144 c 1,56,57
 68 152 68 152 68 156 c 0,58,59
 63 178 63 178 68.5 180 c 128,-1,60
 74 182 74 182 77 176 c 128,-1,61
 80 170 80 170 82 164 c 1,62,-1
 82 163 l 1,0,1
EndSplineSet
EndChar

StartChar: l
Encoding: 108 108 81
Width: 166
GlyphClass: 2
Flags: W
LayerCount: 2
Fore
SplineSet
83 181 m 1,0,1
 60 99 60 99 60 63 c 128,-1,2
 60 27 60 27 69.5 20 c 128,-1,3
 79 13 79 13 93 13 c 128,-1,4
 107 13 107 13 140 28 c 128,-1,5
 173 43 173 43 191 66 c 128,-1,6
 209 89 209 89 208 77 c 0,7,8
 207 67 207 67 202 59 c 0,9,10
 184 36 184 36 143 15.5 c 128,-1,11
 102 -5 102 -5 78 -5 c 0,12,13
 72 -5 72 -5 67 -4 c 0,14,15
 28 5 28 5 28 67 c 0,16,17
 28 96 28 96 37 138 c 1,18,19
 27 136 27 136 27 143 c 0,20,21
 27 152 27 152 45 171 c 1,22,23
 105 421 105 421 203 503 c 0,24,25
 225 521 225 521 243 521 c 0,26,27
 282 521 282 521 282 485 c 0,28,29
 280 405 280 405 208 316 c 0,30,31
 171 271 171 271 148.5 247 c 128,-1,32
 126 223 126 223 83 181 c 1,0,1
267 481 m 0,33,34
 267 506 267 506 254 506 c 0,35,36
 213 506 213 506 144 354 c 1,37,38
 104 263 104 263 86 203 c 1,39,40
 141 255 141 255 204 341 c 128,-1,41
 267 427 267 427 267 481 c 0,33,34
EndSplineSet
EndChar

StartChar: m
Encoding: 109 109 82
Width: 402
GlyphClass: 2
Flags: W
LayerCount: 2
Fore
SplineSet
339 -4 m 0,0,1
 282 -4 282 -4 282 81 c 0,2,3
 282 99 282 99 292 157 c 1,4,5
 232 93 232 93 204 55 c 1,6,7
 203 21 203 21 166 0 c 0,8,9
 149 -10 149 -10 149 -4 c 1,10,11
 158 23 158 23 168 90.5 c 128,-1,12
 178 158 178 158 178 187 c 1,13,14
 176 185 176 185 140 138 c 0,15,16
 62 38 62 38 54 14.5 c 128,-1,17
 46 -9 46 -9 24 -15 c 0,18,19
 20 -16 20 -16 18 -16 c 0,20,21
 12 -16 12 -16 12 -10 c 0,22,23
 12 -8 12 -8 17.5 15.5 c 128,-1,24
 23 39 23 39 27 56 c 0,25,26
 41 115 41 115 42 137.5 c 128,-1,27
 43 160 43 160 43 171 c 128,-1,28
 43 182 43 182 41.5 201 c 128,-1,29
 40 220 40 220 67 232 c 0,30,31
 78 237 78 237 85 237 c 0,32,33
 99 237 99 237 92.5 220 c 128,-1,34
 86 203 86 203 75 130 c 128,-1,35
 64 57 64 57 62 54 c 1,36,37
 101 89 101 89 160 188 c 0,38,39
 181 222 181 222 196 222 c 0,40,41
 210 222 210 222 213 176 c 1,42,43
 213 121 213 121 205 73 c 1,44,45
 213 83 213 83 233 106 c 0,46,47
 266 143 266 143 299 188 c 1,48,49
 306 212 306 212 325 226 c 128,-1,50
 344 240 344 240 343 217 c 0,51,52
 343 213 343 213 335 166 c 128,-1,53
 327 119 327 119 324.5 100.5 c 128,-1,54
 322 82 322 82 322 74 c 0,55,56
 322 41 322 41 340 30 c 1,57,58
 347 24 347 24 361 24 c 128,-1,59
 375 24 375 24 393 36 c 128,-1,60
 411 48 411 48 424.5 59.5 c 128,-1,61
 438 71 438 71 446.5 80.5 c 128,-1,62
 455 90 455 90 462.5 99 c 128,-1,63
 470 108 470 108 471 109 c 0,64,65
 476 111 476 111 478 103 c 1,66,67
 466 79 466 79 418.5 37.5 c 128,-1,68
 371 -4 371 -4 339 -4 c 0,0,1
EndSplineSet
EndChar

StartChar: n
Encoding: 110 110 83
Width: 253
GlyphClass: 2
Flags: W
LayerCount: 2
Fore
SplineSet
272 21 m 0,0,1
 272 -2 272 -2 233 -20 c 0,2,3
 219 -26 219 -26 205 -26 c 1,4,5
 173 -23 173 -23 163.5 -3.5 c 128,-1,6
 154 16 154 16 154 30 c 128,-1,7
 154 44 154 44 156 62.5 c 128,-1,8
 158 81 158 81 163.5 107.5 c 128,-1,9
 169 134 169 134 177.5 160.5 c 128,-1,10
 186 187 186 187 186 188 c 1,11,12
 177 176 177 176 146 140 c 1,13,14
 66 51 66 51 58.5 30 c 128,-1,15
 51 9 51 9 29 2 c 0,16,17
 17 -2 17 -2 17 7 c 0,18,19
 17 9 17 9 24 36 c 0,20,21
 46 120 46 120 46 170 c 1,22,-1
 45 197 l 2,23,24
 45 214 45 214 68 225 c 0,25,26
 78 230 78 230 86 230 c 0,27,28
 100 230 100 230 97 216.5 c 128,-1,29
 94 203 94 203 87 166 c 0,30,31
 71 79 71 79 67 71 c 1,32,33
 126 125 126 125 194 231 c 0,34,35
 198 238 198 238 206 238 c 0,36,37
 235 238 235 238 238 228 c 0,38,39
 240 221 240 221 227.5 183.5 c 128,-1,40
 215 146 215 146 209 122 c 0,41,42
 194 61 194 61 194 34.5 c 128,-1,43
 194 8 194 8 198 -3 c 128,-1,44
 202 -14 202 -14 212 -13 c 0,45,46
 241 -9 241 -9 268 24 c 0,47,48
 272 28 272 28 272 21 c 0,0,1
EndSplineSet
EndChar

StartChar: o
Encoding: 111 111 84
Width: 235
GlyphClass: 2
Flags: W
LayerCount: 2
Fore
SplineSet
246 180 m 1,0,-1
 293 185 l 2,1,2
 296 185 296 185 296 183 c 128,-1,3
 296 181 296 181 293 178 c 2,4,-1
 285 171 l 1,5,6
 261 160 261 160 236 160 c 128,-1,7
 211 160 211 160 203 164 c 1,8,9
 203 162 203 162 203 153 c 128,-1,10
 203 144 203 144 193.5 114 c 128,-1,11
 184 84 184 84 165 51 c 128,-1,12
 146 18 146 18 124 3 c 128,-1,13
 102 -12 102 -12 91.5 -12 c 128,-1,14
 81 -12 81 -12 69.5 -9 c 128,-1,15
 58 -6 58 -6 44 12 c 1,16,17
 28 30 28 30 28 62.5 c 128,-1,18
 28 95 28 95 38 129 c 1,19,20
 75 241 75 241 129 246 c 1,21,22
 136 254 136 254 146.5 254 c 128,-1,23
 157 254 157 254 174 244 c 0,24,25
 204 225 204 225 207 197 c 1,26,27
 221 180 221 180 246 180 c 1,0,-1
103 173 m 128,-1,29
 83 138 83 138 73.5 103 c 128,-1,30
 64 68 64 68 64 43.5 c 128,-1,31
 64 19 64 19 82 10 c 0,32,33
 87 8 87 8 93 8 c 0,34,35
 117 8 117 8 147 55 c 0,36,37
 164 82 164 82 174 115 c 128,-1,38
 184 148 184 148 184 157 c 128,-1,39
 184 166 184 166 183 169 c 1,40,41
 164 172 164 172 153 183 c 128,-1,42
 142 194 142 194 141 203 c 2,43,-1
 140 212 l 1,44,28
 123 208 123 208 103 173 c 128,-1,29
EndSplineSet
EndChar

StartChar: p
Encoding: 112 112 85
Width: 226
GlyphClass: 2
Flags: W
LayerCount: 2
Fore
SplineSet
102 -4 m 0,0,1
 79 -4 79 -4 79 22 c 0,2,3
 79 56 79 56 122 90 c 0,4,5
 137 102 137 102 150 112 c 1,6,-1
 162 123 l 1,7,8
 162 144 162 144 144 182 c 128,-1,9
 126 220 126 220 112 220 c 0,10,11
 111 220 111 220 85 147 c 0,12,13
 7 -74 7 -74 -1 -149 c 0,14,15
 -1 -152 -1 -152 -2.5 -161 c 128,-1,16
 -4 -170 -4 -170 -5 -176.5 c 128,-1,17
 -6 -183 -6 -183 -6.5 -192 c 128,-1,18
 -7 -201 -7 -201 -6 -208 c 128,-1,19
 -5 -215 -5 -215 -2 -222 c 0,20,21
 2 -236 2 -236 15.5 -238 c 128,-1,22
 29 -240 29 -240 29 -244 c 1,23,24
 30 -247 30 -247 24 -247 c 0,25,26
 -15 -247 -15 -247 -30 -208 c 1,27,28
 -39 -188 -39 -188 -39 -170.5 c 128,-1,29
 -39 -153 -39 -153 -32.5 -123 c 128,-1,30
 -26 -93 -26 -93 3 -1 c 128,-1,31
 32 91 32 91 56 160 c 1,32,-1
 81 228 l 2,33,34
 80 228 80 228 77 229.5 c 128,-1,35
 74 231 74 231 72 232 c 0,36,37
 67 233 67 233 69 239.5 c 128,-1,38
 71 246 71 246 77 252 c 0,39,40
 92 265 92 265 92 261 c 1,41,42
 95 267 95 267 96.5 273 c 128,-1,43
 98 279 98 279 100 286 c 0,44,45
 108 307 108 307 108 318.5 c 128,-1,46
 108 330 108 330 106 333.5 c 128,-1,47
 104 337 104 337 103 338 c 128,-1,48
 102 339 102 339 99.5 341 c 128,-1,49
 97 343 97 343 96 344 c 0,50,51
 89 347 89 347 94 348.5 c 128,-1,52
 99 350 99 350 101.5 350 c 128,-1,53
 104 350 104 350 115 347.5 c 128,-1,54
 126 345 126 345 136 334 c 128,-1,55
 146 323 146 323 144 315 c 2,56,-1
 125 251 l 1,57,58
 186 212 186 212 196 141 c 0,59,60
 196 138 196 138 214 149 c 0,61,62
 251 171 251 171 251 164 c 0,63,64
 250 157 250 157 239 149 c 1,65,66
 197 124 197 124 197 123 c 0,67,68
 195 69 195 69 173 38 c 128,-1,69
 151 7 151 7 117 -2 c 0,70,71
 108 -4 108 -4 102 -4 c 0,0,1
162 109 m 1,72,73
 100 56 100 56 100 29 c 0,74,75
 100 17 100 17 114 17 c 0,76,77
 134 17 134 17 149 44 c 1,78,79
 163 72 163 72 163 101 c 0,80,81
 163 106 163 106 162 109 c 1,72,73
EndSplineSet
EndChar

StartChar: q
Encoding: 113 113 86
Width: 232
GlyphClass: 2
Flags: W
LayerCount: 2
Fore
SplineSet
96 142 m 0,0,1
 67 103 67 103 55 74 c 128,-1,2
 43 45 43 45 43 31 c 128,-1,3
 43 17 43 17 52 17 c 0,4,5
 79 17 79 17 161 137 c 1,6,7
 181 163 181 163 192 154 c 0,8,9
 197 150 197 150 196 134 c 1,10,11
 131 -40 131 -40 131 -127 c 0,12,13
 131 -187 131 -187 160 -204 c 1,14,15
 176 -211 176 -211 188.5 -206.5 c 128,-1,16
 201 -202 201 -202 206.5 -193 c 128,-1,17
 212 -184 212 -184 215 -186.5 c 128,-1,18
 218 -189 218 -189 214 -198 c 0,19,20
 204 -223 204 -223 187 -223 c 0,21,22
 186 -223 186 -223 185 -223 c 0,23,24
 142 -217 142 -217 121.5 -184 c 128,-1,25
 101 -151 101 -151 101 -114 c 0,26,27
 101 -110 101 -110 101 -107 c 0,28,29
 102 -24 102 -24 151 102 c 1,30,31
 111 39 111 39 93 22 c 0,32,33
 63 -6 63 -6 44 -4 c 0,34,35
 11 1 11 1 11 40.5 c 128,-1,36
 11 80 11 80 36.5 128.5 c 128,-1,37
 62 177 62 177 104 216 c 128,-1,38
 146 255 146 255 188 255 c 0,39,40
 208 255 208 255 227 245 c 0,41,42
 244 235 244 235 244 213.5 c 128,-1,43
 244 192 244 192 225 189 c 1,44,45
 232 201 232 201 232 211.5 c 128,-1,46
 232 222 232 222 222 227 c 128,-1,47
 212 232 212 232 204 232 c 0,48,49
 161 232 161 232 96 142 c 0,0,1
EndSplineSet
EndChar

StartChar: r
Encoding: 114 114 87
Width: 177
GlyphClass: 2
Flags: W
LayerCount: 2
Fore
SplineSet
207 192 m 1,0,1
 194 209 194 209 180 209 c 0,2,3
 140 209 140 209 83 121 c 0,4,5
 54 77 54 77 33 6 c 1,6,7
 32 -2 32 -2 24 -2 c 0,8,9
 15 -2 15 -2 15 6 c 1,10,-1
 30 112 l 1,11,12
 40 192 40 192 41 212.5 c 128,-1,13
 42 233 42 233 68 241 c 0,14,15
 76 243 76 243 84.5 243 c 128,-1,16
 93 243 93 243 94 234 c 0,17,18
 94 231 94 231 93 227.5 c 128,-1,19
 92 224 92 224 78.5 174.5 c 128,-1,20
 65 125 65 125 61 116 c 1,21,22
 85 158 85 158 122 197.5 c 128,-1,23
 159 237 159 237 179 237 c 0,24,25
 180 237 180 237 180 237 c 2,26,27
 207 237 207 237 215 204 c 0,28,29
 217 196 217 196 217 190.5 c 128,-1,30
 217 185 217 185 214 185 c 0,31,32
 211 184 211 184 207 192 c 1,0,1
EndSplineSet
EndChar

StartChar: s
Encoding: 115 115 88
Width: 198
GlyphClass: 2
Flags: W
LayerCount: 2
Fore
SplineSet
14 -28 m 0,0,1
 -22 -28 -22 -28 -22 -10 c 0,2,3
 -22 -4 -22 -4 -13.5 2.5 c 128,-1,4
 -5 9 -5 9 11 10 c 0,5,6
 108 18 108 18 115 20 c 1,7,8
 122 31 122 31 122 45.5 c 128,-1,9
 122 60 122 60 95 83 c 128,-1,10
 68 106 68 106 56 131 c 128,-1,11
 44 156 44 156 44 171 c 128,-1,12
 44 186 44 186 52 199 c 0,13,14
 87 257 87 257 134 257 c 0,15,16
 174 257 174 257 186 230 c 0,17,18
 189 222 189 222 186.5 216 c 128,-1,19
 184 210 184 210 181 211 c 128,-1,20
 178 212 178 212 177 217 c 0,21,22
 175 235 175 235 160 235 c 0,23,24
 152 235 152 235 141 230 c 0,25,26
 100 214 100 214 84 174 c 0,27,28
 80 164 80 164 80 153 c 128,-1,29
 80 142 80 142 87 126 c 128,-1,30
 94 110 94 110 110 96 c 0,31,32
 138 72 138 72 138 46 c 0,33,34
 138 36 138 36 133 26 c 1,35,36
 184 50 184 50 212 70 c 1,37,-1
 214 69 l 1,38,39
 213 56 213 56 164 30 c 0,40,41
 148 21 148 21 136 14 c 2,42,-1
 125 7 l 1,43,44
 115 -12 115 -12 60 -22 c 0,45,46
 32 -28 32 -28 14 -28 c 0,0,1
EndSplineSet
EndChar

StartChar: t
Encoding: 116 116 89
Width: 167
GlyphClass: 2
Flags: W
LayerCount: 2
Fore
SplineSet
145 242 m 0,0,1
 218 242 218 242 218 233 c 0,2,3
 218 231 218 231 194 228 c 0,4,5
 117 220 117 220 110 218 c 1,6,7
 61 98 61 98 61 47 c 0,8,9
 61 31 61 31 67.5 23.5 c 128,-1,10
 74 16 74 16 82.5 17 c 128,-1,11
 91 18 91 18 96.5 19 c 128,-1,12
 102 20 102 20 113.5 25.5 c 128,-1,13
 125 31 125 31 132 34 c 0,14,15
 149 42 149 42 197 79 c 0,16,17
 214 91 214 91 215 84 c 1,18,19
 215 71 215 71 161.5 33 c 128,-1,20
 108 -5 108 -5 74 -5 c 0,21,22
 73 -5 73 -5 72 -5 c 0,23,24
 41 -3 41 -3 32 12 c 0,25,26
 28 20 28 20 28 36 c 128,-1,27
 28 52 28 52 31.5 74.5 c 128,-1,28
 35 97 35 97 47 132 c 128,-1,29
 59 167 59 167 68.5 192 c 128,-1,30
 78 217 78 217 77 217 c 0,31,32
 66 217 66 217 3 208 c 0,33,34
 -2 207 -2 207 -2 218.5 c 128,-1,35
 -2 230 -2 230 8.5 234 c 128,-1,36
 19 238 19 238 84 241 c 1,37,38
 115 347 115 347 130 378 c 0,39,40
 133 385 133 385 139 385 c 128,-1,41
 145 385 145 385 156 371 c 128,-1,42
 167 357 167 357 167 350 c 128,-1,43
 167 343 167 343 165 339 c 2,44,-1
 116 241 l 1,45,46
 130 242 130 242 145 242 c 0,0,1
EndSplineSet
EndChar

StartChar: u
Encoding: 117 117 90
Width: 281
GlyphClass: 2
Flags: W
LayerCount: 2
Fore
SplineSet
256 17 m 0,0,1
 286 17 286 17 334 71 c 1,2,-1
 340 67 l 1,3,4
 338 61 338 61 320 42.5 c 128,-1,5
 302 24 302 24 276.5 10.5 c 128,-1,6
 251 -3 251 -3 237.5 -3 c 128,-1,7
 224 -3 224 -3 216 0 c 0,8,9
 198 6 198 6 187.5 35 c 128,-1,10
 177 64 177 64 175 89.5 c 128,-1,11
 173 115 173 115 174 116 c 1,12,13
 166 104 166 104 159.5 92.5 c 128,-1,14
 153 81 153 81 144 68 c 128,-1,15
 135 55 135 55 124 42 c 0,16,17
 89 -4 89 -4 64 -4 c 0,18,19
 62 -4 62 -4 61 -4 c 0,20,21
 23 2 23 2 23 50 c 0,22,23
 23 123 23 123 96 232 c 0,24,25
 102 241 102 241 114 241 c 128,-1,26
 126 241 126 241 137 239 c 1,27,28
 152 233 152 233 151 228 c 1,29,30
 127 204 127 204 100 156 c 0,31,32
 54 72 54 72 54 37 c 0,33,34
 54 18 54 18 66.5 18 c 128,-1,35
 79 18 79 18 95.5 32.5 c 128,-1,36
 112 47 112 47 123 62 c 128,-1,37
 134 77 134 77 143 89.5 c 128,-1,38
 152 102 152 102 165 122.5 c 128,-1,39
 178 143 178 143 185 153 c 128,-1,40
 192 163 192 163 199.5 168.5 c 128,-1,41
 207 174 207 174 211.5 169.5 c 128,-1,42
 216 165 216 165 215.5 152.5 c 128,-1,43
 215 140 215 140 215 131 c 0,44,45
 215 17 215 17 256 17 c 0,0,1
EndSplineSet
EndChar

StartChar: v
Encoding: 118 118 91
Width: 237
GlyphClass: 2
Flags: W
LayerCount: 2
Fore
SplineSet
257.5 188 m 128,-1,1
 268 188 268 188 280 197 c 1,2,3
 286 196 286 196 286 192 c 0,4,5
 286 182 286 182 275.5 178 c 128,-1,6
 265 174 265 174 253.5 174 c 128,-1,7
 242 174 242 174 228 182 c 1,8,9
 228 167 228 167 209.5 132 c 128,-1,10
 191 97 191 97 165 69 c 0,11,12
 101 -2 101 -2 54 -2 c 0,13,14
 46 -2 46 -2 39 0 c 0,15,16
 20 4 20 4 20 30.5 c 128,-1,17
 20 57 20 57 29 83 c 0,18,19
 53 155 53 155 53 175.5 c 128,-1,20
 53 196 53 196 39 201 c 0,21,22
 30 205 30 205 51 234 c 0,23,24
 56 241 56 241 78.5 238 c 128,-1,25
 101 235 101 235 101 228 c 0,26,27
 101 205 101 205 84 144 c 1,28,29
 63 63 63 63 63 42 c 128,-1,30
 63 21 63 21 74 21 c 0,31,32
 101 21 101 21 154 82 c 1,33,34
 210 151 210 151 215 191 c 1,35,36
 201 207 201 207 196 225.5 c 128,-1,37
 191 244 191 244 194.5 256 c 128,-1,38
 198 268 198 268 203 269 c 128,-1,39
 208 270 208 270 211 270 c 0,40,41
 224 270 224 270 229 255.5 c 128,-1,42
 234 241 234 241 234 231.5 c 128,-1,43
 234 222 234 222 234 216 c 2,44,-1
 231 196 l 1,45,0
 247 188 247 188 257.5 188 c 128,-1,1
EndSplineSet
EndChar

StartChar: w
Encoding: 119 119 92
Width: 407
GlyphClass: 2
Flags: W
LayerCount: 2
Fore
SplineSet
226 64 m 0,0,1
 226 2 226 2 258 2 c 0,2,3
 280 2 280 2 302 29 c 1,4,5
 338 77 338 77 338 134 c 0,6,7
 338 147 338 147 336 159 c 1,8,-1
 324 176 l 2,9,10
 313 192 313 192 313.5 200 c 128,-1,11
 314 208 314 208 318 216 c 256,12,13
 322 224 322 224 339.5 224 c 128,-1,14
 357 224 357 224 363 211 c 0,15,16
 372 190 372 190 431 190 c 1,17,-1
 459 192 l 2,18,19
 465 193 465 193 465 191 c 0,20,21
 465 184 465 184 425 175 c 1,22,-1
 409 172 l 2,23,24
 407 172 407 172 399 172 c 128,-1,25
 391 172 391 172 363 176 c 1,26,27
 366 159 366 159 366 132.5 c 128,-1,28
 366 106 366 106 353.5 71.5 c 128,-1,29
 341 37 341 37 316 14 c 0,30,31
 256 -40 256 -40 216 4 c 0,32,33
 194 28 194 28 190 80 c 0,34,35
 187 127 187 127 189 131 c 1,36,37
 168 84 168 84 131 32 c 1,38,39
 95 -16 95 -16 56 -16 c 0,40,41
 18 -16 18 -16 18 25 c 0,42,43
 18 73 18 73 58 158 c 0,44,45
 73 188 73 188 85 206 c 128,-1,46
 97 224 97 224 121 224 c 0,47,48
 147 224 147 224 134 209 c 0,49,50
 100 171 100 171 79.5 108 c 128,-1,51
 59 45 59 45 59 25 c 128,-1,52
 59 5 59 5 71 5 c 0,53,54
 88 5 88 5 120 43 c 128,-1,55
 152 81 152 81 183 150 c 0,56,57
 187 159 187 159 184 179 c 1,58,59
 186 196 186 196 212 199 c 1,60,61
 235 200 235 200 235 186 c 0,62,63
 235 184 235 184 232 156 c 0,64,65
 226 99 226 99 226 64 c 0,0,1
EndSplineSet
EndChar

StartChar: x
Encoding: 120 120 93
Width: 212
GlyphClass: 2
Flags: W
LayerCount: 2
Fore
SplineSet
-2 -6 m 0,0,1
 -2 37 -2 37 106 109 c 1,2,3
 94 201 94 201 80 207 c 1,4,5
 72 208 72 208 62 198 c 128,-1,6
 52 188 52 188 49 196 c 1,7,8
 49 202 49 202 61 213 c 128,-1,9
 73 224 73 224 91 231.5 c 128,-1,10
 109 239 109 239 117 230 c 1,11,12
 125 212 125 212 134 155 c 2,13,-1
 137 136 l 1,14,15
 149 143 149 143 188.5 178 c 128,-1,16
 228 213 228 213 244 237.5 c 128,-1,17
 260 262 260 262 261 262.5 c 128,-1,18
 262 263 262 263 263.5 263 c 128,-1,19
 265 263 265 263 266.5 258 c 128,-1,20
 268 253 268 253 261 238.5 c 128,-1,21
 254 224 254 224 235 205 c 1,22,-1
 140 122 l 1,23,24
 140 113 140 113 143.5 98 c 128,-1,25
 147 83 147 83 149.5 70.5 c 128,-1,26
 152 58 152 58 155 50.5 c 128,-1,27
 158 43 158 43 162.5 32.5 c 128,-1,28
 167 22 167 22 172.5 17.5 c 128,-1,29
 178 13 178 13 184 9 c 0,30,31
 197 1 197 1 220 14.5 c 128,-1,32
 243 28 243 28 267 60 c 0,33,34
 270 63 270 63 274 56 c 1,35,36
 272 50 272 50 256.5 31.5 c 128,-1,37
 241 13 241 13 217 -0.5 c 128,-1,38
 193 -14 193 -14 175 -14 c 0,39,40
 114 -14 114 -14 109 96 c 1,41,42
 32 31 32 31 18 8 c 1,43,44
 9 -9 9 -9 10 -13 c 0,45,46
 13 -19 13 -19 8 -21 c 1,47,48
 -2 -21 -2 -21 -2 -6 c 0,0,1
EndSplineSet
EndChar

StartChar: y
Encoding: 121 121 94
Width: 242
GlyphClass: 2
Flags: W
LayerCount: 2
Fore
SplineSet
225 208 m 0,0,1
 225 180 225 180 207 101 c 128,-1,2
 189 22 189 22 176 -7 c 1,3,4
 207 0 207 0 210 17 c 0,5,6
 211 23 211 23 214.5 26 c 128,-1,7
 218 29 218 29 220.5 26.5 c 128,-1,8
 223 24 223 24 222 16 c 0,9,10
 218 -13 218 -13 168 -25 c 1,11,12
 138 -108 138 -108 84 -188 c 0,13,14
 -14 -332 -14 -332 -130 -351 c 0,15,16
 -142 -353 -142 -353 -163.5 -353 c 128,-1,17
 -185 -353 -185 -353 -212 -340 c 0,18,19
 -250 -321 -250 -321 -264 -279 c 0,20,21
 -269 -262 -269 -262 -269 -243.5 c 128,-1,22
 -269 -225 -269 -225 -260 -204 c 0,23,24
 -245 -168 -245 -168 -208 -143 c 0,25,26
 -118 -82 -118 -82 141 -15 c 1,27,28
 158 25 158 25 181 166 c 1,29,30
 140 92 140 92 94 38 c 1,31,32
 88 17 88 17 69 3.5 c 128,-1,33
 50 -10 50 -10 51 10 c 0,34,35
 51 15 51 15 59 51.5 c 128,-1,36
 67 88 67 88 67 127.5 c 128,-1,37
 67 167 67 167 46 167 c 0,38,39
 36 167 36 167 25 160 c 128,-1,40
 14 153 14 153 12.5 158.5 c 128,-1,41
 11 164 11 164 29 177.5 c 128,-1,42
 47 191 47 191 61 191 c 128,-1,43
 75 191 75 191 86 184.5 c 128,-1,44
 97 178 97 178 99.5 155 c 128,-1,45
 102 132 102 132 102 118 c 128,-1,46
 102 104 102 104 99.5 85.5 c 128,-1,47
 97 67 97 67 95 65 c 1,48,49
 95 58 95 58 184 183 c 1,50,51
 189 216 189 216 212 216 c 0,52,53
 225 216 225 216 225 208 c 0,0,1
-41 -91.5 m 128,-1,55
 -150 -136 -150 -136 -190 -163 c 128,-1,56
 -230 -190 -230 -190 -244 -211.5 c 128,-1,57
 -258 -233 -258 -233 -258 -246 c 0,58,59
 -258 -298 -258 -298 -204 -315 c 0,60,61
 -176 -323 -176 -323 -156 -323 c 128,-1,62
 -136 -323 -136 -323 -115 -320.5 c 128,-1,63
 -94 -318 -94 -318 -67.5 -307 c 128,-1,64
 -41 -296 -41 -296 -21.5 -283.5 c 128,-1,65
 -2 -271 -2 -271 17.5 -248.5 c 128,-1,66
 37 -226 37 -226 49 -210 c 128,-1,67
 61 -194 61 -194 76 -164.5 c 128,-1,68
 91 -135 91 -135 98 -120.5 c 128,-1,69
 105 -106 105 -106 118 -73.5 c 128,-1,70
 131 -41 131 -41 136 -31 c 1,71,54
 68 -47 68 -47 -41 -91.5 c 128,-1,55
EndSplineSet
EndChar

StartChar: z
Encoding: 122 122 95
Width: 216
GlyphClass: 2
Flags: W
LayerCount: 2
Fore
SplineSet
147 240 m 2,0,-1
 239 238 l 2,1,2
 245 238 245 238 250 235 c 128,-1,3
 255 232 255 232 255 228 c 0,4,5
 255 216 255 216 237.5 199.5 c 128,-1,6
 220 183 220 183 206 181 c 1,7,8
 73 68 73 68 49 21 c 1,9,10
 155 34 155 34 184.5 34 c 128,-1,11
 214 34 214 34 224 26.5 c 128,-1,12
 234 19 234 19 231 9 c 128,-1,13
 228 -1 228 -1 221 -11.5 c 128,-1,14
 214 -22 214 -22 205.5 -29.5 c 128,-1,15
 197 -37 197 -37 193 -37 c 128,-1,16
 189 -37 189 -37 189 -33.5 c 128,-1,17
 189 -30 189 -30 199 -20.5 c 128,-1,18
 209 -11 209 -11 208 -5 c 0,19,20
 206 6 206 6 159 6 c 128,-1,21
 112 6 112 6 67.5 2 c 128,-1,22
 23 -2 23 -2 22 -2 c 2,23,-1
 15 -2 l 1,24,25
 7 3 7 3 7 10 c 128,-1,26
 7 17 7 17 10 21 c 1,27,28
 17 37 17 37 55.5 76.5 c 128,-1,29
 94 116 94 116 140 161.5 c 128,-1,30
 186 207 186 207 198 220 c 1,31,32
 181 223 181 223 164 223 c 0,33,34
 101 223 101 223 74 196 c 0,35,36
 57 178 57 178 51 178 c 0,37,38
 48 178 48 178 48 183 c 1,39,40
 63 219 63 219 82 234 c 1,41,42
 107 240 107 240 147 240 c 2,0,-1
EndSplineSet
EndChar

StartChar: braceleft
Encoding: 123 123 96
Width: 369
GlyphClass: 2
Flags: W
LayerCount: 2
Fore
SplineSet
69 305 m 0,0,1
 67 305 67 305 66 305 c 1,2,3
 109 300 109 300 139 271.5 c 128,-1,4
 169 243 169 243 169 200.5 c 128,-1,5
 169 158 169 158 150 78 c 128,-1,6
 131 -2 131 -2 131 -41 c 128,-1,7
 131 -80 131 -80 147.5 -99.5 c 128,-1,8
 164 -119 164 -119 183.5 -121.5 c 128,-1,9
 203 -124 203 -124 222 -125.5 c 128,-1,10
 241 -127 241 -127 244 -131 c 1,11,12
 242 -134 242 -134 222 -134 c 128,-1,13
 202 -134 202 -134 181 -131 c 128,-1,14
 160 -128 160 -128 140 -118 c 0,15,16
 98 -99 98 -99 98 -39 c 0,17,18
 98 3 98 3 118 83.5 c 128,-1,19
 138 164 138 164 138 205 c 0,20,21
 138 299 138 299 21 301 c 1,22,-1
 26 309 l 1,23,24
 111 318 111 318 138.5 342 c 128,-1,25
 166 366 166 366 179.5 399 c 128,-1,26
 193 432 193 432 198 466.5 c 128,-1,27
 203 501 203 501 208 538.5 c 128,-1,28
 213 576 213 576 224 609 c 128,-1,29
 235 642 235 642 256 668 c 1,30,31
 300 726 300 726 417 726 c 0,32,33
 421 726 421 726 423 724 c 1,34,-1
 415 721 l 1,35,36
 332 721 332 721 295 678 c 0,37,38
 264 643 264 643 252 574 c 0,39,40
 237 484 237 484 223 437 c 128,-1,41
 209 390 209 390 166 347.5 c 128,-1,42
 123 305 123 305 69 305 c 0,0,1
EndSplineSet
EndChar

StartChar: bar
Encoding: 124 124 97
Width: 250
GlyphClass: 2
Flags: W
LayerCount: 2
Fore
SplineSet
181 617 m 1,0,-1
 180 586 l 1,1,2
 180 496 180 496 146 217.5 c 128,-1,3
 112 -61 112 -61 87 -97 c 0,4,5
 73 -117 73 -117 59 -117 c 0,6,7
 58 -117 58 -117 58 -113 c 128,-1,8
 58 -109 58 -109 60 -100 c 128,-1,9
 62 -91 62 -91 64 -80 c 0,10,11
 98 60 98 60 98 68 c 1,12,13
 135 280 135 280 135 503 c 0,14,15
 135 593 135 593 131.5 619.5 c 128,-1,16
 128 646 128 646 122 669 c 128,-1,17
 116 692 116 692 116 703.5 c 128,-1,18
 116 715 116 715 135 715 c 0,19,20
 181 715 181 715 181 617 c 1,0,-1
EndSplineSet
EndChar

StartChar: braceright
Encoding: 125 125 98
Width: 485
GlyphClass: 2
Flags: W
LayerCount: 2
Fore
SplineSet
31 -131 m 0,0,1
 26 -131 26 -131 25 -129 c 1,2,3
 29 -126 29 -126 74.5 -122 c 128,-1,4
 120 -118 120 -118 146 -99 c 128,-1,5
 172 -80 172 -80 191 -35.5 c 128,-1,6
 210 9 210 9 220.5 54.5 c 128,-1,7
 231 100 231 100 251.5 149.5 c 128,-1,8
 272 199 272 199 299.5 225.5 c 128,-1,9
 327 252 327 252 366 271 c 128,-1,10
 405 290 405 290 441 294 c 1,11,12
 395 297 395 297 362.5 319.5 c 128,-1,13
 330 342 330 342 330 386 c 128,-1,14
 330 430 330 430 359 516.5 c 128,-1,15
 388 603 388 603 388 636 c 128,-1,16
 388 669 388 669 382.5 681.5 c 128,-1,17
 377 694 377 694 365.5 700 c 128,-1,18
 354 706 354 706 344 708 c 128,-1,19
 334 710 334 710 315.5 712 c 128,-1,20
 297 714 297 714 286 716 c 1,21,-1
 284 718 l 1,22,-1
 291 722 l 1,23,24
 388 722 388 722 412 690 c 0,25,26
 424 674 424 674 424 637 c 128,-1,27
 424 600 424 600 392.5 511.5 c 128,-1,28
 361 423 361 423 361 378.5 c 128,-1,29
 361 334 361 334 391 317.5 c 128,-1,30
 421 301 421 301 471 296 c 1,31,-1
 464 287 l 1,32,33
 402 286 402 286 362.5 262.5 c 128,-1,34
 323 239 323 239 305 202 c 128,-1,35
 287 165 287 165 275.5 120.5 c 128,-1,36
 264 76 264 76 251 32 c 128,-1,37
 238 -12 238 -12 216 -48.5 c 128,-1,38
 194 -85 194 -85 148 -108 c 128,-1,39
 102 -131 102 -131 31 -131 c 0,0,1
EndSplineSet
EndChar

StartChar: asciitilde
Encoding: 126 126 99
Width: 220
GlyphClass: 2
Flags: W
LayerCount: 2
Fore
SplineSet
205.5 144.5 m 128,-1,1
 193 122 193 122 180 87 c 128,-1,2
 167 52 167 52 167 19.5 c 128,-1,3
 167 -13 167 -13 184 -11 c 0,4,5
 210 -9 210 -9 233 21 c 0,6,7
 237 25 237 25 237 18 c 0,8,9
 237 9 237 9 228 0 c 0,10,11
 205 -23 205 -23 179 -23 c 0,12,13
 163 -23 163 -23 155 -19 c 0,14,15
 137 -10 137 -10 137 20 c 0,16,17
 137 57 137 57 176 138 c 1,18,19
 187 164 187 164 187 166 c 128,-1,20
 187 168 187 168 186 168 c 0,21,22
 180 168 180 168 155 142 c 128,-1,23
 130 116 130 116 126 112 c 128,-1,24
 122 108 122 108 101 90 c 0,25,26
 53 51 53 51 49 33.5 c 128,-1,27
 45 16 45 16 29 11 c 128,-1,28
 13 6 13 6 13 15 c 0,29,30
 13 19 13 19 36.5 74.5 c 128,-1,31
 60 130 60 130 60 151 c 0,32,33
 60 162 60 162 82 174 c 1,34,35
 100 181 100 181 99 169 c 1,36,37
 95 149 95 149 78.5 111.5 c 128,-1,38
 62 74 62 74 55 62 c 1,39,40
 118 118 118 118 134.5 137 c 128,-1,41
 151 156 151 156 171.5 174 c 128,-1,42
 192 192 192 192 199 202 c 0,43,44
 204 209 204 209 218 207 c 128,-1,45
 232 205 232 205 233 199 c 128,-1,46
 234 193 234 193 226 180 c 128,-1,0
 218 167 218 167 205.5 144.5 c 128,-1,1
242 252 m 128,-1,48
 228 241 228 241 217 238.5 c 128,-1,49
 206 236 206 236 194.5 236 c 128,-1,50
 183 236 183 236 158.5 253.5 c 128,-1,51
 134 271 134 271 120 271 c 128,-1,52
 106 271 106 271 94 260.5 c 128,-1,53
 82 250 82 250 78 249 c 1,54,55
 68 249 68 249 68 254 c 128,-1,56
 68 259 68 259 89 274 c 128,-1,57
 110 289 110 289 120.5 292.5 c 128,-1,58
 131 296 131 296 135 296 c 0,59,60
 153 296 153 296 176 277.5 c 128,-1,61
 199 259 199 259 214 259 c 0,62,63
 216 259 216 259 218 259 c 2,64,-1
 219 259 l 2,65,66
 223 259 223 259 241 271.5 c 128,-1,67
 259 284 259 284 259 273 c 1,68,47
 256 263 256 263 242 252 c 128,-1,48
EndSplineSet
EndChar

StartChar: exclamdown
Encoding: 161 161 101
Width: 277
GlyphClass: 2
Flags: W
LayerCount: 2
Fore
SplineSet
237 176 m 128,-1,1
 237 163 237 163 228 154 c 128,-1,2
 219 145 219 145 205.5 145 c 128,-1,3
 192 145 192 145 182.5 154 c 128,-1,4
 173 163 173 163 173 176 c 128,-1,5
 173 189 173 189 182.5 198 c 128,-1,6
 192 207 192 207 205.5 207 c 128,-1,7
 219 207 219 207 228 198 c 128,-1,0
 237 189 237 189 237 176 c 128,-1,1
-44 -357 m 1,8,9
 -45 -361 -45 -361 -51.5 -361 c 128,-1,10
 -58 -361 -58 -361 -68.5 -354 c 128,-1,11
 -79 -347 -79 -347 -85.5 -339.5 c 128,-1,12
 -92 -332 -92 -332 -92 -330 c 128,-1,13
 -92 -328 -92 -328 -57.5 -280 c 128,-1,14
 -23 -232 -23 -232 40.5 -134 c 128,-1,15
 104 -36 104 -36 139 64 c 0,16,17
 145 81 145 81 157.5 81 c 128,-1,18
 170 81 170 81 170 69 c 0,19,20
 170 52 170 52 86 -113 c 128,-1,21
 2 -278 2 -278 -44 -357 c 1,8,9
EndSplineSet
EndChar

StartChar: cent
Encoding: 162 162 102
Width: 211
GlyphClass: 2
Flags: W
LayerCount: 2
Fore
SplineSet
99 365 m 0,0,1
 61 313 61 313 61 262.5 c 128,-1,2
 61 212 61 212 97 212 c 0,3,4
 148 212 148 212 207 329 c 0,5,6
 212 337 212 337 215 337 c 128,-1,7
 218 337 218 337 218 332.5 c 128,-1,8
 218 328 218 328 217 325 c 0,9,10
 191 265 191 265 169 239 c 0,11,12
 136 202 136 202 94 201 c 1,13,-1
 64 131 l 1,14,15
 39 68 39 68 39 42.5 c 128,-1,16
 39 17 39 17 52 13 c 1,17,18
 59 12 59 12 59 7 c 128,-1,19
 59 2 59 2 55.5 2 c 128,-1,20
 52 2 52 2 49 3 c 0,21,22
 25 10 25 10 25 43 c 128,-1,23
 25 76 25 76 49 131 c 2,24,-1
 79 201 l 1,25,26
 23 206 23 206 23 263.5 c 128,-1,27
 23 321 23 321 63.5 379.5 c 128,-1,28
 104 438 104 438 157 438 c 2,29,-1
 161 438 l 1,30,-1
 185 499 l 1,31,32
 214 569 214 569 224 569 c 0,33,34
 226 569 226 569 226 562.5 c 128,-1,35
 226 556 226 556 223 551 c 128,-1,36
 220 546 220 546 205 507 c 2,37,-1
 178 435 l 1,38,39
 213 423 213 423 213 385 c 1,40,41
 211 366 211 366 201.5 354.5 c 128,-1,42
 192 343 192 343 177.5 343 c 128,-1,43
 163 343 163 343 154 352.5 c 128,-1,44
 145 362 145 362 145 375 c 0,45,46
 147 405 147 405 174 405 c 0,47,48
 175 405 175 405 177 405 c 0,49,50
 194 405 194 405 199 393 c 1,51,52
 201 404 201 404 196 412 c 0,53,54
 190 422 190 422 176.5 422 c 128,-1,55
 163 422 163 422 144 409 c 0,56,57
 119 393 119 393 99 365 c 0,0,1
EndSplineSet
EndChar

StartChar: sterling
Encoding: 163 163 103
Width: 382
GlyphClass: 2
Flags: W
LayerCount: 2
Fore
SplineSet
216 229 m 0,0,1
 182 229 182 229 165 216 c 1,2,3
 162 216 162 216 160 224.5 c 128,-1,4
 158 233 158 233 160 235 c 0,5,6
 176 248 176 248 201 248 c 128,-1,7
 226 248 226 248 244 245 c 1,8,9
 313 537 313 537 411 537 c 0,10,11
 430 537 430 537 448 524 c 0,12,13
 472 506 472 506 472 471.5 c 128,-1,14
 472 437 472 437 457.5 398 c 128,-1,15
 443 359 443 359 418 329 c 0,16,17
 413 324 413 324 410 324 c 0,18,19
 402 324 402 324 409 335 c 0,20,21
 462 411 462 411 462 464 c 128,-1,22
 462 517 462 517 429.5 517 c 128,-1,23
 397 517 397 517 370 482 c 0,24,25
 326 423 326 423 310 318 c 2,26,-1
 297 236 l 1,27,28
 316 233 316 233 328 233 c 128,-1,29
 340 233 340 233 349 236 c 2,30,-1
 361 241 l 1,31,32
 364 241 364 241 366 232 c 128,-1,33
 368 223 368 223 366 221 c 0,34,35
 352 214 352 214 333 214 c 128,-1,36
 314 214 314 214 293 218 c 1,37,38
 265 74 265 74 193 8 c 1,39,40
 216 -11 216 -11 263.5 -36 c 128,-1,41
 311 -61 311 -61 335.5 -68.5 c 128,-1,42
 360 -76 360 -76 385.5 -76 c 128,-1,43
 411 -76 411 -76 429 -59 c 1,44,45
 448 -45 448 -45 448 -18 c 0,46,47
 448 -9 448 -9 447 -1.5 c 128,-1,48
 446 6 446 6 448 6 c 0,49,50
 454 6 454 6 454 -17 c 0,51,52
 454 -84 454 -84 375 -84 c 0,53,54
 342 -84 342 -84 309.5 -73.5 c 128,-1,55
 277 -63 277 -63 228.5 -42 c 128,-1,56
 180 -21 180 -21 159 -8 c 1,57,58
 134 -26 134 -26 107 -26 c 128,-1,59
 80 -26 80 -26 52 -11 c 0,60,61
 19 8 19 8 13 40 c 0,62,63
 11 47 11 47 11 58.5 c 128,-1,64
 11 70 11 70 22.5 82 c 128,-1,65
 34 94 34 94 58 94 c 128,-1,66
 82 94 82 94 116 72 c 1,67,68
 148 48 148 48 174 25 c 1,69,70
 196 59 196 59 214 120 c 0,71,72
 214 121 214 121 240 227 c 1,73,74
 222 229 222 229 216 229 c 0,0,1
148 0 m 1,75,76
 57 72 57 72 36.5 72 c 128,-1,77
 16 72 16 72 16 55 c 0,78,79
 16 27 16 27 41 6 c 0,80,81
 71 -18 71 -18 99.5 -18 c 128,-1,82
 128 -18 128 -18 148 0 c 1,75,76
EndSplineSet
EndChar

StartChar: currency
Encoding: 164 164 104
Width: 585
GlyphClass: 2
Flags: W
LayerCount: 2
Fore
SplineSet
180 267 m 0,0,1
 180 315 180 315 213 349 c 1,2,-1
 137 470 l 1,3,-1
 250 377 l 1,4,5
 280 395 280 395 315.5 395 c 128,-1,6
 351 395 351 395 375 377 c 1,7,-1
 533 473 l 1,8,-1
 400 347 l 1,9,10
 409 330 409 330 409 311 c 0,11,12
 409 266 409 266 376 232 c 1,13,-1
 454 111 l 1,14,-1
 341 205 l 1,15,16
 308 187 308 187 274 187 c 128,-1,17
 240 187 240 187 215 204 c 1,18,-1
 58 107 l 1,19,-1
 189 233 l 1,20,21
 180 248 180 248 180 267 c 0,0,1
297 367 m 128,-1,23
 268 367 268 367 245 344.5 c 128,-1,24
 222 322 222 322 222 289 c 128,-1,25
 222 256 222 256 242.5 235 c 128,-1,26
 263 214 263 214 292 214 c 128,-1,27
 321 214 321 214 345 236 c 128,-1,28
 369 258 369 258 369 291 c 128,-1,29
 369 324 369 324 347.5 345.5 c 128,-1,22
 326 367 326 367 297 367 c 128,-1,23
EndSplineSet
EndChar

StartChar: yen
Encoding: 165 165 105
Width: 481
GlyphClass: 2
Flags: W
LayerCount: 2
Fore
SplineSet
476 361 m 2,0,1
 476 362 476 362 476.5 370.5 c 128,-1,2
 477 379 477 379 466.5 390 c 128,-1,3
 456 401 456 401 441 401 c 0,4,5
 392 401 392 401 289 219 c 1,6,-1
 359 219 l 2,7,8
 360 219 360 219 360 216 c 128,-1,9
 360 213 360 213 356 209 c 128,-1,10
 352 205 352 205 348 205 c 2,11,-1
 281 205 l 1,12,13
 277 195 277 195 246 142 c 1,14,-1
 313 142 l 2,15,16
 315 142 315 142 315 139.5 c 128,-1,17
 315 137 315 137 310.5 132 c 128,-1,18
 306 127 306 127 303 127 c 2,19,-1
 237 127 l 1,20,21
 195 64 195 64 157 26 c 0,22,23
 102 -29 102 -29 46 -29 c 0,24,25
 33 -29 33 -29 33 -25 c 128,-1,26
 33 -21 33 -21 43 -21 c 0,27,28
 82 -21 82 -21 135 36 c 1,29,30
 165 71 165 71 203 127 c 1,31,-1
 51 127 l 2,32,33
 49 127 49 127 49 129.5 c 128,-1,34
 49 132 49 132 54 137 c 128,-1,35
 59 142 59 142 61 142 c 2,36,-1
 213 142 l 1,37,-1
 216 147 l 1,38,39
 216 173 216 173 211 205 c 1,40,-1
 117 205 l 2,41,42
 115 205 115 205 115 207 c 128,-1,43
 115 209 115 209 119.5 214 c 128,-1,44
 124 219 124 219 127 219 c 2,45,-1
 209 219 l 1,46,47
 202 268 202 268 180 310 c 0,48,49
 150 367 150 367 112 367 c 0,50,51
 88 367 88 367 72 342.5 c 128,-1,52
 56 318 56 318 56 297.5 c 128,-1,53
 56 277 56 277 65 259 c 2,54,-1
 73 242 l 1,55,56
 73 237 73 237 70 237 c 128,-1,57
 67 237 67 237 65 239 c 0,58,59
 48 264 48 264 48 294 c 128,-1,60
 48 324 48 324 65 348 c 1,61,62
 83 376 83 376 117.5 376 c 128,-1,63
 152 376 152 376 182 340 c 0,64,65
 233 280 233 280 240 185 c 1,66,-1
 253 205 l 2,67,68
 253 206 253 206 254 207.5 c 128,-1,69
 255 209 255 209 256.5 211.5 c 128,-1,70
 258 214 258 214 261 218.5 c 128,-1,71
 264 223 264 223 273.5 239 c 128,-1,72
 283 255 283 255 288 262 c 0,73,74
 382 410 382 410 441 410 c 0,75,76
 460 410 460 410 472.5 397 c 128,-1,77
 485 384 485 384 485 368.5 c 128,-1,78
 485 353 485 353 480 353 c 128,-1,79
 475 353 475 353 475 357 c 2,80,-1
 476 361 l 2,0,1
EndSplineSet
EndChar

StartChar: brokenbar
Encoding: 166 166 106
Width: 323
GlyphClass: 2
Flags: W
LayerCount: 2
Fore
SplineSet
285 499 m 1,0,-1
 223 215 l 1,1,-1
 191 218 l 1,2,-1
 251 499 l 1,3,-1
 285 499 l 1,0,-1
207 144 m 1,4,-1
 147 -154 l 1,5,-1
 112 -154 l 1,6,-1
 176 147 l 1,7,-1
 207 144 l 1,4,-1
EndSplineSet
EndChar

StartChar: section
Encoding: 167 167 107
Width: 440
GlyphClass: 2
Flags: W
LayerCount: 2
Fore
SplineSet
177 -71 m 1,0,-1
 192 -67 l 1,1,2
 196 -67 196 -67 196 -71 c 0,3,4
 196 -79 196 -79 181 -79 c 1,5,6
 132 -63 132 -63 119 -37 c 1,7,8
 62 -28 62 -28 31 3 c 1,9,10
 -4 35 -4 35 -4 90 c 128,-1,11
 -4 145 -4 145 27.5 191.5 c 128,-1,12
 59 238 59 238 100 254.5 c 128,-1,13
 141 271 141 271 184.5 271 c 128,-1,14
 228 271 228 271 259 244 c 1,15,16
 297 285 297 285 317 318 c 1,17,-1
 317 327 l 2,18,19
 317 375 317 375 329 401 c 1,20,21
 323 425 323 425 323 439 c 0,22,23
 323 471 323 471 347 471 c 0,24,25
 369 471 369 471 369 444.5 c 128,-1,26
 369 418 369 418 349 370 c 1,27,28
 355 359 355 359 389.5 307.5 c 128,-1,29
 424 256 424 256 430.5 229 c 128,-1,30
 437 202 437 202 437 176 c 0,31,32
 437 112 437 112 402 60.5 c 128,-1,33
 367 9 367 9 306 9 c 0,34,35
 294 9 294 9 281 12 c 1,36,37
 216 -39 216 -39 144 -39 c 0,38,39
 139 -39 139 -39 127 -37 c 1,40,41
 143 -61 143 -61 169 -69 c 0,42,43
 173 -71 173 -71 177 -71 c 1,0,-1
173 261 m 0,44,45
 110 261 110 261 59.5 207 c 128,-1,46
 9 153 9 153 9 87 c 0,47,48
 9 44 9 44 39 9 c 1,49,50
 70 -24 70 -24 114 -27 c 1,51,52
 109 -14 109 -14 109 15 c 128,-1,53
 109 44 109 44 128 91 c 1,54,55
 112 106 112 106 112 128 c 0,56,57
 112 135 112 135 117 148 c 0,58,59
 121 161 121 161 127 161 c 0,60,61
 130 161 130 161 123.5 149.5 c 128,-1,62
 117 138 117 138 117 124 c 128,-1,63
 117 110 117 110 131 96 c 1,64,65
 162 165 162 165 247 234 c 1,66,67
 217 261 217 261 173 261 c 0,44,45
321 201 m 0,68,69
 321 266 321 266 317 306 c 1,70,71
 299 278 299 278 263 240 c 1,72,73
 285 218 285 218 285 183.5 c 128,-1,74
 285 149 285 149 267 122 c 128,-1,75
 249 95 249 95 219 83 c 1,76,77
 225 49 225 49 259 30 c 1,78,79
 321 95 321 95 321 201 c 0,68,69
213 80 m 1,80,81
 195 74 195 74 173 74 c 128,-1,82
 151 74 151 74 135 85 c 1,83,84
 115 42 115 42 115 17 c 128,-1,85
 115 -8 115 -8 122 -27 c 1,86,87
 199 -27 199 -27 255 26 c 1,88,89
 220 47 220 47 213 80 c 1,80,81
217 92 m 1,90,91
 240 106 240 106 255.5 129.5 c 128,-1,92
 271 153 271 153 271 180 c 128,-1,93
 271 207 271 207 252 229 c 1,94,95
 168 157 168 157 137 91 c 1,96,97
 152 79 152 79 173 79 c 128,-1,98
 194 79 194 79 211 89 c 1,99,100
 210 92 210 92 210 108 c 128,-1,101
 210 124 210 124 225 140 c 0,102,103
 226 141 226 141 227.5 141 c 128,-1,104
 229 141 229 141 229 138 c 1,105,-1
 223 127 l 2,106,107
 217 118 217 118 217 101 c 2,108,-1
 217 92 l 1,90,91
393 157 m 0,109,110
 394 164 394 164 394 196 c 128,-1,111
 394 228 394 228 380 272 c 0,112,113
 379 277 379 277 344 357 c 1,114,115
 342 352 342 352 333 331 c 1,116,117
 341 297 341 297 352 249.5 c 128,-1,118
 363 202 363 202 363 165 c 0,119,120
 363 82 363 82 289 19 c 1,121,122
 329 19 329 19 360.5 67.5 c 128,-1,123
 392 116 392 116 393 157 c 0,109,110
346 376 m 1,124,125
 362 415 362 415 362 438.5 c 128,-1,126
 362 462 362 462 349 462 c 0,127,128
 329 462 329 462 329 437.5 c 128,-1,129
 329 413 329 413 346 376 c 1,124,125
332 390 m 1,130,131
 328 382 328 382 328 369.5 c 128,-1,132
 328 357 328 357 331 342 c 1,133,-1
 341 364 l 1,134,135
 335 377 335 377 332 390 c 1,130,131
EndSplineSet
EndChar

StartChar: dieresis
Encoding: 168 168 108
Width: 185
GlyphClass: 2
Flags: W
LayerCount: 2
Fore
SplineSet
155 309 m 128,-1,1
 155 287 155 287 134 287 c 0,2,3
 111 287 111 287 111 309 c 128,-1,4
 111 331 111 331 133 331 c 128,-1,0
 155 331 155 331 155 309 c 128,-1,1
69 309 m 128,-1,6
 69 287 69 287 48 287 c 0,7,8
 25 287 25 287 25 309 c 128,-1,9
 25 331 25 331 47 331 c 128,-1,5
 69 331 69 331 69 309 c 128,-1,6
EndSplineSet
EndChar

StartChar: copyright
Encoding: 169 169 109
Width: 369
GlyphClass: 2
Flags: W
LayerCount: 2
Fore
SplineSet
326 323 m 1,0,1
 375 274 375 274 375 196.5 c 128,-1,2
 375 119 375 119 312 56 c 128,-1,3
 249 -7 249 -7 170.5 -7 c 128,-1,4
 92 -7 92 -7 43 41.5 c 128,-1,5
 -6 90 -6 90 -6 168 c 128,-1,6
 -6 246 -6 246 57 308.5 c 128,-1,7
 120 371 120 371 198 371 c 128,-1,8
 276 371 276 371 326 323 c 1,0,1
304 63 m 1,9,10
 363 122 363 122 363 196 c 128,-1,11
 363 270 363 270 317.5 315.5 c 128,-1,12
 272 361 272 361 197.5 361 c 128,-1,13
 123 361 123 361 65 302 c 1,14,15
 5 244 5 244 5 170 c 128,-1,16
 5 96 5 96 51 50 c 128,-1,17
 97 4 97 4 170 4 c 128,-1,18
 243 4 243 4 304 63 c 1,9,10
315 260 m 128,-1,20
 315 238 315 238 277 224 c 1,21,22
 248 215 248 215 206.5 215 c 128,-1,23
 165 215 165 215 128 237 c 1,24,25
 83 188 83 188 83 129 c 0,26,27
 83 97 83 97 98 76 c 1,28,29
 114 51 114 51 145 51 c 0,30,31
 204 51 204 51 241 107 c 0,32,33
 253 125 253 125 253 140 c 128,-1,34
 253 155 253 155 244 164 c 128,-1,35
 235 173 235 173 221 173 c 0,36,37
 192 173 192 173 180 145 c 0,38,39
 179 141 179 141 177 141 c 128,-1,40
 175 141 175 141 175 143 c 2,41,-1
 176 146 l 1,42,43
 183 177 183 177 223 177 c 0,44,45
 240 177 240 177 251 166 c 128,-1,46
 262 155 262 155 262 139 c 0,47,48
 262 102 262 102 223.5 74.5 c 128,-1,49
 185 47 185 47 144.5 47 c 128,-1,50
 104 47 104 47 81.5 70 c 128,-1,51
 59 93 59 93 59 133 c 0,52,53
 59 198 59 198 112 248 c 1,54,55
 91 266 91 266 91 286 c 0,56,57
 91 323 91 323 135 323 c 0,58,59
 165 323 165 323 179 309 c 1,60,-1
 179 305 l 1,61,62
 157 317 157 317 141 317 c 0,63,64
 99 317 99 317 99 283 c 0,65,66
 99 267 99 267 115 251 c 1,67,68
 168 299 168 299 243 299 c 0,69,70
 268 299 268 299 289 291 c 0,71,19
 315 282 315 282 315 260 c 128,-1,20
307 263 m 0,72,73
 307 294 307 294 245.5 294 c 128,-1,74
 184 294 184 294 131 240 c 1,75,76
 166 220 166 220 204.5 220 c 128,-1,77
 243 220 243 220 267 228 c 0,78,79
 307 240 307 240 307 263 c 0,72,73
EndSplineSet
EndChar

StartChar: ordfeminine
Encoding: 170 170 110
Width: 249
GlyphClass: 2
Flags: W
LayerCount: 2
Fore
SplineSet
113 282 m 128,-1,1
 86 282 86 282 83 321 c 1,2,3
 69 301 69 301 56.5 291 c 128,-1,4
 44 281 44 281 35 281 c 0,5,6
 23 281 23 281 23 296.5 c 128,-1,7
 23 312 23 312 32 325 c 0,8,9
 53 358 53 358 81 371 c 0,10,11
 94 376 94 376 107.5 376 c 128,-1,12
 121 376 121 376 121 365 c 0,13,14
 121 363 121 363 117 361.5 c 128,-1,15
 113 360 113 360 113 359 c 0,16,17
 100 337 100 337 100 314 c 128,-1,18
 100 291 100 291 120.5 291 c 128,-1,19
 141 291 141 291 171 324 c 1,20,21
 178 329 178 329 178 324 c 0,22,23
 178 322 178 322 176 320 c 0,24,0
 140 282 140 282 113 282 c 128,-1,1
45 325 m 1,25,26
 39 311 39 311 39 304 c 128,-1,27
 39 297 39 297 45 297 c 128,-1,28
 51 297 51 297 64.5 308 c 128,-1,29
 78 319 78 319 84 335 c 1,30,31
 87 352 87 352 93 364 c 1,32,33
 66 364 66 364 45 325 c 1,25,26
EndSplineSet
EndChar

StartChar: guillemotleft
Encoding: 171 171 111
Width: 301
GlyphClass: 2
Flags: W
LayerCount: 2
Fore
SplineSet
318 198 m 1,0,1
 310 184 310 184 267 153 c 2,2,-1
 211 113 l 1,3,-1
 210 23 l 1,4,-1
 207 16 l 1,5,-1
 202 14 l 1,6,-1
 197 16 l 1,7,8
 190 28 190 28 183 66 c 1,9,-1
 171 119 l 1,10,11
 309 205 309 205 313 205 c 1,12,-1
 317 203 l 1,13,-1
 318 198 l 1,0,1
222 198 m 1,14,15
 214 186 214 186 171 153 c 1,16,17
 133 127 133 127 114 113 c 1,18,-1
 113 23 l 1,19,-1
 110 16 l 1,20,-1
 105 14 l 2,21,22
 104 14 104 14 100 16 c 1,23,24
 95 29 95 29 86 68 c 128,-1,25
 77 107 77 107 75 119 c 1,26,27
 211 205 211 205 217 205 c 1,28,-1
 221 203 l 1,29,-1
 222 198 l 1,14,15
EndSplineSet
EndChar

StartChar: logicalnot
Encoding: 172 172 112
Width: 539
GlyphClass: 2
Flags: W
LayerCount: 2
Fore
SplineSet
394 9 m 0,0,1
 388 9 388 9 384.5 13.5 c 128,-1,2
 381 18 381 18 381 24 c 1,3,-1
 409 153 l 1,4,-1
 61 153 l 2,5,6
 47 153 47 153 47 161 c 0,7,8
 47 166 47 166 54.5 175.5 c 128,-1,9
 62 185 62 185 67 185 c 2,10,-1
 446 185 l 1,11,-1
 412 24 l 2,12,13
 409 9 409 9 394 9 c 0,0,1
EndSplineSet
EndChar

StartChar: registered
Encoding: 174 174 113
Width: 369
GlyphClass: 2
Flags: W
LayerCount: 2
Fore
SplineSet
326 323 m 1,0,1
 375 274 375 274 375 196.5 c 128,-1,2
 375 119 375 119 312 56 c 128,-1,3
 249 -7 249 -7 170.5 -7 c 128,-1,4
 92 -7 92 -7 43 41.5 c 128,-1,5
 -6 90 -6 90 -6 168 c 128,-1,6
 -6 246 -6 246 57 308.5 c 128,-1,7
 120 371 120 371 198 371 c 128,-1,8
 276 371 276 371 326 323 c 1,0,1
304 63 m 1,9,10
 363 122 363 122 363 196 c 128,-1,11
 363 270 363 270 317.5 315.5 c 128,-1,12
 272 361 272 361 197.5 361 c 128,-1,13
 123 361 123 361 65 302 c 1,14,15
 5 244 5 244 5 170 c 128,-1,16
 5 96 5 96 51 50 c 128,-1,17
 97 4 97 4 170 4 c 128,-1,18
 243 4 243 4 304 63 c 1,9,10
109 218 m 1,19,-1
 111 220 l 1,20,21
 113 220 113 220 113 217.5 c 128,-1,22
 113 215 113 215 108 215 c 0,23,24
 95 215 95 215 95 228 c 128,-1,25
 95 241 95 241 105.5 249.5 c 128,-1,26
 116 258 116 258 131 258 c 128,-1,27
 146 258 146 258 156.5 247.5 c 128,-1,28
 167 237 167 237 167 215 c 128,-1,29
 167 193 167 193 148 177 c 128,-1,30
 129 161 129 161 104 161 c 128,-1,31
 79 161 79 161 62 175 c 1,32,33
 46 190 46 190 46 210 c 0,34,35
 46 270 46 270 117 298 c 0,36,37
 151 312 151 312 193.5 312 c 128,-1,38
 236 312 236 312 263 303 c 1,39,40
 288 319 288 319 311 319 c 1,41,-1
 314 318 l 1,42,-1
 313 317 l 1,43,44
 285 314 285 314 268 301 c 1,45,46
 310 286 310 286 310 256 c 128,-1,47
 310 226 310 226 283.5 209.5 c 128,-1,48
 257 193 257 193 225 190 c 1,49,50
 229 180 229 180 231.5 154.5 c 128,-1,51
 234 129 234 129 237 107.5 c 128,-1,52
 240 86 240 86 249.5 83.5 c 128,-1,53
 259 81 259 81 261 81 c 0,54,55
 277 81 277 81 295.5 102 c 128,-1,56
 314 123 314 123 319 143 c 1,57,-1
 322 143 l 1,58,-1
 323 142 l 1,59,60
 313 116 313 116 293.5 94.5 c 128,-1,61
 274 73 274 73 254 73 c 0,62,63
 246 73 246 73 238 79 c 0,64,65
 220 91 220 91 217 130 c 0,66,67
 214 188 214 188 214 189 c 1,68,-1
 206 189 l 2,69,70
 199 189 199 189 196 190 c 1,71,72
 174 137 174 137 155 115 c 1,73,74
 117 67 117 67 61 67 c 0,75,76
 33 67 33 67 33 85.5 c 128,-1,77
 33 104 33 104 51 104 c 0,78,79
 56 104 56 104 56 101.5 c 128,-1,80
 56 99 56 99 55 99 c 2,81,-1
 52 99 l 1,82,83
 51 100 51 100 49 100 c 0,84,85
 39 100 39 100 39 87 c 0,86,87
 39 71 39 71 63 71 c 0,88,89
 105 71 105 71 139 119 c 1,90,91
 153 141 153 141 182 203 c 1,92,93
 215 269 215 269 257 299 c 1,94,95
 231 307 231 307 197 307 c 0,96,97
 104 307 104 307 70 249 c 0,98,99
 59 230 59 230 59 211 c 128,-1,100
 59 192 59 192 71 178.5 c 128,-1,101
 83 165 83 165 104.5 165 c 128,-1,102
 126 165 126 165 142 181 c 1,103,104
 159 195 159 195 159 219 c 0,105,106
 159 254 159 254 127 254 c 0,107,108
 117 254 117 254 107.5 246 c 128,-1,109
 98 238 98 238 98 227 c 0,110,111
 98 218 98 218 109 218 c 1,19,-1
223 195 m 1,112,113
 251 200 251 200 272 215 c 128,-1,114
 293 230 293 230 293 256 c 128,-1,115
 293 282 293 282 262 297 c 1,116,117
 234 272 234 272 205 211 c 1,118,119
 217 206 217 206 223 195 c 1,112,113
213 194 m 1,120,121
 209 203 209 203 203 207 c 1,122,-1
 198 194 l 1,123,-1
 213 194 l 1,120,121
EndSplineSet
EndChar

StartChar: macron
Encoding: 175 175 114
Width: 323
GlyphClass: 2
Flags: W
LayerCount: 2
Fore
SplineSet
288 301 m 1,0,-1
 274 269 l 1,1,-1
 119 269 l 1,2,-1
 133 301 l 1,3,-1
 288 301 l 1,0,-1
EndSplineSet
EndChar

StartChar: plusminus
Encoding: 177 177 116
Width: 305
GlyphClass: 2
Flags: W
LayerCount: 2
Fore
SplineSet
149 193 m 2,0,-1
 203 192 l 1,1,2
 207 211 207 211 226 289 c 0,3,4
 229 303 229 303 240 303 c 0,5,6
 246 303 246 303 245 291 c 1,7,8
 237 256 237 256 225 192 c 1,9,10
 273 192 273 192 311 191 c 0,11,12
 323 191 323 191 323 182 c 128,-1,13
 323 173 323 173 302 173 c 128,-1,14
 281 173 281 173 221 169 c 1,15,16
 215 142 215 142 205 78 c 0,17,18
 205 75 205 75 197.5 71 c 128,-1,19
 190 67 190 67 183 67 c 0,20,21
 170 67 170 67 173 78 c 2,22,-1
 197 168 l 1,23,24
 160 167 160 167 102 162 c 0,25,26
 95 162 95 162 95 178 c 128,-1,27
 95 194 95 194 111.5 194 c 128,-1,28
 128 194 128 194 149 193 c 2,0,-1
99 47 m 2,29,-1
 167 45 l 1,30,-1
 273 41 l 2,31,32
 287 41 287 41 287 31 c 0,33,34
 287 23 287 23 275 23 c 0,35,36
 167 23 167 23 132.5 19 c 128,-1,37
 98 15 98 15 96 15 c 128,-1,38
 94 15 94 15 92 21 c 1,39,40
 88 26 88 26 88 34 c 0,41,42
 88 47 88 47 99 47 c 2,29,-1
EndSplineSet
EndChar

StartChar: twosuperior
Encoding: 178 178 117
Width: 238
GlyphClass: 2
Flags: W
LayerCount: 2
Fore
SplineSet
158 189 m 0,0,1
 156 188 156 188 154.5 188 c 128,-1,2
 153 188 153 188 153 191.5 c 128,-1,3
 153 195 153 195 160 198 c 128,-1,4
 167 201 167 201 167 208 c 128,-1,5
 167 215 167 215 148.5 221 c 128,-1,6
 130 227 130 227 114 227 c 2,7,-1
 107 227 l 2,8,9
 77 227 77 227 14 204 c 0,10,11
 6 201 6 201 -0.5 201 c 128,-1,12
 -7 201 -7 201 -7 208 c 128,-1,13
 -7 215 -7 215 2.5 223.5 c 128,-1,14
 12 232 12 232 24 232 c 1,15,16
 60 245 60 245 115 281 c 128,-1,17
 170 317 170 317 195.5 350.5 c 128,-1,18
 221 384 221 384 221 403 c 0,19,20
 221 426 221 426 195 426 c 0,21,22
 180 426 180 426 158 417 c 0,23,24
 99 392 99 392 85 349 c 0,25,26
 83 344 83 344 80 344 c 0,27,28
 79 344 79 344 79 350 c 1,29,30
 85 381 85 381 121.5 408.5 c 128,-1,31
 158 436 158 436 184 436 c 128,-1,32
 210 436 210 436 221.5 424 c 128,-1,33
 233 412 233 412 233 389 c 128,-1,34
 233 366 233 366 212 341 c 1,35,36
 191 319 191 319 159 299 c 0,37,38
 94 260 94 260 67 238 c 1,39,40
 174 238 174 238 171 207 c 1,41,42
 171 194 171 194 158 189 c 0,0,1
EndSplineSet
EndChar

StartChar: threesuperior
Encoding: 179 179 118
Width: 238
GlyphClass: 2
Flags: W
LayerCount: 2
Fore
SplineSet
31 218 m 0,0,1
 31 193 31 193 75 193 c 128,-1,2
 119 193 119 193 159 225 c 0,3,4
 181 243 181 243 181 260 c 128,-1,5
 181 277 181 277 155 286 c 128,-1,6
 129 295 129 295 108 294.5 c 128,-1,7
 87 294 87 294 87 299.5 c 128,-1,8
 87 305 87 305 126 309 c 128,-1,9
 165 313 165 313 171 315 c 0,10,11
 239 332 239 332 239 373 c 0,12,13
 239 391 239 391 220 407 c 1,14,15
 200 421 200 421 170 421 c 128,-1,16
 140 421 140 421 109 407 c 1,17,18
 73 389 73 389 70 363 c 0,19,20
 70 357 70 357 65.5 357 c 128,-1,21
 61 357 61 357 61 364 c 0,22,23
 62 394 62 394 101 410.5 c 128,-1,24
 140 427 140 427 176 427 c 128,-1,25
 212 427 212 427 234.5 412 c 128,-1,26
 257 397 257 397 257 376 c 0,27,28
 257 332 257 332 179 308 c 1,29,-1
 138 300 l 1,30,31
 168 300 168 300 183.5 288.5 c 128,-1,32
 199 277 199 277 199 255.5 c 128,-1,33
 199 234 199 234 163 208 c 128,-1,34
 127 182 127 182 74.5 182 c 128,-1,35
 22 182 22 182 22 219 c 0,36,37
 22 242 22 242 49 247 c 0,38,39
 54 247 54 247 54 244.5 c 128,-1,40
 54 242 54 242 48.5 242 c 128,-1,41
 43 242 43 242 37 235 c 128,-1,42
 31 228 31 228 31 218 c 0,0,1
EndSplineSet
EndChar

StartChar: acute
Encoding: 180 180 119
Width: 178
GlyphClass: 2
Flags: W
LayerCount: 2
Fore
SplineSet
82.5 317 m 128,-1,1
 113 340 113 340 123.5 347.5 c 128,-1,2
 134 355 134 355 150.5 355 c 128,-1,3
 167 355 167 355 167 342 c 0,4,5
 167 339 167 339 163.5 333 c 128,-1,6
 160 327 160 327 104.5 301 c 128,-1,7
 49 275 49 275 43 275 c 128,-1,8
 37 275 37 275 37 278.5 c 128,-1,9
 37 282 37 282 38 284 c 1,10,0
 52 294 52 294 82.5 317 c 128,-1,1
EndSplineSet
EndChar

StartChar: mu
Encoding: 181 181 120
Width: 216
GlyphClass: 2
Flags: W
LayerCount: 2
Fore
SplineSet
179 -5 m 0,0,1
 144 -5 144 -5 144 33 c 0,2,3
 144 51 144 51 151 69 c 1,4,5
 105 -4 105 -4 66 -4 c 0,6,7
 44 -4 44 -4 35 15 c 1,8,-1
 -51 -173 l 2,9,10
 -52 -175 -52 -175 -64 -175 c 0,11,12
 -86 -175 -86 -175 -86 -168 c 1,13,-1
 43 85 l 1,14,-1
 75 151 l 2,15,16
 95 190 95 190 112 215 c 1,17,-1
 113 215 l 1,18,19
 117 211 117 211 127 211 c 128,-1,20
 137 211 137 211 156 225 c 1,21,-1
 157 224 l 1,22,23
 147 212 147 212 132 186 c 0,24,25
 104 136 104 136 94 120 c 0,26,27
 55 54 55 54 55 21 c 0,28,29
 55 3 55 3 71 3 c 0,30,31
 109 3 109 3 175 120 c 0,32,33
 193 153 193 153 226 219 c 1,34,-1
 227 219 l 1,35,36
 237 214 237 214 248 214 c 128,-1,37
 259 214 259 214 265 227 c 1,38,-1
 267 227 l 1,39,-1
 215 126 l 1,40,41
 169 40 169 40 169 20.5 c 128,-1,42
 169 1 169 1 180 1 c 0,43,44
 203 1 203 1 229 37.5 c 128,-1,45
 255 74 255 74 270 109 c 1,46,-1
 274 109 l 1,47,-1
 275 107 l 1,48,49
 224 -5 224 -5 179 -5 c 0,0,1
EndSplineSet
EndChar

StartChar: paragraph
Encoding: 182 182 121
Width: 269
GlyphClass: 2
Flags: W
LayerCount: 2
Fore
SplineSet
123 298 m 0,0,1
 123 313 123 313 131 337 c 0,2,3
 155 401 155 401 220 427 c 0,4,5
 244 436 244 436 288 436 c 2,6,-1
 403 436 l 1,7,-1
 391 403 l 1,8,-1
 377 403 l 1,9,-1
 230 0 l 1,10,-1
 185 0 l 1,11,-1
 333 403 l 1,12,-1
 300 403 l 1,13,-1
 153 0 l 1,14,-1
 108 0 l 1,15,-1
 197 242 l 1,16,17
 123 242 123 242 123 298 c 0,0,1
EndSplineSet
EndChar

StartChar: cedilla
Encoding: 184 184 123
Width: 253
GlyphClass: 2
Flags: W
LayerCount: 2
Fore
SplineSet
189 -37 m 1,0,1
 217 -52 217 -52 217 -78.5 c 128,-1,2
 217 -105 217 -105 183 -127 c 0,3,4
 166 -139 166 -139 140 -139 c 128,-1,5
 114 -139 114 -139 81 -131 c 128,-1,6
 48 -123 48 -123 48 -108 c 0,7,8
 48 -103 48 -103 51 -103 c 128,-1,9
 54 -103 54 -103 62 -111 c 0,10,11
 78 -127 78 -127 123 -127 c 128,-1,12
 168 -127 168 -127 183 -103 c 1,13,14
 193 -90 193 -90 193 -74.5 c 128,-1,15
 193 -59 193 -59 177.5 -48.5 c 128,-1,16
 162 -38 162 -38 146 -38 c 128,-1,17
 130 -38 130 -38 112 -46 c 2,18,-1
 95 -54 l 1,19,20
 82 -54 82 -54 82 -44 c 0,21,22
 82 -41 82 -41 85 -38 c 2,23,-1
 111 -17 l 1,24,25
 135 1 135 1 137.5 1 c 128,-1,26
 140 1 140 1 141 -5 c 1,27,28
 112 -26 112 -26 112 -28 c 1,29,30
 130 -26 130 -26 147.5 -26 c 128,-1,31
 165 -26 165 -26 189 -37 c 1,0,1
EndSplineSet
EndChar

StartChar: onesuperior
Encoding: 185 185 124
Width: 244
GlyphClass: 2
Flags: W
LayerCount: 2
Fore
SplineSet
69 221 m 0,0,1
 68 217 68 217 61.5 217 c 128,-1,2
 55 217 55 217 55 223 c 0,3,4
 55 226 55 226 56 227 c 2,5,-1
 99 317 l 1,6,7
 122 368 122 368 137 408 c 1,8,9
 120 400 120 400 109 388.5 c 128,-1,10
 98 377 98 377 95.5 377 c 128,-1,11
 93 377 93 377 93 379 c 0,12,13
 93 386 93 386 171 459 c 1,14,-1
 175 459 l 2,15,16
 182 459 182 459 186 454.5 c 128,-1,17
 190 450 190 450 190 447 c 1,18,-1
 132 351 l 1,19,20
 92 277 92 277 69 221 c 0,0,1
EndSplineSet
EndChar

StartChar: ordmasculine
Encoding: 186 186 125
Width: 182
GlyphClass: 2
Flags: W
LayerCount: 2
Fore
SplineSet
47 303 m 0,0,1
 47 284 47 284 59 284 c 0,2,3
 75 284 75 284 87 301 c 1,4,5
 63 304 63 304 49 321 c 1,6,7
 47 307 47 307 47 303 c 0,0,1
91 308 m 1,8,9
 103 330 103 330 103 354.5 c 128,-1,10
 103 379 103 379 81 381 c 1,11,12
 66 364 66 364 55 340 c 1,13,14
 61 312 61 312 91 308 c 1,8,9
89 390 m 0,15,16
 89 388 89 388 85 386 c 1,17,18
 113 377 113 377 113 348.5 c 128,-1,19
 113 320 113 320 101 308 c 1,20,21
 132 308 132 308 152 328 c 0,22,23
 154 330 154 330 155.5 330 c 128,-1,24
 157 330 157 330 157 327.5 c 128,-1,25
 157 325 157 325 154 322 c 0,26,27
 129 300 129 300 97 300 c 1,28,29
 76 275 76 275 52 275 c 0,30,31
 30 275 30 275 30 298 c 128,-1,32
 30 321 30 321 40 345 c 1,33,-1
 39 357 l 1,34,35
 39 384 39 384 66 387 c 1,36,37
 74 396 74 396 81.5 396 c 128,-1,38
 89 396 89 396 89 390 c 0,15,16
EndSplineSet
EndChar

StartChar: guillemotright
Encoding: 187 187 126
Width: 301
GlyphClass: 2
Flags: W
LayerCount: 2
Fore
SplineSet
165 100 m 1,0,-1
 29 15 l 1,1,-1
 24 14 l 2,2,3
 21 14 21 14 19 15 c 1,4,-1
 18 18 l 1,5,6
 18 27 18 27 71 66 c 1,7,-1
 126 105 l 1,8,-1
 127 196 l 1,9,-1
 130 202 l 1,10,-1
 135 205 l 1,11,-1
 141 202 l 1,12,13
 148 187 148 187 155 151 c 2,14,-1
 165 100 l 1,0,-1
115 21 m 1,15,16
 129 41 129 41 223 105 c 1,17,-1
 223 135 l 1,18,19
 222 148 222 148 222 158 c 128,-1,20
 222 168 222 168 222.5 183 c 128,-1,21
 223 198 223 198 226 202 c 1,22,-1
 231 205 l 1,23,-1
 237 202 l 2,24,25
 239 200 239 200 262 100 c 1,26,-1
 125 15 l 1,27,-1
 120 14 l 1,28,-1
 115 15 l 1,29,-1
 115 21 l 1,15,16
EndSplineSet
EndChar

